<svg width="1385" height="88" viewBox="0 0 1385 88" fill="none" xmlns="http://www.w3.org/2000/svg">
<path fill-rule="evenodd" clip-rule="evenodd" d="M0.55304 87.5531L0.552979 0L88 87.447L175.447 0L262 86.5531L348.553 0L435.053 86.5L521.553 0L608.106 86.5531L694.659 0L781.106 86.447L867.553 0L954.106 86.5531L1040.66 0L1127.16 86.5L1213.66 0L1299.11 85.447L1384.55 0L1384.55 87.5531H1301.21H1297H1213.66H1128.21H1126.11H1040.66H955.106H953.106H867.553H782.212H780H694.659H609.106H607.106H521.553H436.106H434H348.553H263H261H175.447H88.106H87.8939H0.55304Z" fill="white"/>
</svg>
