<svg width="18" height="20" viewBox="0 0 18 20" fill="none" xmlns="http://www.w3.org/2000/svg">
<path d="M8.99949 19C8.79016 19 8.58083 18.9167 8.42137 18.7511L1.87973 11.9538C-0.489982 9.44472 -0.635534 5.85491 1.53629 3.59821C2.53553 2.56247 3.84795 2 5.24213 2C5.24541 2 5.24786 2 5.25113 2C6.64859 2.00255 7.96264 2.57012 8.94879 3.59991L8.99949 3.65259L9.04774 3.60246C10.0511 2.56332 11.3627 2 12.7568 2C12.7601 2 12.7626 2 12.7658 2C14.1641 2.00255 15.4774 2.57012 16.4635 3.59906C18.6345 5.85661 18.4898 9.44557 16.125 11.9478L9.57761 18.7511C9.41816 18.9167 9.20883 19 8.99949 19ZM5.24213 3.69932C4.28378 3.69932 3.38185 4.08677 2.70316 4.79028C1.36948 6.17608 1.06366 8.66473 3.04251 10.7583L8.99949 16.9489L14.963 10.7523C16.9353 8.66389 16.6303 6.17523 15.3065 4.79963L15.3056 4.79878C14.6269 4.09101 13.7234 3.70102 12.7634 3.69932C12.7609 3.69932 12.7585 3.69932 12.7568 3.69932C11.7977 3.69932 10.8966 4.08677 10.2179 4.79028L9.5817 5.45897C9.27424 5.78269 8.72556 5.78269 8.4181 5.45897L7.78847 4.79623C7.11223 4.09101 6.20948 3.70102 5.24868 3.69932C5.24622 3.69932 5.24377 3.69932 5.24213 3.69932Z" fill="black"/>
</svg>
