<svg width="2519" height="1344" viewBox="0 0 2519 1344" fill="none" xmlns="http://www.w3.org/2000/svg">
<path d="M216.44 1258.54L209.654 1257.27V1255.45H224.496C228.868 1255.45 232.455 1256.44 235.255 1258.43C238.041 1260.39 240.014 1262.89 241.159 1265.93L259.808 1313.5L270.677 1281.6L261.573 1258.54L254.732 1257.27V1255.45H269.573C273.946 1255.45 277.491 1256.43 280.222 1258.38C282.94 1260.29 284.94 1262.82 286.236 1265.93L304.885 1313.5L322.707 1260.97L313.437 1257.27V1255.45H336.28V1257.27L326.403 1260.97L298.595 1343.12H294.899L272.663 1286.68L253.518 1343.12H249.821L216.44 1258.54Z" fill="white"/>
<path d="M339.985 1341.91V1340.03L347.379 1338.21V1259.15L339.985 1257.27V1255.45H375.187V1257.27L367.793 1259.15V1297.44H394.332V1259.15L386.939 1257.27V1255.45H422.14V1257.27L414.747 1259.15V1338.21L422.14 1340.03V1341.91H386.939V1340.03L394.332 1338.21V1300.53H367.793V1338.21L375.187 1340.03V1341.91H339.985Z" fill="white"/>
<path d="M434.48 1340.03L441.873 1338.21V1259.15L434.48 1257.27V1255.45H500.579V1277.69H496.882C495.296 1276.45 493.931 1274.87 492.799 1273C490.151 1268.56 488.827 1263.73 488.827 1258.54H462.288V1297.44H476.468C477.047 1294.32 478.123 1291.4 479.668 1288.67C480.33 1287.43 481.116 1286.23 482.04 1285.08H485.737V1312.89H482.04C481.116 1311.72 480.33 1310.52 479.668 1309.3C478.123 1306.58 477.047 1303.66 476.468 1300.53H462.288V1338.82H491.31C491.31 1333.63 492.634 1328.82 495.282 1324.36C496.413 1322.49 497.765 1320.93 499.31 1319.68H503.062V1341.91H434.48V1340.03Z" fill="white"/>
<path d="M514.152 1340.03L521.545 1338.21V1259.15L514.152 1257.27V1255.45H546.87C560.885 1255.45 570.982 1257.58 577.161 1261.8C583.341 1266.03 586.43 1271.94 586.43 1279.51C586.43 1284.63 585.065 1288.78 582.348 1291.98C579.616 1295.15 576.127 1297.49 571.864 1299.04C567.299 1300.78 562.485 1301.67 557.409 1301.74V1302.41C560.416 1302.56 563.092 1303 565.409 1303.73C571.175 1305.54 575.092 1308.79 577.161 1313.5L588.251 1338.21L594.431 1340.03V1341.91H577.161C570.388 1341.91 565.437 1338.42 562.319 1331.43L549.96 1303.62H541.96V1338.21L550.567 1340.03V1341.91H514.152V1340.03ZM546.87 1300.53C552.636 1300.53 557.16 1298.74 560.443 1295.12C563.754 1291.48 565.409 1286.28 565.409 1279.51C565.409 1272.78 563.754 1267.62 560.443 1264C557.16 1260.36 552.636 1258.54 546.87 1258.54H541.96V1300.53H546.87Z" fill="white"/>
<path d="M600.617 1340.03L608.011 1338.21V1259.15L600.617 1257.27V1255.45H666.716V1277.69H663.02C661.433 1276.45 660.068 1274.87 658.937 1273C656.288 1268.56 654.964 1263.73 654.964 1258.54H628.425V1297.44H642.605C643.184 1294.32 644.26 1291.4 645.805 1288.67C646.467 1287.43 647.254 1286.23 648.178 1285.08H651.874V1312.89H648.178C647.254 1311.72 646.467 1310.52 645.805 1309.3C644.26 1306.58 643.184 1303.66 642.605 1300.53H628.425V1338.82H657.447C657.447 1333.63 658.771 1328.82 661.42 1324.36C662.551 1322.49 663.902 1320.93 665.447 1319.68H669.199V1341.91H600.617V1340.03Z" fill="white"/>
<path d="M732.807 1340.03L740.2 1338.21V1309.8L714.875 1259.15L708.696 1257.27V1255.45H724.145C728.407 1255.45 731.828 1256.36 734.407 1258.16C737.014 1259.96 739.152 1262.56 740.807 1265.93L759.125 1302.41L777.885 1260.97L768.615 1257.27V1255.45H792.064V1257.27L782.188 1260.97L760.56 1308.53V1338.21L768.008 1340.03V1341.91H732.807V1340.03Z" fill="white"/>
<path d="M836.522 1343.79C828.467 1343.79 821.405 1342.03 815.335 1338.54C809.294 1335.01 804.631 1329.88 801.321 1323.15C798.038 1316.39 796.41 1308.23 796.41 1298.65C796.41 1289.14 798.038 1280.98 801.321 1274.21C804.631 1267.45 809.294 1262.32 815.335 1258.82C821.405 1255.33 828.467 1253.58 836.522 1253.58C844.605 1253.58 851.668 1255.33 857.709 1258.82C863.779 1262.32 868.441 1267.45 871.724 1274.21C875.034 1280.98 876.689 1289.14 876.689 1298.65C876.689 1308.23 875.034 1316.39 871.724 1323.15C868.441 1329.88 863.779 1335.01 857.709 1338.54C851.668 1342.03 844.605 1343.79 836.522 1343.79ZM836.522 1341.3C839.75 1341.3 842.757 1339.95 845.516 1337.22C848.275 1334.5 850.551 1329.98 852.357 1323.65C854.151 1317.29 855.061 1308.96 855.061 1298.65C855.061 1288.36 854.151 1280.05 852.357 1273.71C850.551 1267.4 848.275 1262.87 845.516 1260.14C842.757 1257.42 839.75 1256.06 836.522 1256.06C833.322 1256.06 830.343 1257.42 827.584 1260.14C824.825 1262.87 822.536 1267.4 820.742 1273.71C818.935 1280.05 818.039 1288.36 818.039 1298.65C818.039 1308.96 818.935 1317.29 820.742 1323.65C822.536 1329.98 824.825 1334.5 827.584 1337.22C830.343 1339.95 833.322 1341.3 836.522 1341.3Z" fill="white"/>
<path d="M931.019 1343.79C918.839 1343.79 909.625 1340.92 903.376 1335.18C897.114 1329.44 893.996 1321.39 893.996 1311.01V1259.15L886.548 1257.27V1255.45H921.749V1257.27L914.356 1259.15V1311.01C914.356 1321.65 915.983 1329.26 919.266 1333.85C922.577 1338.42 927.322 1340.7 933.501 1340.7C937.281 1340.7 940.895 1339.48 944.316 1337.05C947.736 1334.63 950.495 1331.18 952.592 1326.68C954.688 1322.16 955.737 1316.94 955.737 1311.01V1260.97L945.86 1257.27V1255.45H969.31V1257.27L959.433 1260.97V1311.01C959.433 1317.72 958.192 1323.52 955.737 1328.45C953.268 1333.39 949.888 1337.17 945.585 1339.81C941.309 1342.46 936.453 1343.79 931.019 1343.79Z" fill="white"/>
<path d="M976.125 1340.03L983.518 1338.21V1259.15L976.125 1257.27V1255.45H1008.84C1022.86 1255.45 1032.95 1257.58 1039.13 1261.8C1045.31 1266.03 1048.4 1271.94 1048.4 1279.51C1048.4 1284.63 1047.04 1288.78 1044.32 1291.98C1041.59 1295.15 1038.1 1297.49 1033.84 1299.04C1029.27 1300.78 1024.46 1301.67 1019.38 1301.74V1302.41C1022.39 1302.56 1025.06 1303 1027.38 1303.73C1033.15 1305.54 1037.06 1308.79 1039.13 1313.5L1050.22 1338.21L1056.4 1340.03V1341.91H1039.13C1032.36 1341.91 1027.41 1338.42 1024.29 1331.43L1011.93 1303.62H1003.93V1338.21L1012.54 1340.03V1341.91H976.125V1340.03ZM1008.84 1300.53C1014.61 1300.53 1019.13 1298.74 1022.42 1295.12C1025.73 1291.48 1027.38 1286.28 1027.38 1279.51C1027.38 1272.78 1025.73 1267.62 1022.42 1264C1019.13 1260.36 1014.61 1258.54 1008.84 1258.54H1003.93V1300.53H1008.84Z" fill="white"/>
<path d="M1095.3 1258.54L1088.51 1257.27V1255.45H1103.36C1107.73 1255.45 1111.31 1256.44 1114.11 1258.43C1116.9 1260.39 1118.87 1262.89 1120.02 1265.93L1138.67 1313.5L1149.54 1281.6L1140.43 1258.54L1133.59 1257.27V1255.45H1148.43C1152.81 1255.45 1156.35 1256.43 1159.08 1258.38C1161.8 1260.29 1163.8 1262.82 1165.1 1265.93L1183.75 1313.5L1201.57 1260.97L1192.3 1257.27V1255.45H1215.14V1257.27L1205.26 1260.97L1177.46 1343.12H1173.76L1151.52 1286.68L1132.38 1343.12H1128.68L1095.3 1258.54Z" fill="white"/>
<path d="M1210.18 1340.03L1220.06 1336.34L1254.05 1254.18H1257.74L1292.94 1338.21L1299.12 1340.03V1341.91H1284.34C1280.03 1341.91 1276.52 1340.96 1273.8 1339.04C1271.07 1337.1 1269.07 1334.56 1267.79 1331.43L1261.44 1316.59H1231.92L1223.81 1336.34L1233.03 1340.03V1341.91H1210.18V1340.03ZM1233.19 1313.5H1260.23L1246.65 1281L1233.19 1313.5Z" fill="white"/>
<path d="M1302.84 1340.03L1310.23 1338.21V1259.15L1302.84 1257.27V1255.45H1335.56C1349.57 1255.45 1359.67 1257.58 1365.85 1261.8C1372.03 1266.03 1375.12 1271.94 1375.12 1279.51C1375.12 1284.63 1373.75 1288.78 1371.04 1291.98C1368.3 1295.15 1364.82 1297.49 1360.55 1299.04C1355.99 1300.78 1351.17 1301.67 1346.1 1301.74V1302.41C1349.1 1302.56 1351.78 1303 1354.1 1303.73C1359.86 1305.54 1363.78 1308.79 1365.85 1313.5L1376.94 1338.21L1383.12 1340.03V1341.91H1365.85C1359.08 1341.91 1354.13 1338.42 1351.01 1331.43L1338.65 1303.62H1330.65V1338.21L1339.26 1340.03V1341.91H1302.84V1340.03ZM1335.56 1300.53C1341.32 1300.53 1345.85 1298.74 1349.13 1295.12C1352.44 1291.48 1354.1 1286.28 1354.1 1279.51C1354.1 1272.78 1352.44 1267.62 1349.13 1264C1345.85 1260.36 1341.32 1258.54 1335.56 1258.54H1330.65V1300.53H1335.56Z" fill="white"/>
<path d="M1389.31 1340.03L1396.7 1338.21V1259.15L1389.31 1257.27V1255.45H1420.81C1435.56 1255.45 1446.85 1259.25 1454.69 1266.82C1462.55 1274.4 1466.5 1285.01 1466.5 1298.65C1466.5 1312.34 1462.55 1322.97 1454.69 1330.54C1446.85 1338.13 1435.56 1341.91 1420.81 1341.91H1389.31V1340.03ZM1420.81 1338.82C1428.45 1338.82 1434.38 1335.72 1438.58 1329.5C1442.77 1323.29 1444.87 1313 1444.87 1298.65C1444.87 1284.35 1442.77 1274.09 1438.58 1267.87C1434.38 1261.66 1428.45 1258.54 1420.81 1258.54H1417.11V1338.82H1420.81Z" fill="white"/>
<path d="M1477.62 1340.03L1485.02 1338.21V1259.15L1477.62 1257.27V1255.45H1510.34C1524.36 1255.45 1534.45 1257.58 1540.63 1261.8C1546.81 1266.03 1549.9 1271.94 1549.9 1279.51C1549.9 1284.63 1548.54 1288.78 1545.82 1291.98C1543.09 1295.15 1539.6 1297.49 1535.34 1299.04C1530.77 1300.78 1525.96 1301.67 1520.88 1301.74V1302.41C1523.89 1302.56 1526.56 1303 1528.88 1303.73C1534.65 1305.54 1538.56 1308.79 1540.63 1313.5L1551.72 1338.21L1557.9 1340.03V1341.91H1540.63C1533.86 1341.91 1528.91 1338.42 1525.79 1331.43L1513.43 1303.62H1505.43V1338.21L1514.04 1340.03V1341.91H1477.62V1340.03ZM1510.34 1300.53C1516.11 1300.53 1520.63 1298.74 1523.92 1295.12C1527.23 1291.48 1528.88 1286.28 1528.88 1279.51C1528.88 1272.78 1527.23 1267.62 1523.92 1264C1520.63 1260.36 1516.11 1258.54 1510.34 1258.54H1505.43V1300.53H1510.34Z" fill="white"/>
<path d="M1603.59 1343.79C1595.54 1343.79 1588.48 1342.03 1582.41 1338.54C1576.37 1335.01 1571.7 1329.88 1568.39 1323.15C1565.11 1316.39 1563.48 1308.23 1563.48 1298.65C1563.48 1289.14 1565.11 1280.98 1568.39 1274.21C1571.7 1267.45 1576.37 1262.32 1582.41 1258.82C1588.48 1255.33 1595.54 1253.58 1603.59 1253.58C1611.68 1253.58 1618.74 1255.33 1624.78 1258.82C1630.85 1262.32 1635.51 1267.45 1638.8 1274.21C1642.11 1280.98 1643.76 1289.14 1643.76 1298.65C1643.76 1308.23 1642.11 1316.39 1638.8 1323.15C1635.51 1329.88 1630.85 1335.01 1624.78 1338.54C1618.74 1342.03 1611.68 1343.79 1603.59 1343.79ZM1603.59 1341.3C1606.82 1341.3 1609.83 1339.95 1612.59 1337.22C1615.35 1334.5 1617.62 1329.98 1619.43 1323.65C1621.22 1317.29 1622.13 1308.96 1622.13 1298.65C1622.13 1288.36 1621.22 1280.05 1619.43 1273.71C1617.62 1267.4 1615.35 1262.87 1612.59 1260.14C1609.83 1257.42 1606.82 1256.06 1603.59 1256.06C1600.39 1256.06 1597.42 1257.42 1594.66 1260.14C1591.9 1262.87 1589.61 1267.4 1587.81 1273.71C1586.01 1280.05 1585.11 1288.36 1585.11 1298.65C1585.11 1308.96 1586.01 1317.29 1587.81 1323.65C1589.61 1329.98 1591.9 1334.5 1594.66 1337.22C1597.42 1339.95 1600.39 1341.3 1603.59 1341.3Z" fill="white"/>
<path d="M1655.5 1340.03L1662.89 1338.21V1259.15L1655.5 1257.27V1255.45H1688.82C1701.36 1255.45 1710.57 1257.47 1716.46 1261.47C1722.34 1265.44 1725.29 1270.65 1725.29 1277.08C1725.29 1281.49 1724 1285.07 1721.43 1287.78C1718.89 1290.52 1715.65 1292.53 1711.72 1293.85C1707.53 1295.33 1702.97 1296.12 1698.09 1296.23V1296.83C1704.12 1297.05 1709.36 1297.96 1713.82 1299.54C1718.34 1301.01 1722.09 1303.32 1725.07 1306.43C1728.08 1309.56 1729.6 1313.58 1729.6 1318.46C1729.6 1325.79 1726.57 1331.52 1720.55 1335.68C1714.55 1339.84 1704.79 1341.91 1691.3 1341.91H1655.5V1340.03ZM1688.82 1294.96C1691.54 1294.96 1694.08 1294.21 1696.44 1292.69C1698.78 1291.15 1700.68 1289 1702.12 1286.24C1703.55 1283.48 1704.27 1280.43 1704.27 1277.08C1704.27 1273.44 1703.55 1270.22 1702.12 1267.42C1700.68 1264.64 1698.78 1262.46 1696.44 1260.91C1694.08 1259.34 1691.54 1258.54 1688.82 1258.54H1683.3V1294.96H1688.82ZM1691.3 1338.82C1696.41 1338.82 1700.57 1337.03 1703.77 1333.41C1707 1329.77 1708.63 1324.79 1708.63 1318.46C1708.63 1312.1 1707 1307.12 1703.77 1303.51C1700.57 1299.87 1696.41 1298.05 1691.3 1298.05H1683.3V1338.82H1691.3Z" fill="white"/>
<path d="M1739.49 1340.03L1746.88 1338.21V1259.15L1739.49 1257.27V1255.45H1805.59V1277.69H1801.89C1800.31 1276.45 1798.94 1274.87 1797.81 1273C1795.16 1268.56 1793.84 1263.73 1793.84 1258.54H1767.3V1297.44H1781.48C1782.06 1294.32 1783.13 1291.4 1784.68 1288.67C1785.34 1287.43 1786.13 1286.23 1787.05 1285.08H1790.75V1312.89H1787.05C1786.13 1311.72 1785.34 1310.52 1784.68 1309.3C1783.13 1306.58 1782.06 1303.66 1781.48 1300.53H1767.3V1338.82H1796.32C1796.32 1333.63 1797.65 1328.82 1800.29 1324.36C1801.42 1322.49 1802.78 1320.93 1804.32 1319.68H1808.07V1341.91H1739.49V1340.03Z" fill="white"/>
<path d="M1884.04 1343.79C1878.19 1343.79 1872.7 1342.46 1867.6 1339.81C1865.28 1338.68 1863.32 1337.32 1861.75 1335.73C1860.6 1337.65 1859.17 1339.34 1857.45 1340.81C1855.97 1341.88 1855.14 1342.43 1854.96 1342.52H1851.87V1319.07H1856.84C1858.08 1323.08 1859.82 1326.71 1862.03 1329.94C1867.06 1337.11 1873.57 1340.7 1881.56 1340.7C1886.22 1340.7 1889.96 1339.3 1892.76 1336.5C1895.59 1333.68 1897.01 1329.92 1897.01 1325.25C1897.01 1322.53 1896.19 1320.1 1894.58 1317.96C1892.95 1315.8 1890.95 1313.91 1888.56 1312.28C1886.16 1310.63 1882.84 1308.57 1878.58 1306.1C1873.13 1303.05 1868.72 1300.3 1865.34 1297.83C1861.98 1295.37 1859.11 1292.25 1856.73 1288.5C1854.33 1284.75 1853.14 1280.32 1853.14 1275.2C1853.14 1271.16 1854.26 1267.52 1856.51 1264.28C1858.78 1261.01 1862.19 1258.42 1866.72 1256.5C1871.24 1254.56 1876.78 1253.58 1883.38 1253.58C1888.15 1253.58 1892.94 1254.94 1897.72 1257.66C1899.52 1258.65 1901.34 1259.98 1903.19 1261.63C1904.58 1259.47 1906.01 1257.77 1907.49 1256.56C1908.95 1255.49 1909.78 1254.93 1909.97 1254.84H1913.06V1278.29H1908.1C1907.02 1274.32 1905.42 1270.74 1903.3 1267.54C1901.31 1264.42 1898.84 1261.82 1895.9 1259.76C1892.99 1257.7 1889.64 1256.67 1885.86 1256.67C1882.66 1256.67 1879.9 1257.96 1877.58 1260.53C1875.27 1263.07 1874.11 1266.31 1874.11 1270.24C1874.11 1273.3 1874.99 1276.03 1876.76 1278.46C1878.55 1280.89 1880.74 1283.03 1883.32 1284.86C1885.93 1286.67 1889.46 1288.83 1893.92 1291.37C1899.1 1294.35 1903.3 1297 1906.5 1299.32C1909.7 1301.61 1912.4 1304.45 1914.61 1307.87C1916.84 1311.29 1917.97 1315.23 1917.97 1319.68C1917.97 1324.13 1916.68 1328.2 1914.11 1331.87C1911.57 1335.51 1907.74 1338.42 1902.63 1340.59C1897.56 1342.71 1891.35 1343.79 1884.04 1343.79Z" fill="white"/>
<path d="M1927.24 1341.91V1340.03L1934.64 1338.21V1259.15L1927.24 1257.27V1255.45H1962.45V1257.27L1955.05 1259.15V1297.44H1981.59V1259.15L1974.2 1257.27V1255.45H2009.4V1257.27L2002.01 1259.15V1338.21L2009.4 1340.03V1341.91H1974.2V1340.03L1981.59 1338.21V1300.53H1955.05V1338.21L1962.45 1340.03V1341.91H1927.24Z" fill="white"/>
<path d="M2021.74 1341.91V1340.03L2029.13 1338.21V1259.15L2021.74 1257.27V1255.45H2056.94V1257.27L2049.55 1259.15V1338.21L2056.94 1340.03V1341.91H2021.74Z" fill="white"/>
<path d="M2080.39 1276.42V1336.34L2090.32 1340.03V1341.91H2066.81V1340.03L2076.69 1336.34V1259.76L2068.08 1257.27V1255.45H2081.05C2085.38 1255.45 2088.79 1256.25 2091.25 1257.82C2093.75 1259.37 2096.11 1261.45 2098.32 1264.06L2137.88 1310.41V1260.97L2127.95 1257.27V1255.45H2151.45V1257.27L2141.57 1260.97V1343.79H2137.88L2080.39 1276.42Z" fill="white"/>
<path d="M2160.7 1340.03L2168.1 1338.21V1259.15L2160.7 1257.27V1255.45H2226.8V1277.69H2223.1C2221.52 1276.45 2220.15 1274.87 2219.02 1273C2216.37 1268.56 2215.05 1263.73 2215.05 1258.54H2188.51V1297.44H2202.69C2203.27 1294.32 2204.34 1291.4 2205.89 1288.67C2206.55 1287.43 2207.34 1286.23 2208.26 1285.08H2211.96V1312.89H2208.26C2207.34 1311.72 2206.55 1310.52 2205.89 1309.3C2204.34 1306.58 2203.27 1303.66 2202.69 1300.53H2188.51V1338.82H2217.53C2217.53 1333.63 2218.86 1328.82 2221.5 1324.36C2222.64 1322.49 2223.99 1320.93 2225.53 1319.68H2229.28V1341.91H2160.7V1340.03Z" fill="white"/>
<path d="M2270.66 1343.79C2264.82 1343.79 2259.33 1342.46 2254.22 1339.81C2251.9 1338.68 2249.95 1337.32 2248.37 1335.73C2247.23 1337.65 2245.79 1339.34 2244.07 1340.81C2242.59 1341.88 2241.77 1342.43 2241.59 1342.52H2238.5V1319.07H2243.46C2244.7 1323.08 2246.44 1326.71 2248.65 1329.94C2253.68 1337.11 2260.19 1340.7 2268.18 1340.7C2272.84 1340.7 2276.58 1339.3 2279.38 1336.5C2282.21 1333.68 2283.63 1329.92 2283.63 1325.25C2283.63 1322.53 2282.82 1320.1 2281.2 1317.96C2279.57 1315.8 2277.57 1313.91 2275.19 1312.28C2272.79 1310.63 2269.46 1308.57 2265.2 1306.1C2259.75 1303.05 2255.34 1300.3 2251.96 1297.83C2248.61 1295.37 2245.74 1292.25 2243.35 1288.5C2240.95 1284.75 2239.77 1280.32 2239.77 1275.2C2239.77 1271.16 2240.88 1267.52 2243.13 1264.28C2245.41 1261.01 2248.81 1258.42 2253.34 1256.5C2257.86 1254.56 2263.41 1253.58 2270 1253.58C2274.77 1253.58 2279.56 1254.94 2284.35 1257.66C2286.14 1258.65 2287.96 1259.98 2289.81 1261.63C2291.2 1259.47 2292.64 1257.77 2294.11 1256.56C2295.58 1255.49 2296.4 1254.93 2296.6 1254.84H2299.69V1278.29H2294.72C2293.64 1274.32 2292.04 1270.74 2289.92 1267.54C2287.93 1264.42 2285.46 1261.82 2282.53 1259.76C2279.62 1257.7 2276.26 1256.67 2272.48 1256.67C2269.28 1256.67 2266.53 1257.96 2264.21 1260.53C2261.89 1263.07 2260.73 1266.31 2260.73 1270.24C2260.73 1273.3 2261.62 1276.03 2263.38 1278.46C2265.17 1280.89 2267.37 1283.03 2269.95 1284.86C2272.55 1286.67 2276.08 1288.83 2280.54 1291.37C2285.73 1294.35 2289.92 1297 2293.12 1299.32C2296.32 1301.61 2299.02 1304.45 2301.23 1307.87C2303.47 1311.29 2304.6 1315.23 2304.6 1319.68C2304.6 1324.13 2303.3 1328.2 2300.73 1331.87C2298.2 1335.51 2294.36 1338.42 2289.26 1340.59C2284.18 1342.71 2277.97 1343.79 2270.66 1343.79Z" fill="white"/>
<path d="M2355.97 1301.8H2459.61" stroke="white" stroke-width="6" stroke-linecap="round"/>
<path d="M60.2506 1317.69H163.882" stroke="white" stroke-width="6" stroke-linecap="round"/>
<path d="M679.172 908.284H664.592C656.743 907.994 652.812 904.574 652.812 897.994C652.812 893.842 654.384 890.339 657.529 887.483C660.812 884.614 664.743 883.193 669.309 883.193H714.538C720.69 883.193 725.546 883.552 729.118 884.256C732.829 884.973 736.553 886.338 740.264 888.338C745.698 891.194 749.905 895.208 752.912 900.353C756.057 905.498 757.63 911.36 757.63 917.94C757.63 923.512 756.554 929.016 754.416 934.451C752.264 939.747 749.188 944.534 745.188 948.824C742.484 951.679 739.767 953.969 737.05 955.679C734.47 957.403 730.981 959.045 726.539 960.617C733.256 963.914 738.126 968.052 741.119 973.059C744.264 978.066 745.836 984.356 745.836 991.929C745.836 997.515 744.981 1003.02 743.257 1008.45C741.698 1013.74 739.408 1018.81 736.401 1023.68C733.546 1028.4 730.043 1032.69 725.904 1036.55C721.753 1040.55 717.187 1043.83 712.18 1046.41C706.897 1049.13 700.11 1051.2 691.82 1052.63C683.53 1054.06 674.385 1054.77 664.385 1054.77H648.95L647.667 1057.78C645.515 1062.63 643.667 1066.65 642.094 1069.79C640.522 1073.08 639.018 1075.86 637.584 1078.15C636.163 1080.58 634.728 1082.66 633.308 1084.37C632.011 1086.24 630.521 1088.1 628.797 1089.95C622.949 1096.25 616.231 1101.04 608.658 1104.32C601.224 1107.75 593.43 1109.46 585.292 1109.46C579.14 1109.46 573.498 1108.47 568.353 1106.47C563.208 1104.61 558.781 1101.96 555.07 1098.53C551.346 1095.11 548.491 1090.95 546.49 1086.1C544.352 1081.37 543.277 1076.22 543.277 1070.65C543.277 1066.65 543.842 1062.79 544.987 1059.06C545.994 1055.35 547.497 1051.92 549.497 1048.77C551.498 1045.63 553.925 1042.84 556.781 1040.41C559.498 1037.97 562.56 1036.04 565.995 1034.62C573.429 1031.32 582.506 1029.68 593.223 1029.68H629.873L679.172 908.284ZM692.469 947.541H698.676C704.4 947.389 708.828 946.892 711.973 946.037C715.118 945.03 718.111 943.251 720.966 940.672C723.684 938.244 725.904 935.168 727.615 931.444C729.325 927.733 730.194 924.161 730.194 920.726C730.194 914.436 727.118 910.505 720.966 908.932C719.821 908.643 718.608 908.505 717.325 908.505C716.042 908.353 713.973 908.284 711.118 908.284H708.538L692.469 947.541ZM659.019 1029.68H667.599C681.034 1029.68 691.462 1027.68 698.896 1023.68C704.759 1020.54 709.462 1015.96 713.035 1009.94C716.608 1003.94 718.401 997.653 718.401 991.074C718.401 987.211 717.477 983.859 715.614 980.99C713.904 977.997 711.462 975.914 708.331 974.769C706.317 973.914 704.042 973.349 701.462 973.059C699.034 972.769 695.531 972.631 690.965 972.631H682.385L659.019 1029.68ZM619.583 1054.77H592.368C589.651 1054.77 587.651 1054.86 586.354 1054.99C585.071 1055.28 583.651 1055.64 582.078 1056.07C575.361 1058.35 571.995 1062.79 571.995 1069.37C571.995 1073.37 573.429 1076.73 576.285 1079.45C579.292 1082.15 582.933 1083.52 587.223 1083.52C593.651 1083.52 599.72 1080.94 605.431 1075.79C611.155 1070.79 615.873 1063.78 619.583 1054.77ZM783.989 969.197L780.555 977.776C778.844 982.066 776.982 985.142 774.982 987.004C772.982 988.715 770.554 989.57 767.699 989.57C764.844 989.57 762.333 988.646 760.195 986.784C758.057 984.922 756.982 982.646 756.982 979.928C756.982 978.783 757.119 977.707 757.409 976.701C757.699 975.707 758.333 973.983 759.34 971.556L771.12 942.382C772.692 938.534 774.348 935.816 776.058 934.244C777.92 932.657 780.265 931.871 783.134 931.871C788.417 931.871 791.631 934.313 792.776 939.168L793.631 942.382C794.059 944.106 794.638 945.182 795.342 945.61C796.211 946.037 798.28 946.244 801.563 946.244H828.791C836.212 946.244 839.937 949.472 839.937 955.9C839.937 958.189 839.15 960.548 837.578 962.976C836.143 965.266 834.433 966.838 832.433 967.693C831.426 968.273 830.281 968.631 828.998 968.769C827.715 968.907 825.577 969.059 822.57 969.197L821.288 970.052C819.715 971.624 818.349 972.99 817.205 974.135C816.211 975.128 815.287 976.135 814.418 977.128C813.563 977.997 812.777 978.921 812.073 979.928C811.494 980.783 810.777 981.777 809.922 982.921C807.921 985.791 806.57 988.067 805.852 989.791C805.135 991.363 804.777 992.936 804.777 994.508C804.777 1000.37 807.99 1003.29 814.418 1003.29H830.074C837.219 1003.58 840.792 1006.73 840.792 1012.74C840.792 1016.45 839.288 1019.67 836.295 1022.39C833.426 1024.96 829.936 1026.25 825.784 1026.25H802.639C801.921 1026.25 800.845 1026.11 799.425 1025.82C797.99 1025.53 796.418 1025.17 794.707 1024.74C789.99 1023.46 786.128 1020.61 783.134 1016.16C780.265 1011.6 778.844 1006.3 778.844 1000.3C778.844 995.432 780.058 990.715 782.486 986.135C784.914 981.418 789.066 975.776 794.914 969.197H783.989ZM874.903 1003.29H889.263C896.408 1003.58 899.98 1006.73 899.98 1012.74C899.98 1016.45 898.477 1019.67 895.484 1022.39C892.477 1024.96 888.904 1026.25 884.766 1026.25H865.689C859.248 1026.25 854.323 1025.03 850.889 1022.61C847.468 1020.18 845.744 1016.67 845.744 1012.1C845.744 1010.66 845.895 1009.45 846.171 1008.45C846.461 1007.31 847.04 1005.58 847.895 1003.29L865.248 960.838L866.324 958.052C869.607 950.175 874.834 946.244 881.98 946.244C884.973 946.244 887.469 947.251 889.47 949.251C891.621 951.113 892.697 953.472 892.697 956.327C892.697 958.479 892.118 960.838 890.973 963.403L889.911 966.41L874.903 1003.29ZM888.835 941.747C884.835 941.747 881.4 940.313 878.545 937.458C875.69 934.589 874.255 931.168 874.255 927.154C874.255 923.154 875.621 919.719 878.324 916.864C881.193 914.008 884.614 912.574 888.614 912.574C892.766 912.574 896.27 914.008 899.125 916.864C901.98 919.719 903.415 923.223 903.415 927.374C903.415 931.375 901.98 934.809 899.125 937.665C896.408 940.382 892.973 941.747 888.835 941.747ZM965.886 1029.03H980.88C988.025 1029.32 991.598 1032.47 991.598 1038.48C991.598 1042.19 990.108 1045.34 987.101 1047.92C984.108 1050.63 980.535 1051.99 976.383 1051.99H956.451L952.162 1062.72C946.727 1076.15 940.23 1086.02 932.657 1092.31C925.085 1098.75 915.94 1101.96 905.222 1101.96C899.787 1101.96 894.794 1101.04 890.214 1099.17C885.649 1097.46 881.717 1095.02 878.421 1091.88C875.138 1088.88 872.572 1085.23 870.71 1080.94C868.71 1076.8 867.717 1072.22 867.717 1067.21C867.717 1060.07 869.717 1053.49 873.717 1047.49C877.717 1041.63 883.138 1037.05 890.007 1033.75C893.718 1032.04 897.58 1030.83 901.58 1030.11C905.718 1029.39 910.863 1029.03 917.015 1029.03H939.513L942.727 1020.9C940.161 1022.47 938.023 1023.53 936.299 1024.11C934.589 1024.67 932.519 1024.96 930.092 1024.96C926.368 1024.96 923.016 1024.32 920.009 1023.03C917.015 1021.6 914.367 1019.67 912.077 1017.24C909.939 1014.81 908.229 1011.96 906.932 1008.66C905.787 1005.23 905.222 1001.52 905.222 997.515C905.222 990.646 906.505 984.066 909.084 977.776C911.65 971.487 915.015 965.914 919.153 961.045C923.443 956.038 928.299 952.106 933.733 949.251C939.306 946.244 945.017 944.741 950.879 944.741C959.596 944.741 966.093 947.541 970.383 953.113C973.238 947.541 977.749 944.741 983.887 944.741C986.894 944.741 989.46 945.679 991.598 947.541C993.749 949.389 994.825 951.679 994.825 954.396C994.825 955.831 994.605 957.183 994.177 958.479C993.887 959.624 993.17 961.624 992.039 964.479L965.886 1029.03ZM952.162 997.722L960.521 977.128C960.948 975.983 961.238 975.128 961.376 974.563C961.665 973.983 961.803 973.349 961.803 972.631C961.803 970.631 960.879 968.907 959.017 967.486C957.169 966.052 954.948 965.335 952.382 965.335C949.803 965.335 947.168 966.121 944.451 967.693C941.872 969.266 939.596 971.349 937.582 973.914C935.582 976.494 933.94 979.418 932.657 982.715C931.375 985.86 930.726 989.073 930.726 992.356C930.726 999.653 934.161 1003.29 941.016 1003.29C943.444 1003.29 945.734 1002.8 947.872 1001.8C950.024 1000.66 951.444 999.295 952.162 997.722ZM930.092 1051.99H912.077C905.787 1051.99 900.932 1053.27 897.511 1055.85C893.939 1058.57 892.145 1062.29 892.145 1067.01C892.145 1070.43 893.359 1073.23 895.787 1075.37C898.215 1077.66 901.222 1078.8 904.794 1078.8C910.932 1078.8 916.436 1075.44 921.291 1068.72C922.726 1066.86 924.009 1064.72 925.154 1062.29C926.436 1060 928.092 1056.57 930.092 1051.99ZM1048.57 950.755C1050.84 949.472 1052.77 948.465 1054.34 947.748C1056.07 946.892 1057.56 946.244 1058.86 945.817C1060.14 945.389 1061.35 945.099 1062.5 944.961C1063.78 944.823 1065.21 944.741 1066.79 944.741C1073.35 944.741 1078.79 946.603 1083.08 950.327C1087.35 954.038 1089.5 958.686 1089.5 964.259C1089.5 965.983 1089.28 967.983 1088.86 970.273C1088.43 972.411 1087.86 974.342 1087.15 976.066L1076 1003.29H1090.57C1097.71 1003.58 1101.28 1006.73 1101.28 1012.74C1101.28 1016.45 1099.8 1019.67 1096.79 1022.39C1093.79 1024.96 1090.22 1026.25 1086.07 1026.25H1062.5C1057.92 1026.25 1054.14 1024.96 1051.13 1022.39C1048.28 1019.82 1046.84 1016.52 1046.84 1012.52C1046.84 1010.38 1047.2 1008.23 1047.92 1006.09L1049.2 1003.29L1058.63 979.708C1059.35 978.135 1059.85 976.852 1060.14 975.845C1060.41 974.852 1060.57 973.914 1060.57 973.059C1060.57 971.197 1059.78 969.776 1058.21 968.769C1056.77 967.624 1054.92 967.059 1052.63 967.059C1045.63 967.059 1039.56 973.059 1034.41 985.073L1022.84 1014.03L1021.76 1016.81C1018.48 1024.39 1013.41 1028.18 1006.55 1028.18C1003.54 1028.18 1001.05 1027.32 999.046 1025.61C997.046 1023.75 996.039 1021.39 996.039 1018.52C996.039 1016.52 996.55 1014.16 997.543 1011.45L998.826 1008.66L1044.28 896.27C1046.41 891.125 1048.7 887.483 1051.13 885.331C1053.71 883.042 1056.84 881.897 1060.57 881.897C1063.56 881.897 1066.07 882.835 1068.07 884.697C1070.07 886.545 1071.06 888.904 1071.06 891.773C1071.06 893.773 1070.57 896.132 1069.57 898.849L1068.5 901.636L1048.57 950.755ZM1157.62 946.244H1163.4C1170.54 946.244 1174.12 949.32 1174.12 955.472C1174.12 959.183 1172.61 962.41 1169.62 965.128C1166.61 967.845 1163.04 969.197 1158.9 969.197H1148.83L1134.89 1003.29H1149.04C1156.18 1003.58 1159.76 1006.73 1159.76 1012.74C1159.76 1016.45 1158.25 1019.67 1155.26 1022.39C1152.25 1024.96 1148.68 1026.25 1144.54 1026.25H1123.31C1118.03 1026.25 1113.81 1025.03 1110.66 1022.61C1107.67 1020.03 1106.17 1016.67 1106.17 1012.52C1106.17 1009.81 1106.82 1006.95 1108.1 1003.94L1110.03 999.446L1122.25 969.197C1113.38 969.197 1108.95 966.052 1108.95 959.762C1108.95 956.038 1110.46 952.893 1113.45 950.327C1116.46 947.61 1120.03 946.244 1124.17 946.244H1131.47L1137.04 932.52L1138.32 929.733C1141.6 921.871 1146.68 917.94 1153.54 917.94C1156.54 917.94 1159.04 918.864 1161.04 920.726C1163.04 922.588 1164.05 924.947 1164.05 927.802C1164.05 929.085 1163.83 930.657 1163.4 932.52C1162.97 934.244 1162.34 936.023 1161.47 937.885L1157.62 946.244ZM1265.06 954.824C1260.2 963.403 1256.63 971.487 1254.34 979.059C1252.19 986.646 1251.13 994.218 1251.13 1001.8C1251.13 1011.81 1253.4 1018.96 1257.98 1023.25C1262.7 1027.54 1270.41 1029.68 1281.13 1029.68H1342.01C1349.86 1029.97 1353.79 1033.41 1353.79 1039.97C1353.79 1044.12 1352.15 1047.63 1348.87 1050.48C1345.72 1053.35 1341.86 1054.77 1337.29 1054.77H1273.62L1269.98 1054.99C1263.13 1054.99 1256.77 1053.71 1250.9 1051.13C1245.04 1048.7 1239.98 1045.27 1235.69 1040.84C1231.54 1036.55 1228.26 1031.39 1225.83 1025.39C1223.54 1019.24 1222.39 1012.52 1222.39 1005.23C1222.39 997.515 1223.33 989.791 1225.18 982.066C1227.18 974.204 1230.48 965.128 1235.04 954.824H1226.48C1218.61 954.548 1214.68 951.113 1214.68 944.534C1214.68 940.382 1216.25 936.878 1219.4 934.023C1222.68 931.168 1226.61 929.733 1231.18 929.733H1249.19C1255.76 918.864 1264.27 908.781 1274.7 899.498C1288.13 887.194 1302.71 881.042 1318.42 881.042C1323.57 881.042 1328.36 881.897 1332.78 883.621C1337.21 885.331 1341 887.69 1344.15 890.697C1347.29 893.704 1349.72 897.277 1351.43 901.415C1353.29 905.567 1354.22 910.077 1354.22 914.933C1354.22 922.229 1352.15 928.947 1348.01 935.099C1344.01 941.099 1338.36 945.748 1331.07 949.031C1328.22 950.327 1324.71 951.389 1320.58 952.258C1316.42 953.113 1311.35 953.762 1305.35 954.189C1303.35 954.465 1301.06 954.686 1298.49 954.824C1296.06 954.824 1294.06 954.824 1292.49 954.824H1265.06ZM1280.7 929.733H1301.06C1304.35 929.733 1307.57 929.595 1310.71 929.306C1313.86 928.878 1316.22 928.299 1317.79 927.581C1320.65 926.45 1322.85 924.795 1324.42 922.657C1326.15 920.505 1327 918.147 1327 915.581C1327 912.712 1325.86 910.353 1323.57 908.505C1321.28 906.643 1318.42 905.705 1315 905.705C1308.71 905.705 1302 908.643 1294.85 914.505C1291.57 917.222 1288.85 919.719 1286.7 922.009C1284.7 924.298 1282.7 926.878 1280.7 929.733ZM1366.81 1003.29H1380.32C1387.46 1003.58 1391.03 1006.73 1391.03 1012.74C1391.03 1016.45 1389.53 1019.67 1386.54 1022.39C1383.53 1024.96 1379.96 1026.25 1375.82 1026.25H1354.59C1349.6 1026.25 1345.53 1025.1 1342.38 1022.81C1339.24 1020.39 1337.67 1017.24 1337.67 1013.38C1337.67 1011.96 1337.96 1010.23 1338.52 1008.23C1339.09 1006.23 1339.87 1004.08 1340.88 1001.8L1383.1 897.773L1384.18 894.987C1387.46 887.125 1392.61 883.193 1399.61 883.193C1402.47 883.193 1404.9 884.187 1406.9 886.187C1409.05 888.049 1410.11 890.339 1410.11 893.056C1410.11 895.208 1409.61 897.635 1408.62 900.353L1407.32 903.139L1366.81 1003.29ZM1421.56 995.584C1421.56 1000.73 1425.49 1003.29 1433.35 1003.29H1467.01C1474.15 1003.58 1477.73 1006.73 1477.73 1012.74C1477.73 1016.45 1476.22 1019.67 1473.22 1022.39C1470.22 1024.96 1466.65 1026.25 1462.5 1026.25H1430.35C1425.06 1026.25 1420.84 1025.89 1417.71 1025.17C1414.57 1024.32 1411.56 1022.9 1408.7 1020.9C1400.55 1014.74 1396.48 1005.74 1396.48 993.86C1396.48 987.142 1397.7 980.852 1400.12 974.99C1402.7 968.99 1406.06 963.762 1410.21 959.334C1414.48 954.755 1419.42 951.182 1424.99 948.603C1430.7 946.037 1436.7 944.741 1442.99 944.741C1452 944.741 1459.22 947.182 1464.65 952.038C1470.22 956.755 1473.01 963.045 1473.01 970.907C1473.01 975.914 1471.73 980.425 1469.15 984.425C1466.72 988.287 1463.37 991.143 1459.08 993.005C1457.93 993.584 1456.79 994.012 1455.64 994.287C1454.65 994.577 1453.51 994.867 1452.21 995.156C1451.08 995.294 1449.71 995.432 1448.14 995.584C1446.57 995.584 1444.72 995.584 1442.57 995.584H1421.56ZM1426.5 976.494H1438.07C1441.93 976.494 1444.72 976.135 1446.43 975.418C1448.14 974.563 1449 973.349 1449 971.776C1449 970.204 1448.29 968.838 1446.86 967.693C1445.57 966.548 1443.93 965.983 1441.93 965.983C1435.35 965.983 1430.21 969.486 1426.5 976.494ZM1553.48 1003.29H1567.62C1574.77 1003.58 1578.34 1006.73 1578.34 1012.74C1578.34 1016.45 1576.85 1019.67 1573.84 1022.39C1570.83 1024.96 1567.26 1026.25 1563.12 1026.25H1547.04C1541.04 1026.25 1537.04 1023.89 1535.05 1019.17L1533.11 1020.9C1530.82 1022.9 1528.68 1024.32 1526.68 1025.17C1524.82 1025.89 1522.54 1026.25 1519.83 1026.25H1507.18C1499.74 1026.25 1493.67 1023.53 1488.97 1018.1C1484.39 1012.52 1482.1 1005.23 1482.1 996.219C1482.1 989.639 1483.38 983.28 1485.96 977.128C1488.53 970.838 1491.88 965.335 1496.03 960.617C1500.32 955.762 1505.18 951.9 1510.61 949.031C1516.05 946.175 1521.69 944.741 1527.55 944.741C1536.25 944.741 1542.76 947.817 1547.04 953.969C1548.9 951.113 1550.82 949.113 1552.83 947.968C1554.99 946.824 1557.55 946.244 1560.54 946.244C1563.55 946.244 1566.13 947.182 1568.27 949.031C1570.42 950.893 1571.48 953.182 1571.48 955.9C1571.48 957.472 1571.26 958.907 1570.83 960.19C1570.54 961.334 1569.84 963.335 1568.68 966.19L1553.48 1003.29ZM1529.04 998.15L1536.97 978.852L1537.61 977.128C1538.18 975.983 1538.47 974.7 1538.47 973.28C1538.47 971.266 1537.55 969.555 1535.69 968.121C1533.83 966.548 1531.61 965.762 1529.04 965.762C1526.47 965.762 1523.83 966.617 1521.12 968.342C1518.54 969.914 1516.17 972.052 1514.03 974.769C1511.88 977.487 1510.1 980.494 1508.67 983.777C1507.4 987.073 1506.75 990.287 1506.75 993.432C1506.75 996.729 1507.54 999.295 1509.11 1001.16C1510.68 1003.02 1512.82 1003.94 1515.54 1003.94H1519.62C1521.18 1003.94 1522.96 1003.29 1524.97 1002.01C1527.11 1000.73 1528.47 999.446 1529.04 998.15ZM1661.68 1003.29H1676.91C1684.05 1003.58 1687.63 1006.73 1687.63 1012.74C1687.63 1016.45 1686.12 1019.67 1683.11 1022.39C1680.12 1024.96 1676.55 1026.25 1672.4 1026.25H1648.18C1643.89 1026.25 1640.24 1024.96 1637.25 1022.39C1634.4 1019.82 1632.96 1016.67 1632.96 1012.95C1632.96 1011.38 1633.17 1009.87 1633.61 1008.45C1634.04 1007.02 1634.81 1004.8 1635.95 1001.8L1645.17 979.059C1646.19 976.632 1646.67 974.7 1646.67 973.28C1646.67 971.556 1645.95 970.121 1644.53 968.99C1643.1 967.845 1641.32 967.266 1639.17 967.266C1634.88 967.266 1630.96 969.555 1627.39 974.135C1624.96 977.28 1623.1 980.425 1621.82 983.57L1609.59 1013.81L1608.31 1016.61C1605.03 1024.47 1599.87 1028.4 1592.88 1028.4C1589.87 1028.4 1587.29 1027.46 1585.15 1025.61C1583.15 1023.75 1582.16 1021.39 1582.16 1018.52C1582.16 1016.25 1582.72 1013.81 1583.87 1011.24L1584.95 1008.45L1606.17 956.327C1608.73 949.472 1613.37 946.037 1620.11 946.037C1625.39 946.037 1629.17 948.465 1631.46 953.32C1635.75 950.037 1639.39 947.817 1642.38 946.672C1645.53 945.389 1648.96 944.741 1652.67 944.741C1659.4 944.741 1664.82 946.603 1668.98 950.327C1673.25 954.038 1675.4 958.838 1675.4 964.7C1675.4 966.273 1675.18 967.983 1674.76 969.845C1674.47 971.556 1673.97 973.349 1673.25 975.197L1661.68 1003.29ZM1716.92 995.584C1716.92 1000.73 1720.85 1003.29 1728.7 1003.29H1762.36C1769.5 1003.58 1773.08 1006.73 1773.08 1012.74C1773.08 1016.45 1771.57 1019.67 1768.58 1022.39C1765.57 1024.96 1762 1026.25 1757.86 1026.25H1725.71C1720.43 1026.25 1716.21 1025.89 1713.06 1025.17C1709.92 1024.32 1706.91 1022.9 1704.05 1020.9C1695.92 1014.74 1691.85 1005.74 1691.85 993.86C1691.85 987.142 1693.06 980.852 1695.49 974.99C1698.05 968.99 1701.42 963.762 1705.56 959.334C1709.85 954.755 1714.77 951.182 1720.36 948.603C1726.07 946.037 1732.07 944.741 1738.36 944.741C1747.35 944.741 1754.58 947.182 1760.01 952.038C1765.57 956.755 1768.36 963.045 1768.36 970.907C1768.36 975.914 1767.08 980.425 1764.51 984.425C1762.08 988.287 1758.72 991.143 1754.43 993.005C1753.3 993.584 1752.15 994.012 1751.01 994.287C1750.01 994.577 1748.86 994.867 1747.59 995.156C1746.44 995.294 1745.08 995.432 1743.5 995.584C1741.93 995.584 1740.08 995.584 1737.93 995.584H1716.92ZM1721.86 976.494H1733.42C1737.28 976.494 1740.08 976.135 1741.79 975.418C1743.5 974.563 1744.37 973.349 1744.37 971.776C1744.37 970.204 1743.65 968.838 1742.22 967.693C1740.92 966.548 1739.3 965.983 1737.28 965.983C1730.72 965.983 1725.57 969.486 1721.86 976.494ZM1803.82 969.197L1800.39 977.776C1798.68 982.066 1796.82 985.142 1794.82 987.004C1792.82 988.715 1790.39 989.57 1787.53 989.57C1784.68 989.57 1782.18 988.646 1780.03 986.784C1777.89 984.922 1776.81 982.646 1776.81 979.928C1776.81 978.783 1776.95 977.707 1777.24 976.701C1777.53 975.707 1778.17 973.983 1779.17 971.556L1790.95 942.382C1792.54 938.534 1794.17 935.816 1795.89 934.244C1797.74 932.657 1800.11 931.871 1802.97 931.871C1808.25 931.871 1811.46 934.313 1812.61 939.168L1813.46 942.382C1813.89 944.106 1814.46 945.182 1815.17 945.61C1816.04 946.037 1818.11 946.244 1821.4 946.244H1848.62C1856.05 946.244 1859.77 949.472 1859.77 955.9C1859.77 958.189 1858.98 960.548 1857.41 962.976C1855.98 965.266 1854.27 966.838 1852.27 967.693C1851.26 968.273 1850.13 968.631 1848.83 968.769C1847.55 968.907 1845.41 969.059 1842.4 969.197L1841.12 970.052C1839.55 971.624 1838.18 972.99 1837.04 974.135C1836.04 975.128 1835.12 976.135 1834.27 977.128C1833.4 977.997 1832.62 978.921 1831.91 979.928C1831.33 980.783 1830.61 981.777 1829.77 982.921C1827.75 985.791 1826.4 988.067 1825.69 989.791C1824.97 991.363 1824.61 992.936 1824.61 994.508C1824.61 1000.37 1827.82 1003.29 1834.27 1003.29H1849.91C1857.05 1003.58 1860.63 1006.73 1860.63 1012.74C1860.63 1016.45 1859.12 1019.67 1856.13 1022.39C1853.27 1024.96 1849.77 1026.25 1845.62 1026.25H1822.47C1821.75 1026.25 1820.68 1026.11 1819.26 1025.82C1817.82 1025.53 1816.25 1025.17 1814.54 1024.74C1809.82 1023.46 1805.96 1020.61 1802.97 1016.16C1800.11 1011.6 1798.68 1006.3 1798.68 1000.3C1798.68 995.432 1799.89 990.715 1802.32 986.135C1804.76 981.418 1808.9 975.776 1814.76 969.197H1803.82ZM1902.02 974.769L1899.87 979.487C1897.01 986.356 1892.72 989.791 1887.01 989.791C1884.16 989.791 1881.59 988.784 1879.3 986.784C1877.01 984.784 1875.88 982.563 1875.88 980.135C1875.88 977.57 1876.87 974.273 1878.87 970.273L1892.81 941.954C1896.09 935.375 1900.31 932.092 1905.45 932.092C1908.17 932.092 1910.53 932.947 1912.53 934.671C1914.52 936.244 1915.54 938.244 1915.54 940.672C1915.54 941.678 1915.32 943.099 1914.88 944.961C1914.75 945.679 1914.6 946.396 1914.46 947.099C1914.46 947.817 1914.46 948.534 1914.46 949.251C1914.46 953.541 1916.1 957.969 1919.39 962.548L1925.39 970.907C1931.39 979.487 1934.39 987.432 1934.39 994.715C1934.39 1000.01 1933.04 1005.09 1930.31 1009.94C1927.74 1014.67 1924.17 1018.45 1919.59 1021.32C1918.17 1022.18 1916.67 1022.9 1915.1 1023.46C1913.52 1023.89 1911.18 1024.47 1908.03 1025.17C1906.45 1025.61 1905.1 1025.89 1903.95 1026.04C1902.96 1026.18 1902.17 1026.25 1901.61 1026.25H1875.66C1868.52 1025.97 1864.94 1022.81 1864.94 1016.81C1864.94 1013.1 1866.45 1009.94 1869.45 1007.38C1872.45 1004.66 1876.02 1003.29 1880.17 1003.29H1894.74C1904.46 1003.29 1909.32 999.722 1909.32 992.577C1909.32 991.143 1909.11 989.86 1908.67 988.715C1908.39 987.432 1907.73 985.791 1906.74 983.777L1902.02 974.769Z" fill="white"/>
<path d="M141.412 965.183H482.295V1005.39H141.412V965.183Z" fill="white"/>
<mask id="mask0_348_212" style="mask-type:luminance" maskUnits="userSpaceOnUse" x="0" y="293" width="1272" height="736">
<path d="M0 293.791H1271.95V1028.28H0V293.791Z" fill="white"/>
</mask>
<g mask="url(#mask0_348_212)">
<path d="M0 1008.37L11.1729 983.06L72.1959 933.154L125.039 900.394L203.194 865.386L217.333 876.559L241.154 875.814L245.61 872.09L248.589 869.11L254.548 860.172V845.275L264.217 839.316L293.253 827.412L424.982 774.527L657.943 682.924L742.788 644.205L807.535 616.645L859.634 588.341L915.457 545.898L1012.96 454.294L1087.38 366.415L1120.87 320.247L1178.93 303.116L1213.16 296.412H1271.22V496.737L1251.13 510.144L1232.52 522.062L1193.07 532.49L980.204 618.135L864.848 668.771L678.04 752.181L456.239 859.427L271.666 951.031L130.253 1023.27L0 1026.25V1008.37Z" fill="white"/>
</g>
<mask id="mask1_348_212" style="mask-type:luminance" maskUnits="userSpaceOnUse" x="1158" y="0" width="238" height="298">
<path d="M1158.96 0H1395.54V297.322H1158.96V0Z" fill="white"/>
</mask>
<g mask="url(#mask1_348_212)">
<path d="M1289.09 262.148L1292.81 211.512L1306.2 198.104L1332.99 184.697L1357.56 169.8L1374.67 153.427L1388.07 134.06L1392.54 119.908V75.9616L1382.11 50.6503L1367.97 31.284L1351.6 18.6214L1337.46 9.68314L1318.85 2.97943L1293.54 0H1258.56L1230.28 7.44857L1208.7 20.1111L1189.34 37.2428L1168.51 64.8025L1161.07 75.9616V87.1345L1168.51 93.8382H1178.93L1184.14 91.6036L1187.12 86.3896L1196.05 71.5063L1208.7 51.3951L1228.79 35.0083L1248.15 25.3251L1279.4 21.6008L1308.44 23.8354L1332.99 34.2634L1353.83 50.6503L1364.99 71.5063L1367.97 102.032L1365.74 118.418L1353.83 136.295L1334.48 153.427L1306.2 169.8L1275.68 186.931L1265.26 201.084L1256.34 220.45V262.148L1251.13 296.412H1294.29L1289.09 262.148Z" fill="white"/>
</g>
<path d="M2377.21 965.183H2036.33V1005.39H2377.21V965.183Z" fill="white"/>
<mask id="mask2_348_212" style="mask-type:luminance" maskUnits="userSpaceOnUse" x="1247" y="293" width="1272" height="736">
<path d="M1247.24 293.791H2518.61V1028.28H1247.24V293.791Z" fill="white"/>
</mask>
<g mask="url(#mask2_348_212)">
<path d="M2518.61 1008.37L2507.45 983.06L2446.43 933.154L2393.58 900.394L2315.43 865.386L2301.29 876.559L2277.47 875.814L2273 872.09L2270.03 869.11L2264.08 860.172V845.275L2254.41 839.316L2225.37 827.412L2093.64 774.527L1860.68 682.924L1775.84 644.205L1711.09 616.645L1658.99 588.341L1603.17 545.898L1505.66 454.294L1431.24 366.415L1397.75 320.247L1339.69 303.116L1305.46 296.412H1247.4V496.737L1267.5 510.144L1286.11 522.062L1325.56 532.49L1538.41 618.135L1653.78 668.771L1840.58 752.181L2062.38 859.427L2246.96 951.031L2388.37 1023.27L2518.61 1026.25V1008.37Z" fill="white"/>
</g>
</svg>
