<svg width="152" height="67" viewBox="0 0 152 67" fill="none" xmlns="http://www.w3.org/2000/svg">
<g clip-path="url(#clip0_30_651)">
<path d="M41.2059 54.6695H40.4941H40.3258C39.8512 54.652 39.6139 54.4416 39.6139 54.0385C39.6139 53.7843 39.7088 53.5696 39.8987 53.3944C40.0971 53.2191 40.3344 53.1315 40.6105 53.1315H40.7788H43.3415C43.7126 53.1315 44.006 53.1534 44.2217 53.1972C44.446 53.241 44.6704 53.3243 44.8947 53.4469C45.2226 53.6222 45.4771 53.8676 45.6584 54.1831C45.8482 54.4986 45.9431 54.8579 45.9431 55.261C45.9431 55.6028 45.8784 55.9402 45.749 56.2732C45.6195 56.5975 45.434 56.8911 45.1924 57.154C45.0285 57.3293 44.8645 57.4695 44.7006 57.5746C44.5452 57.6798 44.3338 57.7806 44.0664 57.877C44.4719 58.0786 44.7653 58.3327 44.9465 58.6394C45.1363 58.9462 45.2312 59.3318 45.2312 59.7962C45.2312 60.138 45.1795 60.4754 45.0759 60.8084C44.981 61.1327 44.8429 61.4438 44.6617 61.7418C44.4892 62.031 44.2778 62.2939 44.0275 62.5305C43.7773 62.7759 43.5012 62.9775 43.1992 63.1352C42.8799 63.3017 42.47 63.4288 41.9696 63.5164C41.4691 63.6041 40.9169 63.6479 40.3129 63.6479H39.3809L39.3033 63.8319C39.1739 64.1299 39.0617 64.3753 38.9668 64.5681C38.8719 64.7696 38.7813 64.9405 38.695 65.0808C38.6087 65.2297 38.5224 65.3568 38.4361 65.462C38.3584 65.5759 38.2678 65.6898 38.1643 65.8038C37.8105 66.1894 37.405 66.4829 36.9476 66.6845C36.499 66.8948 36.0287 67 35.5368 67C35.1658 67 34.825 66.9387 34.5143 66.816C34.2037 66.702 33.9362 66.5399 33.7119 66.3296C33.4875 66.1192 33.3149 65.8651 33.1941 65.5671C33.0647 65.2779 33 64.9624 33 64.6207C33 64.3753 33.0345 64.1387 33.1035 63.9108C33.1639 63.6829 33.2545 63.4726 33.3754 63.2798C33.4962 63.087 33.6428 62.9161 33.8154 62.7671C33.9794 62.6182 34.1649 62.4998 34.372 62.4122C34.8207 62.2106 35.3686 62.1099 36.0157 62.1099H38.229L41.2059 54.6695ZM42.0084 57.0751H42.3837C42.7289 57.0663 42.9964 57.0357 43.1862 56.9831C43.3761 56.9217 43.5573 56.8122 43.7298 56.6545C43.8938 56.5055 44.0275 56.3171 44.1311 56.0892C44.2346 55.8613 44.2864 55.6422 44.2864 55.4319C44.2864 55.0463 44.1009 54.8053 43.7298 54.7089C43.6608 54.6914 43.5875 54.6826 43.5098 54.6826C43.4321 54.6739 43.307 54.6695 43.1344 54.6695H43.0438H42.9791L42.0084 57.0751ZM39.9893 62.1099H40.507C41.3181 62.1099 41.948 61.9872 42.3967 61.7418C42.7505 61.549 43.0352 61.2685 43.2509 60.9005C43.4667 60.5324 43.5745 60.1468 43.5745 59.7437C43.5745 59.507 43.5184 59.3011 43.4063 59.1258C43.3027 58.9418 43.156 58.8147 42.9662 58.7446C42.8454 58.692 42.7073 58.657 42.552 58.6394C42.4053 58.6219 42.1939 58.6131 41.9178 58.6131H41.4001L39.9893 62.1099ZM37.6077 63.6479H35.964C35.8 63.6479 35.6792 63.6523 35.6016 63.661C35.5239 63.6786 35.4376 63.7005 35.3427 63.7268C34.9372 63.867 34.7344 64.1386 34.7344 64.5418C34.7344 64.7872 34.8207 64.9931 34.9932 65.1596C35.1744 65.3261 35.3945 65.4094 35.6533 65.4094C36.0416 65.4094 36.4084 65.2516 36.7535 64.9361C37.0986 64.6294 37.3834 64.2 37.6077 63.6479ZM47.5349 58.4028L47.3278 58.9286C47.2243 59.1915 47.1121 59.38 46.9913 59.4939C46.8705 59.5991 46.7238 59.6516 46.5512 59.6516C46.3787 59.6516 46.2277 59.5947 46.0982 59.4808C45.9688 59.3668 45.9041 59.2266 45.9041 59.0601C45.9041 58.99 45.9127 58.9243 45.93 58.8629C45.9472 58.8016 45.9861 58.6964 46.0465 58.5474L46.7583 56.7596C46.8533 56.523 46.9525 56.3565 47.056 56.2601C47.1682 56.1637 47.3106 56.1155 47.4831 56.1155C47.8024 56.1155 47.9966 56.2645 48.0656 56.5624L48.1174 56.7596C48.1433 56.8648 48.1778 56.9305 48.2209 56.9568C48.2727 56.9831 48.3978 56.9962 48.5963 56.9962H50.0847H50.24C50.6887 56.9962 50.9131 57.1934 50.9131 57.5878C50.9131 57.728 50.8656 57.8726 50.7707 58.0216C50.6844 58.1618 50.5809 58.2582 50.4601 58.3108C50.3997 58.3458 50.3306 58.3678 50.253 58.3765C50.1753 58.3853 50.0459 58.3941 49.8647 58.4028L49.787 58.4554C49.6921 58.5518 49.6101 58.6351 49.5411 58.7052C49.4807 58.7665 49.4246 58.8279 49.3728 58.8892C49.3211 58.9418 49.2736 58.9987 49.2305 59.0601C49.196 59.1127 49.1528 59.174 49.101 59.2441C48.9802 59.4194 48.8983 59.5596 48.8551 59.6648C48.812 59.7612 48.7904 59.8576 48.7904 59.954C48.7904 60.3133 48.9845 60.493 49.3728 60.493H50.1624H50.3177C50.7491 60.5105 50.9648 60.7033 50.9648 61.0714C50.9648 61.2992 50.8742 61.4964 50.693 61.6629C50.5205 61.8207 50.3091 61.8995 50.0588 61.8995H49.9035H48.661C48.6178 61.8995 48.5531 61.8908 48.4668 61.8732C48.3805 61.8557 48.2856 61.8338 48.1821 61.8075C47.8973 61.7286 47.6644 61.5534 47.4831 61.2817C47.3106 61.0012 47.2243 60.677 47.2243 60.3089C47.2243 60.011 47.2976 59.7218 47.4443 59.4413C47.591 59.1521 47.8412 58.8059 48.195 58.4028H47.5349ZM53.0245 60.493H53.7364H53.8917C54.3231 60.5105 54.5388 60.7033 54.5388 61.0714C54.5388 61.2992 54.4482 61.4964 54.267 61.6629C54.0858 61.8207 53.8701 61.8995 53.6199 61.8995H53.4646H52.468C52.0797 61.8995 51.782 61.825 51.5749 61.6761C51.3678 61.5271 51.2642 61.3124 51.2642 61.0319C51.2642 60.9443 51.2729 60.8698 51.2901 60.8084C51.3074 60.7383 51.3419 60.6332 51.3937 60.493L52.4421 57.8901L52.5068 57.7192C52.7052 57.2372 53.0202 56.9962 53.4516 56.9962C53.6328 56.9962 53.7838 57.0576 53.9046 57.1803C54.0341 57.2942 54.0988 57.4388 54.0988 57.6141C54.0988 57.7455 54.0643 57.8901 53.9952 58.0479L53.9305 58.2319L53.0245 60.493ZM53.8658 56.7202C53.6242 56.7202 53.4171 56.6325 53.2445 56.4573C53.072 56.282 52.9857 56.0717 52.9857 55.8263C52.9857 55.5809 53.0676 55.3706 53.2316 55.1953C53.4042 55.02 53.6113 54.9324 53.8529 54.9324C54.1031 54.9324 54.3145 55.02 54.4871 55.1953C54.6597 55.3706 54.7459 55.5853 54.7459 55.8394C54.7459 56.0848 54.6597 56.2951 54.4871 56.4704C54.3231 56.6369 54.116 56.7202 53.8658 56.7202ZM58.5183 62.0704H59.269H59.4243C59.8558 62.0879 60.0715 62.2808 60.0715 62.6488C60.0715 62.8767 59.9809 63.0695 59.7997 63.2272C59.6185 63.3937 59.4028 63.477 59.1525 63.477H58.9972H57.9488L57.69 64.1343C57.3621 64.9581 56.9695 65.5628 56.5121 65.9484C56.0548 66.3427 55.5026 66.5399 54.8554 66.5399C54.5275 66.5399 54.2255 66.4829 53.9494 66.369C53.6733 66.2639 53.436 66.1149 53.2375 65.9221C53.0391 65.738 52.8838 65.5146 52.7716 65.2516C52.6508 64.9975 52.5904 64.7171 52.5904 64.4103C52.5904 63.9721 52.7112 63.569 52.9528 63.2009C53.1944 62.8416 53.5223 62.5612 53.9365 62.3596C54.1608 62.2545 54.3938 62.18 54.6354 62.1361C54.8856 62.0923 55.1963 62.0704 55.5673 62.0704H56.9263L57.1205 61.5709C56.9651 61.6673 56.8357 61.733 56.7322 61.7681C56.6286 61.8031 56.5035 61.8207 56.3568 61.8207C56.1325 61.8207 55.9297 61.7812 55.7485 61.7023C55.5673 61.6147 55.4077 61.4964 55.2696 61.3474C55.1402 61.1984 55.0366 61.0232 54.959 60.8216C54.8899 60.6113 54.8554 60.3834 54.8554 60.138C54.8554 59.7174 54.9331 59.3142 55.0884 58.9286C55.2437 58.543 55.4465 58.2013 55.6967 57.9033C55.9556 57.5966 56.249 57.3556 56.5768 57.1803C56.9134 56.9962 57.2585 56.9042 57.6123 56.9042C58.1386 56.9042 58.5313 57.0751 58.7901 57.4169C58.9627 57.0751 59.2345 56.9042 59.6055 56.9042C59.7867 56.9042 59.9421 56.9612 60.0715 57.0751C60.2009 57.189 60.2656 57.3293 60.2656 57.4958C60.2656 57.5834 60.2527 57.6667 60.2268 57.7455C60.2095 57.8156 60.1664 57.9383 60.0974 58.1136L58.5183 62.0704ZM57.69 60.1512L58.1947 58.8892C58.2206 58.8191 58.2379 58.7665 58.2465 58.7315C58.2638 58.6964 58.2724 58.657 58.2724 58.6131C58.2724 58.4905 58.2163 58.3853 58.1041 58.2977C57.992 58.21 57.8582 58.1662 57.7029 58.1662C57.5476 58.1662 57.3879 58.2144 57.224 58.3108C57.0687 58.4072 56.9306 58.5343 56.8098 58.692C56.689 58.8498 56.5898 59.0294 56.5121 59.231C56.4345 59.4238 56.3956 59.621 56.3956 59.8225C56.3956 60.2695 56.6027 60.493 57.0169 60.493C57.1636 60.493 57.3017 60.4623 57.4311 60.4009C57.5605 60.3308 57.6468 60.2476 57.69 60.1512ZM56.3568 63.477H55.2696C54.8899 63.477 54.5966 63.5559 54.3895 63.7136C54.1737 63.8801 54.0659 64.108 54.0659 64.3972C54.0659 64.6075 54.1392 64.7784 54.2859 64.9099C54.4326 65.0501 54.6138 65.1202 54.8295 65.1202C55.2006 65.1202 55.5328 64.9142 55.8261 64.5023C55.9124 64.3884 55.9901 64.257 56.0591 64.108C56.1368 63.9678 56.236 63.7574 56.3568 63.477ZM63.5107 57.2723C63.6487 57.1934 63.7652 57.1321 63.8601 57.0883C63.9637 57.0357 64.0543 56.9962 64.1319 56.97C64.2096 56.9437 64.2829 56.9261 64.352 56.9174C64.4296 56.9086 64.5159 56.9042 64.6108 56.9042C65.0078 56.9042 65.3356 57.0182 65.5945 57.246C65.8534 57.4739 65.9828 57.7587 65.9828 58.1005C65.9828 58.2056 65.9699 58.3283 65.944 58.4685C65.9181 58.6 65.8836 58.7183 65.8404 58.8235L65.1674 60.493H65.8922H66.0475C66.479 60.5105 66.6947 60.7033 66.6947 61.0714C66.6947 61.2992 66.6041 61.4964 66.4229 61.6629C66.2417 61.8207 66.0259 61.8995 65.7757 61.8995H65.6204H64.352C64.0758 61.8995 63.8472 61.8207 63.666 61.6629C63.4934 61.5052 63.4071 61.3036 63.4071 61.0582C63.4071 60.9268 63.4287 60.7953 63.4718 60.6638L63.5495 60.493L64.119 59.0469C64.1621 58.9505 64.1923 58.8717 64.2096 58.8103C64.2268 58.749 64.2355 58.692 64.2355 58.6394C64.2355 58.5255 64.188 58.4379 64.0931 58.3765C64.0068 58.3064 63.8946 58.2714 63.7566 58.2714C63.3338 58.2714 62.9671 58.6394 62.6564 59.3756L61.9575 61.1502L61.8928 61.3211C61.6943 61.7856 61.388 62.0178 60.9738 62.0178C60.7926 62.0178 60.6416 61.9653 60.5208 61.8601C60.4 61.7462 60.3396 61.6016 60.3396 61.4263C60.3396 61.3036 60.3698 61.159 60.4302 60.9925L60.5079 60.8216L63.2518 53.9333C63.3812 53.6178 63.5193 53.3944 63.666 53.2629C63.8213 53.1227 64.0111 53.0526 64.2355 53.0526C64.4167 53.0526 64.5677 53.1095 64.6885 53.2235C64.8093 53.3374 64.8697 53.482 64.8697 53.6573C64.8697 53.78 64.8395 53.9246 64.7791 54.0911L64.7144 54.262L63.5107 57.2723ZM70.0956 56.9962H70.2898H70.4451C70.8765 56.9962 71.0923 57.1847 71.0923 57.5615C71.0923 57.7894 71.0017 57.9865 70.8205 58.1531C70.6393 58.3196 70.4235 58.4028 70.1733 58.4028H70.018H69.565L68.7237 60.493H69.4226H69.5779C70.0094 60.5105 70.2251 60.7033 70.2251 61.0714C70.2251 61.2992 70.1345 61.4964 69.9533 61.6629C69.7721 61.8207 69.5564 61.8995 69.3061 61.8995H69.1508H68.0247C67.7055 61.8995 67.4509 61.825 67.2611 61.6761C67.0799 61.5183 66.9893 61.3124 66.9893 61.0582C66.9893 60.8917 67.0281 60.7164 67.1058 60.5324L67.2223 60.2563L67.96 58.4028C67.4251 58.4028 67.1576 58.21 67.1576 57.8244C67.1576 57.5966 67.2482 57.4038 67.4294 57.246C67.6106 57.0795 67.8263 56.9962 68.0765 56.9962H68.2318H68.5166L68.8531 56.1549L68.9308 55.984C69.1292 55.502 69.4355 55.261 69.8497 55.261C70.0309 55.261 70.1819 55.318 70.3027 55.4319C70.4235 55.5458 70.4839 55.6905 70.4839 55.8657C70.4839 55.9446 70.471 56.041 70.4451 56.1549C70.4192 56.2601 70.3804 56.3696 70.3286 56.4836L70.0956 56.9962ZM76.5832 57.5221C76.2898 58.0479 76.0741 58.543 75.936 59.0075C75.8066 59.472 75.7419 59.9365 75.7419 60.4009C75.7419 61.0144 75.88 61.4526 76.1561 61.7155C76.4408 61.9784 76.9068 62.1099 77.5539 62.1099H81.0615H81.2298C81.7044 62.1274 81.9416 62.3377 81.9416 62.7408C81.9416 62.995 81.8424 63.2097 81.6439 63.385C81.4541 63.5602 81.2211 63.6479 80.945 63.6479H80.7768H77.1009L76.8809 63.661C76.4667 63.661 76.0827 63.5822 75.729 63.4244C75.3752 63.2754 75.0689 63.0651 74.81 62.7934C74.5598 62.5305 74.3613 62.215 74.2146 61.8469C74.0765 61.4701 74.0075 61.0582 74.0075 60.6113C74.0075 60.138 74.0636 59.6648 74.1758 59.1915C74.2966 58.7095 74.495 58.153 74.7712 57.5221H74.4217H74.2534C73.7789 57.5045 73.5416 57.2942 73.5416 56.8911C73.5416 56.6369 73.6365 56.4222 73.8263 56.2469C74.0248 56.0717 74.2621 55.984 74.5382 55.984H74.7064H75.6254C76.0223 55.318 76.5357 54.7002 77.1656 54.1305C77.9767 53.3768 78.8569 53 79.806 53C80.1167 53 80.4057 53.0526 80.6732 53.1577C80.9407 53.2629 81.1694 53.4075 81.3592 53.5915C81.549 53.7756 81.6957 53.9947 81.7993 54.2488C81.9114 54.503 81.9675 54.779 81.9675 55.077C81.9675 55.5239 81.8424 55.9358 81.5922 56.3127C81.3506 56.6807 81.0097 56.9656 80.5697 57.1671C80.3971 57.246 80.1857 57.3117 79.9355 57.3643C79.6852 57.4169 79.3789 57.4563 79.0165 57.4826C78.8957 57.5002 78.7576 57.5133 78.6023 57.5221C78.4556 57.5221 78.3348 57.5221 78.2399 57.5221H76.5832ZM77.528 55.984H78.7576C78.9561 55.984 79.1502 55.9753 79.3401 55.9577C79.5299 55.9315 79.6723 55.8964 79.7672 55.8526C79.9398 55.7825 80.0735 55.6817 80.1684 55.5502C80.272 55.4188 80.3237 55.2742 80.3237 55.1164C80.3237 54.9412 80.2547 54.7966 80.1167 54.6826C79.9786 54.5687 79.806 54.5117 79.5989 54.5117C79.2193 54.5117 78.8137 54.6914 78.3823 55.0507C78.1838 55.2172 78.0199 55.3706 77.8904 55.5108C77.7696 55.651 77.6488 55.8088 77.528 55.984ZM82.7279 60.493H83.388H83.5434C83.9748 60.5105 84.1905 60.7033 84.1905 61.0714C84.1905 61.2992 84.0999 61.4964 83.9187 61.6629C83.7375 61.8207 83.5218 61.8995 83.2715 61.8995H83.1162H81.9902C81.6882 61.8995 81.4422 61.8294 81.2524 61.6892C81.0626 61.5402 80.9677 61.3474 80.9677 61.1108C80.9677 61.0232 80.9849 60.918 81.0194 60.7953C81.054 60.6726 81.1014 60.5412 81.1618 60.4009L83.7116 54.0254L83.7763 53.8545C83.9748 53.3725 84.2854 53.1315 84.7082 53.1315C84.8808 53.1315 85.0275 53.1928 85.1483 53.3155C85.2777 53.4294 85.3424 53.5696 85.3424 53.7361C85.3424 53.8676 85.3122 54.0166 85.2518 54.1831L85.1742 54.354L82.7279 60.493ZM86.0337 60.0197C86.0337 60.3352 86.271 60.493 86.7456 60.493H88.6223H88.7777C89.2091 60.5105 89.4248 60.7033 89.4248 61.0714C89.4248 61.2992 89.3342 61.4964 89.153 61.6629C88.9718 61.8207 88.7561 61.8995 88.5059 61.8995H88.3505H86.5644C86.2451 61.8995 85.9906 61.8776 85.8008 61.8338C85.6109 61.7812 85.4297 61.6936 85.2571 61.5709C84.7653 61.1941 84.5194 60.6419 84.5194 59.9146C84.5194 59.5027 84.5927 59.1171 84.7394 58.7577C84.8947 58.3897 85.0975 58.0698 85.3477 57.7981C85.6066 57.5177 85.9043 57.2986 86.2408 57.1408C86.586 56.9831 86.9484 56.9042 87.328 56.9042C87.8716 56.9042 88.3074 57.0532 88.6353 57.3512C88.9718 57.6404 89.1401 58.026 89.1401 58.508C89.1401 58.8147 89.0624 59.0908 88.9071 59.3361C88.7604 59.5728 88.5576 59.748 88.2988 59.862C88.2297 59.897 88.1607 59.9233 88.0917 59.9408C88.0313 59.9584 87.9622 59.9759 87.8846 59.9934C87.8156 60.0022 87.7336 60.011 87.6387 60.0197C87.5438 60.0197 87.4316 60.0197 87.3022 60.0197H86.0337ZM86.3314 58.8498H87.0303C87.2633 58.8498 87.4316 58.8279 87.5351 58.784C87.6387 58.7315 87.6904 58.657 87.6904 58.5606C87.6904 58.4642 87.6473 58.3809 87.561 58.3108C87.4834 58.2407 87.3841 58.2056 87.2633 58.2056C86.8664 58.2056 86.5558 58.4203 86.3314 58.8498ZM93.999 60.493H94.6983H94.8529C95.2844 60.5105 95.5001 60.7033 95.5001 61.0714C95.5001 61.2992 95.4102 61.4964 95.2286 61.6629C95.0471 61.8207 94.8313 61.8995 94.5815 61.8995H94.426H93.6107C93.2485 61.8995 93.0067 61.7549 92.8863 61.4657L92.7694 61.5709C92.631 61.6936 92.5016 61.7812 92.3811 61.8338C92.2688 61.8776 92.1313 61.8995 91.9668 61.8995H91.2037C90.7543 61.8995 90.3876 61.733 90.1035 61.4C89.8271 61.0582 89.6891 60.6113 89.6891 60.0592C89.6891 59.656 89.7667 59.266 89.922 58.8892C90.0774 58.5036 90.2797 58.1662 90.5305 57.877C90.7893 57.579 91.0823 57.3424 91.4104 57.1671C91.7385 56.9919 92.0791 56.9042 92.4333 56.9042C92.9591 56.9042 93.3519 57.0926 93.6107 57.4695C93.7231 57.2942 93.839 57.1715 93.9604 57.1014C94.0898 57.0313 94.2453 56.9962 94.426 56.9962C94.6075 56.9962 94.763 57.0532 94.8925 57.1671C95.0219 57.2811 95.0866 57.4213 95.0866 57.5878C95.0866 57.6842 95.0731 57.7718 95.0471 57.8507C95.03 57.9208 94.9868 58.0435 94.9176 58.2188L93.999 60.493ZM92.5232 60.1775L93.0022 58.9944L93.0409 58.8892C93.0759 58.8191 93.093 58.7402 93.093 58.6526C93.093 58.5299 93.0373 58.4247 92.9249 58.3371C92.8126 58.2407 92.6787 58.1925 92.5232 58.1925C92.3686 58.1925 92.2086 58.2451 92.045 58.3502C91.8895 58.4466 91.7466 58.5781 91.6171 58.7446C91.4877 58.9111 91.3799 59.0951 91.2936 59.2967C91.2163 59.4983 91.1776 59.6955 91.1776 59.8883C91.1776 60.0898 91.2253 60.2476 91.3196 60.3615C91.4149 60.4754 91.5443 60.5324 91.7079 60.5324H91.9542C92.0486 60.5324 92.1564 60.493 92.2778 60.4141C92.4072 60.3352 92.489 60.2563 92.5232 60.1775ZM100.533 60.493H101.297H101.452C101.884 60.5105 102.099 60.7033 102.099 61.0714C102.099 61.2992 102.008 61.4964 101.827 61.6629C101.646 61.8207 101.431 61.8995 101.18 61.8995H101.024H99.7174C99.4585 61.8995 99.2383 61.8207 99.0576 61.6629C98.8851 61.5052 98.7988 61.3124 98.7988 61.0845C98.7988 60.9881 98.8113 60.8961 98.8374 60.8084C98.8635 60.7208 98.9102 60.585 98.9794 60.4009L99.5358 59.0075C99.5969 58.8585 99.6266 58.7402 99.6266 58.6526C99.6266 58.5474 99.5834 58.4598 99.4972 58.3897C99.4109 58.3196 99.303 58.2845 99.1736 58.2845C98.9147 58.2845 98.6774 58.4247 98.4617 58.7052C98.3152 58.898 98.2029 59.0908 98.1255 59.2836L97.3876 61.1371L97.3103 61.308C97.1117 61.79 96.8007 62.031 96.3782 62.031C96.1967 62.031 96.0412 61.974 95.9117 61.8601C95.7913 61.7462 95.7311 61.6016 95.7311 61.4263C95.7311 61.2861 95.7652 61.1371 95.8344 60.9793L95.8992 60.8084L97.1809 57.6141C97.3355 57.1934 97.6159 56.9831 98.0222 56.9831C98.3413 56.9831 98.5696 57.1321 98.708 57.43C98.9669 57.2285 99.1871 57.0926 99.3677 57.0225C99.5574 56.9437 99.765 56.9042 99.9888 56.9042C100.395 56.9042 100.722 57.0182 100.973 57.246C101.232 57.4739 101.361 57.7674 101.361 58.1268C101.361 58.2232 101.348 58.3283 101.323 58.4423C101.305 58.5474 101.275 58.657 101.232 58.7709L100.533 60.493ZM103.868 60.0197C103.868 60.3352 104.105 60.493 104.58 60.493H106.457H106.612C107.044 60.5105 107.259 60.7033 107.259 61.0714C107.259 61.2992 107.169 61.4964 106.988 61.6629C106.806 61.8207 106.591 61.8995 106.341 61.8995H106.185H104.399C104.08 61.8995 103.825 61.8776 103.635 61.8338C103.446 61.7812 103.264 61.6936 103.092 61.5709C102.6 61.1941 102.355 60.6419 102.355 59.9146C102.355 59.5027 102.427 59.1171 102.574 58.7577C102.729 58.3897 102.932 58.0698 103.182 57.7981C103.441 57.5177 103.739 57.2986 104.076 57.1408C104.421 56.9831 104.783 56.9042 105.162 56.9042C105.706 56.9042 106.142 57.0532 106.47 57.3512C106.806 57.6404 106.974 58.026 106.974 58.508C106.974 58.8147 106.897 59.0908 106.742 59.3361C106.595 59.5728 106.392 59.748 106.133 59.862C106.065 59.897 105.996 59.9233 105.926 59.9408C105.866 59.9584 105.797 59.9759 105.72 59.9934C105.651 60.0022 105.569 60.011 105.473 60.0197C105.378 60.0197 105.267 60.0197 105.137 60.0197H103.868ZM104.167 58.8498H104.865C105.098 58.8498 105.267 58.8279 105.37 58.784C105.473 58.7315 105.526 58.657 105.526 58.5606C105.526 58.4642 105.482 58.3809 105.396 58.3108C105.318 58.2407 105.219 58.2056 105.098 58.2056C104.701 58.2056 104.39 58.4203 104.167 58.8498ZM109.116 58.4028L108.909 58.9286C108.805 59.1915 108.693 59.38 108.572 59.4939C108.451 59.5991 108.305 59.6516 108.132 59.6516C107.96 59.6516 107.809 59.5947 107.679 59.4808C107.55 59.3668 107.485 59.2266 107.485 59.0601C107.485 58.99 107.493 58.9243 107.511 58.8629C107.528 58.8016 107.567 58.6964 107.627 58.5474L108.339 56.7596C108.434 56.523 108.533 56.3565 108.636 56.2601C108.749 56.1637 108.892 56.1155 109.064 56.1155C109.383 56.1155 109.577 56.2645 109.647 56.5624L109.698 56.7596C109.724 56.8648 109.758 56.9305 109.801 56.9568C109.853 56.9831 109.978 56.9962 110.177 56.9962H111.665H111.821C112.269 56.9962 112.494 57.1934 112.494 57.5878C112.494 57.728 112.447 57.8726 112.351 58.0216C112.265 58.1618 112.162 58.2582 112.041 58.3108C111.98 58.3458 111.912 58.3678 111.834 58.3765C111.756 58.3853 111.627 58.3941 111.445 58.4028L111.368 58.4554C111.273 58.5518 111.191 58.6351 111.122 58.7052C111.061 58.7665 111.006 58.8279 110.954 58.8892C110.901 58.9418 110.855 58.9987 110.812 59.0601C110.777 59.1127 110.733 59.174 110.682 59.2441C110.561 59.4194 110.479 59.5596 110.436 59.6648C110.393 59.7612 110.371 59.8576 110.371 59.954C110.371 60.3133 110.565 60.493 110.954 60.493H111.743H111.898C112.33 60.5105 112.545 60.7033 112.545 61.0714C112.545 61.2992 112.455 61.4964 112.274 61.6629C112.101 61.8207 111.89 61.8995 111.639 61.8995H111.484H110.242C110.199 61.8995 110.134 61.8908 110.048 61.8732C109.961 61.8557 109.866 61.8338 109.763 61.8075C109.478 61.7286 109.245 61.5534 109.064 61.2817C108.892 61.0012 108.805 60.677 108.805 60.3089C108.805 60.011 108.878 59.7218 109.025 59.4413C109.172 59.1521 109.422 58.8059 109.776 58.4028H109.116ZM115.045 58.7446L114.916 59.0338C114.743 59.4545 114.484 59.6648 114.139 59.6648C113.966 59.6648 113.812 59.6034 113.673 59.4808C113.535 59.3581 113.467 59.2222 113.467 59.0732C113.467 58.9155 113.527 58.7139 113.647 58.4685L114.489 56.7333C114.687 56.3302 114.942 56.1286 115.253 56.1286C115.416 56.1286 115.559 56.1812 115.68 56.2864C115.8 56.3828 115.861 56.5055 115.861 56.6545C115.861 56.7158 115.848 56.8034 115.822 56.9174C115.814 56.9612 115.805 57.005 115.796 57.0488C115.796 57.0926 115.796 57.1365 115.796 57.1803C115.796 57.4432 115.895 57.7149 116.094 57.9953L116.456 58.508C116.818 59.0338 117 59.5202 117 59.9671C117 60.2914 116.918 60.6025 116.754 60.9005C116.598 61.1897 116.383 61.4219 116.107 61.5972C116.02 61.6498 115.93 61.6936 115.835 61.7286C115.74 61.7549 115.598 61.79 115.408 61.8338C115.313 61.8601 115.231 61.8776 115.162 61.8864C115.102 61.8951 115.054 61.8995 115.02 61.8995H113.609H113.453C113.022 61.882 112.806 61.6892 112.806 61.3211C112.806 61.0933 112.897 60.9005 113.078 60.7427C113.259 60.5762 113.475 60.493 113.726 60.493H113.868H114.606C115.192 60.493 115.485 60.2739 115.485 59.8357C115.485 59.748 115.473 59.6692 115.447 59.5991C115.43 59.5202 115.39 59.4194 115.33 59.2967L115.045 58.7446Z" fill="black"/>
<path d="M8.5343 58.2765H29.1064V60.7047H8.5343V58.2765Z" fill="black"/>
<path d="M0 60.8845L0.673759 59.3557L4.35697 56.3429L7.5461 54.3644L12.2624 52.251L13.1158 52.9255L14.5532 52.8805L14.8227 52.6557L15.0024 52.4758L15.3617 51.9362V51.0369L15.9456 50.6771L17.6974 49.9577L25.6478 46.7651L39.7069 41.2342L44.8274 38.8959L48.7352 37.2322L51.8794 35.5235L55.2482 32.9604L61.1324 27.4295L65.6241 22.1235L67.6454 19.3355L71.1489 18.3013L73.2151 17.8966H76.7187V29.9926L75.5059 30.802L74.383 31.5214L72.0024 32.151L59.156 37.3221L52.1939 40.3798L40.9196 45.4161L27.5343 51.8912L16.3948 57.4221L7.86052 61.7839L0 61.9637V60.8845Z" fill="black"/>
<path d="M77.7967 15.8282L78.0213 12.7705L78.8298 11.9611L80.4468 11.1517L81.9291 10.2523L82.9622 9.26309L83.7707 8.09396L84.0402 7.2396V4.58658L83.4113 3.05772L82.5579 1.88859L81.5697 1.12416L80.7163 0.584564L79.5934 0.179866L78.0662 0H75.9551L74.2482 0.449664L72.9456 1.21409L71.7778 2.24832L70.5201 3.91208L70.0709 4.58658V5.26107L70.5201 5.66577H71.1489L71.4634 5.53087L71.643 5.21611L72.182 4.31678L72.9456 3.10268L74.1584 2.11342L75.3262 1.52886L77.2128 1.30403L78.9645 1.43893L80.4468 2.06846L81.7045 3.05772L82.3783 4.31678L82.5579 6.1604L82.4232 7.14966L81.7045 8.22886L80.5366 9.26309L78.8298 10.2523L76.9882 11.2866L76.3593 12.1409L75.8203 13.3101V15.8282L75.5059 17.8966H78.1111L77.7967 15.8282Z" fill="black"/>
<path d="M143.466 58.2765H122.894V60.7047H143.466V58.2765Z" fill="black"/>
<path d="M152 60.8845L151.326 59.3557L147.643 56.3429L144.454 54.3644L139.738 52.251L138.884 52.9255L137.447 52.8805L137.177 52.6557L136.998 52.4758L136.638 51.9362V51.0369L136.054 50.6771L134.303 49.9577L126.352 46.7651L112.293 41.2342L107.173 38.8959L103.265 37.2322L100.121 35.5235L96.7518 32.9604L90.8676 27.4295L86.3759 22.1235L84.3546 19.3355L80.8511 18.3013L78.7849 17.8966H75.2813V29.9926L76.4941 30.802L77.617 31.5214L79.9976 32.151L92.844 37.3221L99.8061 40.3798L111.08 45.4161L124.466 51.8912L135.605 57.4221L144.139 61.7839L152 61.9637V60.8845Z" fill="black"/>
</g>
<defs>
<clipPath id="clip0_30_651">
<rect width="152" height="67" fill="white"/>
</clipPath>
</defs>
</svg>
