<svg width="2543" height="1373" viewBox="0 0 2543 1373" fill="none" xmlns="http://www.w3.org/2000/svg">
<path d="M227.663 1286.99L220.847 1285.72V1283.89H235.753C240.144 1283.89 243.746 1284.88 246.558 1286.88C249.356 1288.85 251.337 1291.35 252.487 1294.41L271.215 1342.18L282.131 1310.15L272.989 1286.99L266.118 1285.72V1283.89H281.023C285.414 1283.89 288.975 1284.87 291.717 1286.82C294.446 1288.75 296.455 1291.28 297.757 1294.41L316.486 1342.18L334.384 1289.43L325.075 1285.72V1283.89H348.015V1285.72L338.096 1289.43L310.169 1371.93H306.457L284.126 1315.25L264.899 1371.93H261.186L227.663 1286.99Z" fill="black"/>
<path d="M351.736 1370.72V1368.83L359.161 1367V1287.6L351.736 1285.72V1283.89H387.088V1285.72L379.663 1287.6V1326.05H406.316V1287.6L398.891 1285.72V1283.89H434.243V1285.72L426.818 1287.6V1367L434.243 1368.83V1370.72H398.891V1368.83L406.316 1367V1329.16H379.663V1367L387.088 1368.83V1370.72H351.736Z" fill="black"/>
<path d="M446.635 1368.83L454.06 1367V1287.6L446.635 1285.72V1283.89H513.017V1306.22H509.304C507.711 1304.97 506.34 1303.39 505.204 1301.51C502.544 1297.05 501.214 1292.2 501.214 1286.99H474.562V1326.05H488.802C489.384 1322.92 490.465 1319.99 492.016 1317.24C492.681 1316 493.471 1314.79 494.399 1313.64H498.111V1341.57H494.399C493.471 1340.39 492.681 1339.19 492.016 1337.97C490.465 1335.24 489.384 1332.3 488.802 1329.16H474.562V1367.61H503.708C503.708 1362.4 505.038 1357.57 507.697 1353.09C508.833 1351.21 510.191 1349.65 511.742 1348.38H515.51V1370.72H446.635V1368.83Z" fill="black"/>
<path d="M526.647 1368.83L534.072 1367V1287.6L526.647 1285.72V1283.89H559.506C573.58 1283.89 583.72 1286.02 589.926 1290.26C596.132 1294.51 599.235 1300.44 599.235 1308.05C599.235 1313.18 597.864 1317.35 595.135 1320.57C592.392 1323.75 588.887 1326.11 584.607 1327.66C580.022 1329.41 575.187 1330.31 570.089 1330.38V1331.04C573.109 1331.19 575.797 1331.64 578.124 1332.37C583.914 1334.19 587.848 1337.45 589.926 1342.18L601.064 1367L607.27 1368.83V1370.72H589.926C583.125 1370.72 578.152 1367.21 575.021 1360.19L562.609 1332.26H554.574V1367L563.218 1368.83V1370.72H526.647V1368.83ZM559.506 1329.16C565.296 1329.16 569.84 1327.36 573.137 1323.73C576.462 1320.07 578.124 1314.85 578.124 1308.05C578.124 1301.29 576.462 1296.1 573.137 1292.48C569.84 1288.82 565.296 1286.99 559.506 1286.99H554.574V1329.16H559.506Z" fill="black"/>
<path d="M613.483 1368.83L620.908 1367V1287.6L613.483 1285.72V1283.89H679.865V1306.22H676.152C674.559 1304.97 673.188 1303.39 672.052 1301.51C669.392 1297.05 668.062 1292.2 668.062 1286.99H641.41V1326.05H655.65C656.232 1322.92 657.313 1319.99 658.864 1317.24C659.529 1316 660.319 1314.79 661.247 1313.64H664.959V1341.57H661.247C660.319 1340.39 659.529 1339.19 658.864 1337.97C657.313 1335.24 656.232 1332.3 655.65 1329.16H641.41V1367.61H670.556C670.556 1362.4 671.886 1357.57 674.545 1353.09C675.681 1351.21 677.039 1349.65 678.59 1348.38H682.358V1370.72H613.483V1368.83Z" fill="black"/>
<path d="M746.238 1368.83L753.663 1367V1338.47L728.23 1287.6L722.024 1285.72V1283.89H737.539C741.819 1283.89 745.255 1284.8 747.845 1286.6C750.463 1288.42 752.61 1291.02 754.273 1294.41L772.669 1331.04L791.509 1289.43L782.2 1285.72V1283.89H805.749V1285.72L795.831 1289.43L774.11 1337.19V1367L781.59 1368.83V1370.72H746.238V1368.83Z" fill="black"/>
<path d="M850.397 1372.6C842.307 1372.6 835.215 1370.84 829.12 1367.34C823.052 1363.79 818.37 1358.64 815.045 1351.88C811.748 1345.09 810.114 1336.89 810.114 1327.27C810.114 1317.71 811.748 1309.53 815.045 1302.73C818.37 1295.94 823.052 1290.79 829.12 1287.27C835.215 1283.76 842.307 1282 850.397 1282C858.515 1282 865.607 1283.76 871.675 1287.27C877.77 1290.79 882.452 1295.94 885.749 1302.73C889.074 1309.53 890.736 1317.71 890.736 1327.27C890.736 1336.89 889.074 1345.09 885.749 1351.88C882.452 1358.64 877.77 1363.79 871.675 1367.34C865.607 1370.84 858.515 1372.6 850.397 1372.6ZM850.397 1370.11C853.639 1370.11 856.659 1368.75 859.429 1366.01C862.2 1363.28 864.485 1358.73 866.3 1352.37C868.101 1345.99 869.015 1337.62 869.015 1327.27C869.015 1316.94 868.101 1308.59 866.3 1302.23C864.485 1295.88 862.2 1291.34 859.429 1288.6C856.659 1285.87 853.639 1284.5 850.397 1284.5C847.183 1284.5 844.191 1285.87 841.421 1288.6C838.65 1291.34 836.351 1295.88 834.55 1302.23C832.735 1308.59 831.835 1316.94 831.835 1327.27C831.835 1337.62 832.735 1345.99 834.55 1352.37C836.351 1358.73 838.65 1363.28 841.421 1366.01C844.191 1368.75 847.183 1370.11 850.397 1370.11Z" fill="black"/>
<path d="M945.298 1372.6C933.066 1372.6 923.812 1369.72 917.537 1363.95C911.248 1358.19 908.117 1350.1 908.117 1339.69V1287.6L900.637 1285.72V1283.89H935.989V1285.72L928.564 1287.6V1339.69C928.564 1350.37 930.198 1358.01 933.495 1362.63C936.82 1367.21 941.585 1369.5 947.791 1369.5C951.587 1369.5 955.216 1368.28 958.652 1365.84C962.087 1363.4 964.858 1359.94 966.963 1355.42C969.069 1350.88 970.122 1345.64 970.122 1339.69V1289.43L960.203 1285.72V1283.89H983.753V1285.72L973.834 1289.43V1339.69C973.834 1346.42 972.587 1352.25 970.122 1357.19C967.642 1362.15 964.248 1365.95 959.926 1368.61C955.632 1371.27 950.756 1372.6 945.298 1372.6Z" fill="black"/>
<path d="M990.596 1368.83L998.021 1367V1287.6L990.596 1285.72V1283.89H1023.45C1037.53 1283.89 1047.67 1286.02 1053.88 1290.26C1060.08 1294.51 1063.18 1300.44 1063.18 1308.05C1063.18 1313.18 1061.81 1317.35 1059.08 1320.57C1056.34 1323.75 1052.84 1326.11 1048.56 1327.66C1043.97 1329.41 1039.14 1330.31 1034.04 1330.38V1331.04C1037.06 1331.19 1039.75 1331.64 1042.07 1332.37C1047.86 1334.19 1051.8 1337.45 1053.88 1342.18L1065.01 1367L1071.22 1368.83V1370.72H1053.88C1047.07 1370.72 1042.1 1367.21 1038.97 1360.19L1026.56 1332.26H1018.52V1367L1027.17 1368.83V1370.72H990.596V1368.83ZM1023.45 1329.16C1029.25 1329.16 1033.79 1327.36 1037.09 1323.73C1040.41 1320.07 1042.07 1314.85 1042.07 1308.05C1042.07 1301.29 1040.41 1296.1 1037.09 1292.48C1033.79 1288.82 1029.25 1286.99 1023.45 1286.99H1018.52V1329.16H1023.45Z" fill="black"/>
<path d="M1110.28 1286.99L1103.47 1285.72V1283.89H1118.37C1122.76 1283.89 1126.37 1284.88 1129.18 1286.88C1131.98 1288.85 1133.96 1291.35 1135.11 1294.41L1153.83 1342.18L1164.75 1310.15L1155.61 1286.99L1148.74 1285.72V1283.89H1163.64C1168.03 1283.89 1171.59 1284.87 1174.34 1286.82C1177.07 1288.75 1179.07 1291.28 1180.38 1294.41L1199.11 1342.18L1217 1289.43L1207.69 1285.72V1283.89H1230.63V1285.72L1220.72 1289.43L1192.79 1371.93H1189.08L1166.75 1315.25L1147.52 1371.93H1143.81L1110.28 1286.99Z" fill="black"/>
<path d="M1225.66 1368.83L1235.57 1365.12L1269.71 1282.61H1273.42L1308.77 1367L1314.98 1368.83V1370.71H1300.13C1295.81 1370.71 1292.27 1369.76 1289.54 1367.83C1286.8 1365.88 1284.79 1363.33 1283.5 1360.19L1277.13 1345.28H1247.49L1239.34 1365.12L1248.6 1368.83V1370.71H1225.66V1368.83ZM1248.76 1342.18H1275.91L1262.28 1309.54L1248.76 1342.18Z" fill="black"/>
<path d="M1318.71 1368.83L1326.14 1367V1287.6L1318.71 1285.72V1283.89H1351.57C1365.64 1283.89 1375.78 1286.02 1381.99 1290.26C1388.2 1294.51 1391.3 1300.44 1391.3 1308.05C1391.3 1313.18 1389.93 1317.35 1387.2 1320.57C1384.45 1323.75 1380.95 1326.11 1376.67 1327.66C1372.08 1329.41 1367.25 1330.31 1362.15 1330.38V1331.04C1365.17 1331.19 1367.86 1331.64 1370.19 1332.37C1375.98 1334.19 1379.91 1337.45 1381.99 1342.18L1393.13 1367L1399.33 1368.83V1370.72H1381.99C1375.19 1370.72 1370.21 1367.21 1367.08 1360.19L1354.67 1332.26H1346.64V1367L1355.28 1368.83V1370.72H1318.71V1368.83ZM1351.57 1329.16C1357.36 1329.16 1361.9 1327.36 1365.2 1323.73C1368.52 1320.07 1370.19 1314.85 1370.19 1308.05C1370.19 1301.29 1368.52 1296.1 1365.2 1292.48C1361.9 1288.82 1357.36 1286.99 1351.57 1286.99H1346.64V1329.16H1351.57Z" fill="black"/>
<path d="M1405.55 1368.83L1412.97 1367V1287.6L1405.55 1285.72V1283.89H1437.19C1451.99 1283.89 1463.34 1287.7 1471.21 1295.3C1479.1 1302.92 1483.07 1313.57 1483.07 1327.27C1483.07 1341.01 1479.1 1351.7 1471.21 1359.3C1463.34 1366.92 1451.99 1370.72 1437.19 1370.72H1405.55V1368.83ZM1437.19 1367.61C1444.86 1367.61 1450.82 1364.5 1455.03 1358.25C1459.24 1352.01 1461.34 1341.68 1461.34 1327.27C1461.34 1312.91 1459.24 1302.6 1455.03 1296.35C1450.82 1290.12 1444.86 1286.99 1437.19 1286.99H1433.47V1367.61H1437.19Z" fill="black"/>
<path d="M1494.24 1368.83L1501.67 1367V1287.6L1494.24 1285.72V1283.89H1527.1C1541.17 1283.89 1551.31 1286.02 1557.52 1290.26C1563.73 1294.51 1566.83 1300.44 1566.83 1308.05C1566.83 1313.18 1565.46 1317.35 1562.73 1320.57C1559.99 1323.75 1556.48 1326.11 1552.2 1327.66C1547.62 1329.41 1542.78 1330.31 1537.68 1330.38V1331.04C1540.7 1331.19 1543.39 1331.64 1545.72 1332.37C1551.51 1334.19 1555.44 1337.45 1557.52 1342.18L1568.66 1367L1574.86 1368.83V1370.72H1557.52C1550.72 1370.72 1545.75 1367.21 1542.61 1360.19L1530.2 1332.26H1522.17V1367L1530.81 1368.83V1370.72H1494.24V1368.83ZM1527.1 1329.16C1532.89 1329.16 1537.43 1327.36 1540.73 1323.73C1544.06 1320.07 1545.72 1314.85 1545.72 1308.05C1545.72 1301.29 1544.06 1296.1 1540.73 1292.48C1537.43 1288.82 1532.89 1286.99 1527.1 1286.99H1522.17V1329.16H1527.1Z" fill="black"/>
<path d="M1620.75 1372.6C1612.66 1372.6 1605.57 1370.84 1599.47 1367.34C1593.41 1363.79 1588.72 1358.64 1585.4 1351.88C1582.1 1345.09 1580.47 1336.89 1580.47 1327.27C1580.47 1317.71 1582.1 1309.53 1585.4 1302.73C1588.72 1295.94 1593.41 1290.79 1599.47 1287.27C1605.57 1283.76 1612.66 1282 1620.75 1282C1628.87 1282 1635.96 1283.76 1642.03 1287.27C1648.12 1290.79 1652.81 1295.94 1656.1 1302.73C1659.43 1309.53 1661.09 1317.71 1661.09 1327.27C1661.09 1336.89 1659.43 1345.09 1656.1 1351.88C1652.81 1358.64 1648.12 1363.79 1642.03 1367.34C1635.96 1370.84 1628.87 1372.6 1620.75 1372.6ZM1620.75 1370.11C1623.99 1370.11 1627.01 1368.75 1629.78 1366.01C1632.55 1363.28 1634.84 1358.73 1636.65 1352.37C1638.45 1345.99 1639.37 1337.62 1639.37 1327.27C1639.37 1316.94 1638.45 1308.59 1636.65 1302.23C1634.84 1295.88 1632.55 1291.34 1629.78 1288.6C1627.01 1285.87 1623.99 1284.5 1620.75 1284.5C1617.54 1284.5 1614.54 1285.87 1611.77 1288.6C1609 1291.34 1606.7 1295.88 1604.9 1302.23C1603.09 1308.59 1602.19 1316.94 1602.19 1327.27C1602.19 1337.62 1603.09 1345.99 1604.9 1352.37C1606.7 1358.73 1609 1363.28 1611.77 1366.01C1614.54 1368.75 1617.54 1370.11 1620.75 1370.11Z" fill="black"/>
<path d="M1672.87 1368.83L1680.3 1367V1287.6L1672.87 1285.72V1283.89H1706.34C1718.93 1283.89 1728.19 1285.91 1734.1 1289.93C1740 1293.92 1742.97 1299.15 1742.97 1305.61C1742.97 1310.04 1741.67 1313.63 1739.09 1316.36C1736.54 1319.1 1733.29 1321.12 1729.34 1322.45C1725.13 1323.93 1720.56 1324.72 1715.65 1324.84V1325.44C1721.7 1325.67 1726.97 1326.58 1731.44 1328.16C1735.99 1329.64 1739.75 1331.96 1742.75 1335.09C1745.77 1338.23 1747.29 1342.26 1747.29 1347.17C1747.29 1354.52 1744.26 1360.28 1738.2 1364.45C1732.18 1368.64 1722.38 1370.72 1708.84 1370.72H1672.87V1368.83ZM1706.34 1323.56C1709.07 1323.56 1711.62 1322.81 1713.99 1321.29C1716.34 1319.74 1718.26 1317.58 1719.7 1314.81C1721.14 1312.04 1721.86 1308.97 1721.86 1305.61C1721.86 1301.95 1721.14 1298.72 1719.7 1295.91C1718.26 1293.11 1716.34 1290.92 1713.99 1289.37C1711.62 1287.79 1709.07 1286.99 1706.34 1286.99H1700.8V1323.56H1706.34ZM1708.84 1367.61C1713.96 1367.61 1718.14 1365.81 1721.36 1362.18C1724.6 1358.52 1726.23 1353.52 1726.23 1347.17C1726.23 1340.78 1724.6 1335.78 1721.36 1332.15C1718.14 1328.49 1713.96 1326.66 1708.84 1326.66H1700.8V1367.61H1708.84Z" fill="black"/>
<path d="M1757.23 1368.83L1764.65 1367V1287.6L1757.23 1285.72V1283.89H1823.61V1306.22H1819.9C1818.3 1304.97 1816.93 1303.39 1815.8 1301.51C1813.14 1297.05 1811.81 1292.2 1811.81 1286.99H1785.16V1326.05H1799.4C1799.98 1322.92 1801.06 1319.99 1802.61 1317.24C1803.27 1316 1804.06 1314.79 1804.99 1313.64H1808.71V1341.57H1804.99C1804.06 1340.39 1803.27 1339.19 1802.61 1337.97C1801.06 1335.24 1799.98 1332.3 1799.4 1329.16H1785.16V1367.61H1814.3C1814.3 1362.4 1815.63 1357.57 1818.29 1353.09C1819.43 1351.21 1820.78 1349.65 1822.34 1348.38H1826.1V1370.72H1757.23V1368.83Z" fill="black"/>
<path d="M1902.4 1372.6C1896.52 1372.6 1891.01 1371.27 1885.88 1368.61C1883.56 1367.47 1881.59 1366.1 1880.01 1364.51C1878.86 1366.43 1877.42 1368.14 1875.69 1369.61C1874.21 1370.69 1873.37 1371.24 1873.19 1371.32H1870.09V1347.78H1875.08C1876.32 1351.81 1878.07 1355.45 1880.29 1358.69C1885.34 1365.89 1891.88 1369.5 1899.9 1369.5C1904.58 1369.5 1908.34 1368.1 1911.15 1365.28C1913.99 1362.45 1915.42 1358.68 1915.42 1353.98C1915.42 1351.25 1914.6 1348.81 1912.98 1346.67C1911.34 1344.49 1909.34 1342.59 1906.94 1340.96C1904.53 1339.3 1901.19 1337.23 1896.91 1334.75C1891.44 1331.69 1887.01 1328.92 1883.61 1326.44C1880.25 1323.98 1877.36 1320.85 1874.97 1317.08C1872.56 1313.31 1871.37 1308.86 1871.37 1303.72C1871.37 1299.66 1872.49 1296.01 1874.75 1292.75C1877.03 1289.47 1880.45 1286.86 1885 1284.94C1889.54 1282.99 1895.11 1282 1901.73 1282C1906.52 1282 1911.33 1283.37 1916.14 1286.1C1917.94 1287.1 1919.77 1288.43 1921.62 1290.09C1923.02 1287.92 1924.46 1286.21 1925.95 1284.99C1927.41 1283.93 1928.24 1283.36 1928.44 1283.28H1931.54V1306.83H1926.55C1925.47 1302.84 1923.87 1299.24 1921.73 1296.02C1919.74 1292.89 1917.26 1290.29 1914.31 1288.21C1911.39 1286.14 1908.02 1285.11 1904.22 1285.11C1901.01 1285.11 1898.24 1286.41 1895.91 1288.98C1893.59 1291.53 1892.42 1294.79 1892.42 1298.74C1892.42 1301.81 1893.31 1304.55 1895.08 1306.99C1896.88 1309.43 1899.08 1311.58 1901.68 1313.42C1904.29 1315.24 1907.84 1317.41 1912.31 1319.96C1917.52 1322.95 1921.73 1325.61 1924.95 1327.94C1928.16 1330.24 1930.88 1333.09 1933.09 1336.53C1935.34 1339.96 1936.47 1343.92 1936.47 1348.38C1936.47 1352.86 1935.17 1356.95 1932.59 1360.63C1930.05 1364.29 1926.19 1367.21 1921.07 1369.39C1915.97 1371.52 1909.74 1372.6 1902.4 1372.6Z" fill="black"/>
<path d="M1945.79 1370.72V1368.83L1953.21 1367V1287.6L1945.79 1285.72V1283.89H1981.14V1285.72L1973.71 1287.6V1326.05H2000.36V1287.6L1992.94 1285.72V1283.89H2028.29V1285.72L2020.87 1287.6V1367L2028.29 1368.83V1370.72H1992.94V1368.83L2000.36 1367V1329.16H1973.71V1367L1981.14 1368.83V1370.72H1945.79Z" fill="black"/>
<path d="M2040.68 1370.72V1368.83L2048.11 1367V1287.6L2040.68 1285.72V1283.89H2076.04V1285.72L2068.61 1287.6V1367L2076.04 1368.83V1370.72H2040.68Z" fill="black"/>
<path d="M2099.58 1304.94V1365.12L2109.56 1368.83V1370.72H2085.95V1368.83L2095.87 1365.12V1288.21L2087.22 1285.72V1283.89H2100.25C2104.6 1283.89 2108.02 1284.69 2110.5 1286.27C2113 1287.82 2115.37 1289.91 2117.59 1292.53L2157.32 1339.08V1289.43L2147.35 1285.72V1283.89H2170.95V1285.72L2161.03 1289.43V1372.6H2157.32L2099.58 1304.94Z" fill="black"/>
<path d="M2180.24 1368.83L2187.67 1367V1287.6L2180.24 1285.72V1283.89H2246.62V1306.22H2242.91C2241.32 1304.97 2239.95 1303.39 2238.81 1301.51C2236.15 1297.05 2234.82 1292.2 2234.82 1286.99H2208.17V1326.05H2222.41C2222.99 1322.92 2224.07 1319.99 2225.62 1317.24C2226.29 1316 2227.08 1314.79 2228 1313.64H2231.72V1341.57H2228C2227.08 1340.39 2226.29 1339.19 2225.62 1337.97C2224.07 1335.24 2222.99 1332.3 2222.41 1329.16H2208.17V1367.61H2237.31C2237.31 1362.4 2238.64 1357.57 2241.3 1353.09C2242.44 1351.21 2243.8 1349.65 2245.35 1348.38H2249.12V1370.72H2180.24V1368.83Z" fill="black"/>
<path d="M2290.67 1372.6C2284.8 1372.6 2279.29 1371.27 2274.16 1368.61C2271.83 1367.47 2269.87 1366.1 2268.29 1364.51C2267.14 1366.43 2265.7 1368.14 2263.97 1369.61C2262.48 1370.69 2261.65 1371.24 2261.47 1371.32H2258.37V1347.78H2263.36C2264.6 1351.81 2266.35 1355.45 2268.56 1358.69C2273.62 1365.89 2280.16 1369.5 2288.18 1369.5C2292.86 1369.5 2296.62 1368.1 2299.43 1365.28C2302.27 1362.45 2303.7 1358.68 2303.7 1353.98C2303.7 1351.25 2302.88 1348.81 2301.26 1346.67C2299.62 1344.49 2297.61 1342.59 2295.22 1340.96C2292.81 1339.3 2289.47 1337.23 2285.19 1334.75C2279.72 1331.69 2275.28 1328.92 2271.89 1326.44C2268.52 1323.98 2265.64 1320.85 2263.25 1317.08C2260.84 1313.31 2259.64 1308.86 2259.64 1303.72C2259.64 1299.66 2260.77 1296.01 2263.02 1292.75C2265.31 1289.47 2268.73 1286.86 2273.27 1284.94C2277.82 1282.99 2283.39 1282 2290.01 1282C2294.8 1282 2299.61 1283.37 2304.42 1286.1C2306.22 1287.1 2308.04 1288.43 2309.9 1290.09C2311.3 1287.92 2312.74 1286.21 2314.22 1284.99C2315.69 1283.93 2316.52 1283.36 2316.72 1283.28H2319.82V1306.83H2314.83C2313.75 1302.84 2312.15 1299.24 2310.01 1296.02C2308.02 1292.89 2305.54 1290.29 2302.59 1288.21C2299.66 1286.14 2296.3 1285.11 2292.5 1285.11C2289.29 1285.11 2286.52 1286.41 2284.19 1288.98C2281.86 1291.53 2280.7 1294.79 2280.7 1298.74C2280.7 1301.81 2281.59 1304.55 2283.36 1306.99C2285.16 1309.43 2287.36 1311.58 2289.95 1313.42C2292.57 1315.24 2296.12 1317.41 2300.59 1319.96C2305.8 1322.95 2310.01 1325.61 2313.23 1327.94C2316.44 1330.24 2319.15 1333.09 2321.37 1336.53C2323.62 1339.96 2324.75 1343.92 2324.75 1348.38C2324.75 1352.86 2323.45 1356.95 2320.87 1360.63C2318.32 1364.29 2314.47 1367.21 2309.35 1369.39C2304.25 1371.52 2298.02 1372.6 2290.67 1372.6Z" fill="black"/>
<path d="M2376.35 1315.35H2480.43" stroke="black" stroke-width="6" stroke-linecap="round"/>
<path d="M70.8147 1331.31H174.89" stroke="black" stroke-width="6" stroke-linecap="round"/>
<path d="M217.359 1279.01L210.544 1277.74V1275.91H225.449C229.841 1275.91 233.442 1276.9 236.254 1278.9C239.053 1280.87 241.034 1283.37 242.183 1286.44L260.912 1334.2L271.828 1302.17L262.685 1279.01L255.814 1277.74V1275.91H270.72C275.111 1275.91 278.671 1276.89 281.414 1278.84C284.143 1280.77 286.152 1283.3 287.454 1286.44L306.183 1334.2L324.08 1281.45L314.771 1277.74V1275.91H337.711V1277.74L327.793 1281.45L299.866 1363.95H296.153L273.823 1307.27L254.595 1363.95H250.883L217.359 1279.01Z" fill="white"/>
<path d="M341.433 1362.74V1360.85L348.858 1359.02V1279.62L341.433 1277.74V1275.91H376.785V1277.74L369.36 1279.62V1318.07H396.013V1279.62L388.588 1277.74V1275.91H423.939V1277.74L416.514 1279.62V1359.02L423.939 1360.85V1362.74H388.588V1360.85L396.013 1359.02V1321.18H369.36V1359.02L376.785 1360.85V1362.74H341.433Z" fill="white"/>
<path d="M436.332 1360.85L443.757 1359.02V1279.62L436.332 1277.74V1275.91H502.714V1298.24H499.001C497.408 1296.99 496.037 1295.41 494.901 1293.53C492.241 1289.07 490.911 1284.22 490.911 1279.01H464.259V1318.07H478.499C479.081 1314.94 480.162 1312.01 481.713 1309.26C482.378 1308.02 483.168 1306.81 484.096 1305.66H487.808V1333.59H484.096C483.168 1332.41 482.378 1331.21 481.713 1329.99C480.162 1327.26 479.081 1324.32 478.499 1321.18H464.259V1359.63H493.405C493.405 1354.42 494.735 1349.59 497.394 1345.12C498.53 1343.23 499.888 1341.67 501.439 1340.41H505.207V1362.74H436.332V1360.85Z" fill="white"/>
<path d="M516.344 1360.85L523.769 1359.02V1279.62L516.344 1277.74V1275.91H549.203C563.277 1275.91 573.417 1278.04 579.623 1282.28C585.829 1286.53 588.932 1292.46 588.932 1300.07C588.932 1305.21 587.561 1309.38 584.832 1312.59C582.089 1315.78 578.584 1318.13 574.304 1319.68C569.719 1321.43 564.884 1322.33 559.786 1322.4V1323.06C562.806 1323.21 565.493 1323.66 567.821 1324.39C573.611 1326.21 577.545 1329.48 579.623 1334.2L590.761 1359.02L596.967 1360.85V1362.74H579.623C572.821 1362.74 567.848 1359.23 564.718 1352.21L552.306 1324.28H544.271V1359.02L552.915 1360.85V1362.74H516.344V1360.85ZM549.203 1321.18C554.993 1321.18 559.537 1319.38 562.834 1315.75C566.158 1312.09 567.821 1306.87 567.821 1300.07C567.821 1293.31 566.158 1288.13 562.834 1284.5C559.537 1280.84 554.993 1279.01 549.203 1279.01H544.271V1321.18H549.203Z" fill="white"/>
<path d="M603.18 1360.85L610.605 1359.02V1279.62L603.18 1277.74V1275.91H669.562V1298.24H665.849C664.256 1296.99 662.885 1295.41 661.749 1293.53C659.089 1289.07 657.759 1284.22 657.759 1279.01H631.107V1318.07H645.347C645.929 1314.94 647.009 1312.01 648.561 1309.26C649.226 1308.02 650.016 1306.81 650.944 1305.66H654.656V1333.59H650.944C650.016 1332.41 649.226 1331.21 648.561 1329.99C647.009 1327.26 645.929 1324.32 645.347 1321.18H631.107V1359.63H660.253C660.253 1354.42 661.582 1349.59 664.242 1345.12C665.378 1343.23 666.736 1341.67 668.287 1340.41H672.055V1362.74H603.18V1360.85Z" fill="white"/>
<path d="M735.935 1360.85L743.36 1359.02V1330.49L717.926 1279.62L711.72 1277.74V1275.91H727.235C731.516 1275.91 734.951 1276.82 737.542 1278.62C740.16 1280.44 742.307 1283.04 743.969 1286.44L762.366 1323.06L781.205 1281.45L771.896 1277.74V1275.91H795.446V1277.74L785.527 1281.45L763.806 1329.21V1359.02L771.287 1360.85V1362.74H735.935V1360.85Z" fill="white"/>
<path d="M840.094 1364.62C832.004 1364.62 824.912 1362.86 818.816 1359.36C812.749 1355.81 808.067 1350.66 804.742 1343.9C801.445 1337.11 799.811 1328.91 799.811 1319.29C799.811 1309.74 801.445 1301.55 804.742 1294.75C808.067 1287.96 812.749 1282.81 818.816 1279.29C824.912 1275.78 832.004 1274.02 840.094 1274.02C848.212 1274.02 855.304 1275.78 861.372 1279.29C867.467 1282.81 872.149 1287.96 875.446 1294.75C878.771 1301.55 880.433 1309.74 880.433 1319.29C880.433 1328.91 878.771 1337.11 875.446 1343.9C872.149 1350.66 867.467 1355.81 861.372 1359.36C855.304 1362.86 848.212 1364.62 840.094 1364.62ZM840.094 1362.13C843.336 1362.13 846.355 1360.77 849.126 1358.03C851.897 1355.3 854.182 1350.75 855.997 1344.4C857.798 1338.01 858.712 1329.64 858.712 1319.29C858.712 1308.96 857.798 1300.61 855.997 1294.25C854.182 1287.9 851.897 1283.36 849.126 1280.62C846.355 1277.89 843.336 1276.52 840.094 1276.52C836.88 1276.52 833.888 1277.89 831.118 1280.62C828.347 1283.36 826.047 1287.9 824.247 1294.25C822.432 1300.61 821.532 1308.96 821.532 1319.29C821.532 1329.64 822.432 1338.01 824.247 1344.4C826.047 1350.75 828.347 1355.3 831.118 1358.03C833.888 1360.77 836.88 1362.13 840.094 1362.13Z" fill="white"/>
<path d="M934.994 1364.62C922.762 1364.62 913.509 1361.74 907.234 1355.98C900.945 1350.21 897.814 1342.12 897.814 1331.71V1279.62L890.333 1277.74V1275.91H925.685V1277.74L918.26 1279.62V1331.71C918.26 1342.39 919.895 1350.03 923.192 1354.65C926.516 1359.23 931.282 1361.52 937.488 1361.52C941.283 1361.52 944.913 1360.3 948.348 1357.86C951.784 1355.42 954.554 1351.96 956.66 1347.44C958.765 1342.9 959.818 1337.66 959.818 1331.71V1281.45L949.9 1277.74V1275.91H973.449V1277.74L963.531 1281.45V1331.71C963.531 1338.44 962.284 1344.27 959.818 1349.22C957.339 1354.17 953.945 1357.97 949.623 1360.63C945.328 1363.29 940.452 1364.62 934.994 1364.62Z" fill="white"/>
<path d="M980.293 1360.85L987.718 1359.02V1279.62L980.293 1277.74V1275.91H1013.15C1027.23 1275.91 1037.37 1278.04 1043.57 1282.28C1049.78 1286.53 1052.88 1292.46 1052.88 1300.07C1052.88 1305.21 1051.51 1309.38 1048.78 1312.59C1046.04 1315.78 1042.53 1318.13 1038.25 1319.68C1033.67 1321.43 1028.83 1322.33 1023.74 1322.4V1323.06C1026.76 1323.21 1029.44 1323.66 1031.77 1324.39C1037.56 1326.21 1041.49 1329.48 1043.57 1334.2L1054.71 1359.02L1060.92 1360.85V1362.74H1043.57C1036.77 1362.74 1031.8 1359.23 1028.67 1352.21L1016.25 1324.28H1008.22V1359.02L1016.86 1360.85V1362.74H980.293V1360.85ZM1013.15 1321.18C1018.94 1321.18 1023.49 1319.38 1026.78 1315.75C1030.11 1312.09 1031.77 1306.87 1031.77 1300.07C1031.77 1293.31 1030.11 1288.13 1026.78 1284.5C1023.49 1280.84 1018.94 1279.01 1013.15 1279.01H1008.22V1321.18H1013.15Z" fill="white"/>
<path d="M1099.98 1279.01L1093.16 1277.74V1275.91H1108.07C1112.46 1275.91 1116.06 1276.9 1118.87 1278.9C1121.67 1280.87 1123.65 1283.37 1124.8 1286.44L1143.53 1334.2L1154.45 1302.17L1145.3 1279.01L1138.43 1277.74V1275.91H1153.34C1157.73 1275.91 1161.29 1276.89 1164.03 1278.84C1166.76 1280.77 1168.77 1283.3 1170.07 1286.44L1188.8 1334.2L1206.7 1281.45L1197.39 1277.74V1275.91H1220.33V1277.74L1210.41 1281.45L1182.49 1363.95H1178.77L1156.44 1307.27L1137.21 1363.95H1133.5L1099.98 1279.01Z" fill="white"/>
<path d="M1215.35 1360.85L1225.27 1357.14L1259.4 1274.63H1263.12L1298.47 1359.02L1304.68 1360.85V1362.74H1289.83C1285.5 1362.74 1281.97 1361.78 1279.24 1359.85C1276.5 1357.9 1274.49 1355.35 1273.2 1352.21L1266.83 1337.3H1237.18L1229.04 1357.14L1238.29 1360.85V1362.74H1215.35V1360.85ZM1238.46 1334.2H1265.61L1251.98 1301.56L1238.46 1334.2Z" fill="white"/>
<path d="M1308.41 1360.85L1315.83 1359.02V1279.62L1308.41 1277.74V1275.91H1341.27C1355.34 1275.91 1365.48 1278.04 1371.69 1282.28C1377.89 1286.53 1380.99 1292.46 1380.99 1300.07C1380.99 1305.21 1379.62 1309.38 1376.89 1312.59C1374.15 1315.78 1370.65 1318.13 1366.37 1319.68C1361.78 1321.43 1356.95 1322.33 1351.85 1322.4V1323.06C1354.87 1323.21 1357.56 1323.66 1359.88 1324.39C1365.67 1326.21 1369.61 1329.48 1371.69 1334.2L1382.82 1359.02L1389.03 1360.85V1362.74H1371.69C1364.88 1362.74 1359.91 1359.23 1356.78 1352.21L1344.37 1324.28H1336.33V1359.02L1344.98 1360.85V1362.74H1308.41V1360.85ZM1341.27 1321.18C1347.06 1321.18 1351.6 1319.38 1354.9 1315.75C1358.22 1312.09 1359.88 1306.87 1359.88 1300.07C1359.88 1293.31 1358.22 1288.13 1354.9 1284.5C1351.6 1280.84 1347.06 1279.01 1341.27 1279.01H1336.33V1321.18H1341.27Z" fill="white"/>
<path d="M1395.24 1360.85L1402.67 1359.02V1279.62L1395.24 1277.74V1275.91H1426.88C1441.69 1275.91 1453.04 1279.72 1460.9 1287.32C1468.8 1294.94 1472.76 1305.59 1472.76 1319.29C1472.76 1333.04 1468.8 1343.72 1460.9 1351.32C1453.04 1358.94 1441.69 1362.74 1426.88 1362.74H1395.24V1360.85ZM1426.88 1359.63C1434.56 1359.63 1440.51 1356.52 1444.72 1350.27C1448.94 1344.03 1451.04 1333.7 1451.04 1319.29C1451.04 1304.93 1448.94 1294.62 1444.72 1288.37C1440.51 1282.14 1434.56 1279.01 1426.88 1279.01H1423.17V1359.63H1426.88Z" fill="white"/>
<path d="M1483.94 1360.85L1491.36 1359.02V1279.62L1483.94 1277.74V1275.91H1516.8C1530.87 1275.91 1541.01 1278.04 1547.22 1282.28C1553.42 1286.53 1556.53 1292.46 1556.53 1300.07C1556.53 1305.21 1555.15 1309.38 1552.43 1312.59C1549.68 1315.78 1546.18 1318.13 1541.9 1319.68C1537.31 1321.43 1532.48 1322.33 1527.38 1322.4V1323.06C1530.4 1323.21 1533.09 1323.66 1535.41 1324.39C1541.21 1326.21 1545.14 1329.48 1547.22 1334.2L1558.35 1359.02L1564.56 1360.85V1362.74H1547.22C1540.42 1362.74 1535.44 1359.23 1532.31 1352.21L1519.9 1324.28H1511.87V1359.02L1520.51 1360.85V1362.74H1483.94V1360.85ZM1516.8 1321.18C1522.59 1321.18 1527.13 1319.38 1530.43 1315.75C1533.75 1312.09 1535.41 1306.87 1535.41 1300.07C1535.41 1293.31 1533.75 1288.13 1530.43 1284.5C1527.13 1280.84 1522.59 1279.01 1516.8 1279.01H1511.87V1321.18H1516.8Z" fill="white"/>
<path d="M1610.45 1364.62C1602.36 1364.62 1595.27 1362.86 1589.17 1359.36C1583.1 1355.81 1578.42 1350.66 1575.1 1343.9C1571.8 1337.11 1570.16 1328.91 1570.16 1319.29C1570.16 1309.74 1571.8 1301.55 1575.1 1294.75C1578.42 1287.96 1583.1 1282.81 1589.17 1279.29C1595.27 1275.78 1602.36 1274.02 1610.45 1274.02C1618.57 1274.02 1625.66 1275.78 1631.73 1279.29C1637.82 1282.81 1642.5 1287.96 1645.8 1294.75C1649.12 1301.55 1650.79 1309.74 1650.79 1319.29C1650.79 1328.91 1649.12 1337.11 1645.8 1343.9C1642.5 1350.66 1637.82 1355.81 1631.73 1359.36C1625.66 1362.86 1618.57 1364.62 1610.45 1364.62ZM1610.45 1362.13C1613.69 1362.13 1616.71 1360.77 1619.48 1358.03C1622.25 1355.3 1624.54 1350.75 1626.35 1344.4C1628.15 1338.01 1629.07 1329.64 1629.07 1319.29C1629.07 1308.96 1628.15 1300.61 1626.35 1294.25C1624.54 1287.9 1622.25 1283.36 1619.48 1280.62C1616.71 1277.89 1613.69 1276.52 1610.45 1276.52C1607.23 1276.52 1604.24 1277.89 1601.47 1280.62C1598.7 1283.36 1596.4 1287.9 1594.6 1294.25C1592.79 1300.61 1591.89 1308.96 1591.89 1319.29C1591.89 1329.64 1592.79 1338.01 1594.6 1344.4C1596.4 1350.75 1598.7 1355.3 1601.47 1358.03C1604.24 1360.77 1607.23 1362.13 1610.45 1362.13Z" fill="white"/>
<path d="M1662.57 1360.85L1670 1359.02V1279.62L1662.57 1277.74V1275.91H1696.04C1708.63 1275.91 1717.88 1277.93 1723.8 1281.95C1729.7 1285.94 1732.67 1291.17 1732.67 1297.63C1732.67 1302.06 1731.36 1305.65 1728.79 1308.38C1726.24 1311.12 1722.98 1313.14 1719.03 1314.47C1714.82 1315.96 1710.25 1316.75 1705.35 1316.86V1317.47C1711.4 1317.69 1716.67 1318.6 1721.14 1320.18C1725.68 1321.66 1729.45 1323.98 1732.44 1327.11C1735.46 1330.25 1736.99 1334.28 1736.99 1339.19C1736.99 1346.54 1733.95 1352.3 1727.9 1356.47C1721.87 1360.66 1712.08 1362.74 1698.53 1362.74H1662.57V1360.85ZM1696.04 1315.58C1698.77 1315.58 1701.32 1314.83 1703.69 1313.31C1706.04 1311.76 1707.95 1309.6 1709.39 1306.83C1710.83 1304.06 1711.55 1300.99 1711.55 1297.63C1711.55 1293.97 1710.83 1290.74 1709.39 1287.93C1707.95 1285.13 1706.04 1282.94 1703.69 1281.39C1701.32 1279.81 1698.77 1279.01 1696.04 1279.01H1690.5V1315.58H1696.04ZM1698.53 1359.63C1703.66 1359.63 1707.84 1357.83 1711.06 1354.2C1714.3 1350.55 1715.93 1345.54 1715.93 1339.19C1715.93 1332.8 1714.3 1327.8 1711.06 1324.17C1707.84 1320.51 1703.66 1318.68 1698.53 1318.68H1690.5V1359.63H1698.53Z" fill="white"/>
<path d="M1746.93 1360.85L1754.35 1359.02V1279.62L1746.93 1277.74V1275.91H1813.31V1298.24H1809.59C1808 1296.99 1806.63 1295.41 1805.49 1293.53C1802.83 1289.07 1801.5 1284.22 1801.5 1279.01H1774.85V1318.07H1789.09C1789.67 1314.94 1790.76 1312.01 1792.31 1309.26C1792.97 1308.02 1793.76 1306.81 1794.69 1305.66H1798.4V1333.59H1794.69C1793.76 1332.41 1792.97 1331.21 1792.31 1329.99C1790.76 1327.26 1789.67 1324.32 1789.09 1321.18H1774.85V1359.63H1804C1804 1354.42 1805.33 1349.59 1807.99 1345.12C1809.12 1343.23 1810.48 1341.67 1812.03 1340.41H1815.8V1362.74H1746.93V1360.85Z" fill="white"/>
<path d="M1892.09 1364.62C1886.22 1364.62 1880.71 1363.29 1875.58 1360.63C1873.25 1359.49 1871.29 1358.12 1869.71 1356.53C1868.56 1358.46 1867.12 1360.16 1865.38 1361.63C1863.9 1362.71 1863.07 1363.26 1862.89 1363.35H1859.79V1339.8H1864.78C1866.02 1343.83 1867.77 1347.47 1869.98 1350.71C1875.04 1357.92 1881.58 1361.52 1889.6 1361.52C1894.28 1361.52 1898.04 1360.12 1900.85 1357.31C1903.69 1354.47 1905.11 1350.7 1905.11 1346C1905.11 1343.27 1904.3 1340.83 1902.68 1338.69C1901.04 1336.51 1899.03 1334.62 1896.64 1332.98C1894.23 1331.32 1890.89 1329.25 1886.61 1326.77C1881.14 1323.71 1876.7 1320.94 1873.31 1318.46C1869.94 1316 1867.06 1312.87 1864.66 1309.1C1862.25 1305.33 1861.06 1300.88 1861.06 1295.74C1861.06 1291.69 1862.18 1288.03 1864.44 1284.77C1866.73 1281.49 1870.15 1278.89 1874.69 1276.96C1879.24 1275.01 1884.81 1274.02 1891.43 1274.02C1896.22 1274.02 1901.03 1275.39 1905.83 1278.12C1907.64 1279.12 1909.46 1280.45 1911.32 1282.11C1912.72 1279.94 1914.16 1278.23 1915.64 1277.02C1917.11 1275.95 1917.94 1275.38 1918.14 1275.3H1921.24V1298.85H1916.25C1915.17 1294.86 1913.56 1291.26 1911.43 1288.04C1909.44 1284.91 1906.96 1282.31 1904.01 1280.23C1901.08 1278.17 1897.72 1277.13 1893.92 1277.13C1890.71 1277.13 1887.94 1278.43 1885.61 1281.01C1883.28 1283.55 1882.12 1286.81 1882.12 1290.76C1882.12 1293.83 1883.01 1296.58 1884.78 1299.01C1886.58 1301.45 1888.78 1303.6 1891.37 1305.44C1893.99 1307.26 1897.54 1309.43 1902.01 1311.98C1907.22 1314.97 1911.43 1317.63 1914.64 1319.96C1917.86 1322.26 1920.57 1325.11 1922.79 1328.55C1925.03 1331.98 1926.17 1335.94 1926.17 1340.41C1926.17 1344.88 1924.87 1348.97 1922.29 1352.65C1919.74 1356.31 1915.89 1359.23 1910.77 1361.41C1905.67 1363.54 1899.43 1364.62 1892.09 1364.62Z" fill="white"/>
<path d="M1935.48 1362.74V1360.85L1942.91 1359.02V1279.62L1935.48 1277.74V1275.91H1970.83V1277.74L1963.41 1279.62V1318.07H1990.06V1279.62L1982.64 1277.74V1275.91H2017.99V1277.74L2010.56 1279.62V1359.02L2017.99 1360.85V1362.74H1982.64V1360.85L1990.06 1359.02V1321.18H1963.41V1359.02L1970.83 1360.85V1362.74H1935.48Z" fill="white"/>
<path d="M2030.38 1362.74V1360.85L2037.81 1359.02V1279.62L2030.38 1277.74V1275.91H2065.73V1277.74L2058.31 1279.62V1359.02L2065.73 1360.85V1362.74H2030.38Z" fill="white"/>
<path d="M2089.28 1296.96V1357.14L2099.25 1360.85V1362.74H2075.65V1360.85L2085.57 1357.14V1280.23L2076.92 1277.74V1275.91H2089.94C2094.29 1275.91 2097.71 1276.71 2100.19 1278.29C2102.7 1279.84 2105.07 1281.93 2107.29 1284.55L2147.02 1331.1V1281.45L2137.04 1277.74V1275.91H2160.65V1277.74L2150.73 1281.45V1364.62H2147.02L2089.28 1296.96Z" fill="white"/>
<path d="M2169.94 1360.85L2177.36 1359.02V1279.62L2169.94 1277.74V1275.91H2236.32V1298.24H2232.61C2231.01 1296.99 2229.64 1295.41 2228.51 1293.53C2225.85 1289.07 2224.52 1284.22 2224.52 1279.01H2197.86V1318.07H2212.1C2212.69 1314.94 2213.77 1312.01 2215.32 1309.26C2215.98 1308.02 2216.77 1306.81 2217.7 1305.66H2221.41V1333.59H2217.7C2216.77 1332.41 2215.98 1331.21 2215.32 1329.99C2213.77 1327.26 2212.69 1324.32 2212.1 1321.18H2197.86V1359.63H2227.01C2227.01 1354.42 2228.34 1349.59 2231 1345.12C2232.14 1343.23 2233.49 1341.67 2235.04 1340.41H2238.81V1362.74H2169.94V1360.85Z" fill="white"/>
<path d="M2280.37 1364.62C2274.5 1364.62 2268.98 1363.29 2263.86 1360.63C2261.53 1359.49 2259.56 1358.12 2257.98 1356.53C2256.84 1358.46 2255.39 1360.16 2253.66 1361.63C2252.18 1362.71 2251.35 1363.26 2251.17 1363.35H2248.07V1339.8H2253.05C2254.3 1343.83 2256.05 1347.47 2258.26 1350.71C2263.32 1357.92 2269.86 1361.52 2277.88 1361.52C2282.56 1361.52 2286.31 1360.12 2289.13 1357.31C2291.97 1354.47 2293.39 1350.7 2293.39 1346C2293.39 1343.27 2292.57 1340.83 2290.95 1338.69C2289.32 1336.51 2287.31 1334.62 2284.91 1332.98C2282.5 1331.32 2279.17 1329.25 2274.89 1326.77C2269.41 1323.71 2264.98 1320.94 2261.59 1318.46C2258.22 1316 2255.34 1312.87 2252.94 1309.1C2250.53 1305.33 2249.34 1300.88 2249.34 1295.74C2249.34 1291.69 2250.46 1288.03 2252.72 1284.77C2255.01 1281.49 2258.43 1278.89 2262.97 1276.96C2267.52 1275.01 2273.08 1274.02 2279.71 1274.02C2284.5 1274.02 2289.31 1275.39 2294.11 1278.12C2295.91 1279.12 2297.74 1280.45 2299.6 1282.11C2301 1279.94 2302.44 1278.23 2303.92 1277.02C2305.39 1275.95 2306.22 1275.38 2306.41 1275.3H2309.52V1298.85H2304.53C2303.45 1294.86 2301.84 1291.26 2299.71 1288.04C2297.71 1284.91 2295.23 1282.31 2292.28 1280.23C2289.36 1278.17 2285.99 1277.13 2282.2 1277.13C2278.99 1277.13 2276.21 1278.43 2273.89 1281.01C2271.56 1283.55 2270.4 1286.81 2270.4 1290.76C2270.4 1293.83 2271.28 1296.58 2273.06 1299.01C2274.86 1301.45 2277.06 1303.6 2279.65 1305.44C2282.27 1307.26 2285.81 1309.43 2290.29 1311.98C2295.5 1314.97 2299.71 1317.63 2302.92 1319.96C2306.14 1322.26 2308.85 1325.11 2311.07 1328.55C2313.31 1331.98 2314.45 1335.94 2314.45 1340.41C2314.45 1344.88 2313.15 1348.97 2310.57 1352.65C2308.02 1356.31 2304.17 1359.23 2299.04 1361.41C2293.95 1363.54 2287.71 1364.62 2280.37 1364.62Z" fill="white"/>
<path d="M2366.05 1307.37H2470.14" stroke="white" stroke-width="6" stroke-linecap="round"/>
<path d="M60.5083 1323.33H164.583" stroke="white" stroke-width="6" stroke-linecap="round"/>
<mask id="mask0_350_336" style="mask-type:luminance" maskUnits="userSpaceOnUse" x="557" y="901" width="1402" height="233">
<path d="M557.5 901.461H1958.28V1133.04H557.5V901.461Z" fill="white"/>
</mask>
<g mask="url(#mask0_350_336)">
<path d="M695.362 930.649H680.719C672.823 930.358 668.875 926.923 668.875 920.315C668.875 916.145 670.454 912.627 673.613 909.759C676.91 906.892 680.872 905.451 685.457 905.451H730.907C737.072 905.451 741.962 905.811 745.55 906.532C749.276 907.252 753.016 908.609 756.743 910.618C762.201 913.499 766.439 917.517 769.459 922.684C772.618 927.851 774.197 933.738 774.197 940.346C774.197 945.942 773.116 951.469 770.955 956.927C768.808 962.233 765.719 967.054 761.702 971.362C758.973 974.229 756.244 976.529 753.515 978.247C750.938 979.978 747.42 981.627 742.959 983.206C749.705 986.503 754.595 990.673 757.601 995.687C760.76 1000.72 762.353 1007.03 762.353 1014.65C762.353 1020.25 761.48 1025.78 759.762 1031.23C758.183 1036.54 755.884 1041.64 752.864 1046.53C749.996 1051.26 746.478 1055.57 742.322 1059.44C738.152 1063.47 733.553 1066.77 728.539 1069.36C723.219 1072.07 716.404 1074.16 708.078 1075.59C699.739 1077.03 690.555 1077.75 680.511 1077.75H664.996L663.708 1080.77C661.547 1085.65 659.691 1089.66 658.112 1092.82C656.533 1096.13 655.023 1098.93 653.582 1101.23C652.155 1103.67 650.714 1105.75 649.274 1107.46C647.985 1109.33 646.476 1111.2 644.758 1113.07C638.87 1119.39 632.124 1124.2 624.505 1127.5C617.039 1130.94 609.212 1132.66 601.039 1132.66C594.861 1132.66 589.195 1131.66 584.014 1129.66C578.847 1127.79 574.4 1125.13 570.674 1121.69C566.934 1118.24 564.066 1114.07 562.057 1109.2C559.896 1104.46 558.816 1099.29 558.816 1093.68C558.816 1089.66 559.398 1085.78 560.547 1082.06C561.545 1078.32 563.055 1074.88 565.063 1071.72C567.072 1068.57 569.524 1065.75 572.392 1063.32C575.12 1060.88 578.21 1058.94 581.645 1057.5C589.112 1054.2 598.241 1052.55 609.004 1052.55H645.838L695.362 930.649ZM708.715 970.06H714.963C720.712 969.921 725.159 969.423 728.317 968.564C731.475 967.552 734.495 965.752 737.363 963.175C740.092 960.737 742.322 957.648 744.04 953.908C745.757 950.181 746.63 946.593 746.63 943.144C746.63 936.827 743.541 932.879 737.363 931.3C736.213 931.009 734.994 930.871 733.706 930.871C732.404 930.718 730.326 930.649 727.458 930.649H724.868L708.715 970.06ZM675.123 1052.55H683.739C697.232 1052.55 707.718 1050.54 715.185 1046.53C721.072 1043.37 725.81 1038.77 729.397 1032.74C732.985 1026.7 734.772 1020.39 734.772 1013.78C734.772 1009.91 733.844 1006.53 731.974 1003.67C730.256 1000.65 727.818 998.569 724.66 997.419C722.651 996.56 720.352 995.978 717.761 995.687C715.323 995.41 711.805 995.258 707.206 995.258H698.603L675.123 1052.55ZM635.49 1077.75H608.145C605.416 1077.75 603.408 1077.82 602.105 1077.96C600.817 1078.25 599.39 1078.61 597.797 1079.04C591.051 1081.34 587.685 1085.78 587.685 1092.39C587.685 1096.41 589.112 1099.79 591.993 1102.52C594.999 1105.25 598.67 1106.61 602.978 1106.61C609.434 1106.61 615.543 1104.03 621.278 1098.86C627.026 1093.83 631.764 1086.8 635.49 1077.75ZM800.683 991.822L797.234 1000.42C795.516 1004.73 793.646 1007.82 791.637 1009.69C789.629 1011.41 787.177 1012.28 784.309 1012.28C781.442 1012.28 778.921 1011.34 776.774 1009.47C774.613 1007.61 773.546 1005.31 773.546 1002.59C773.546 1001.44 773.684 1000.36 773.975 999.358C774.266 998.347 774.903 996.629 775.915 994.191L787.759 964.893C789.338 961.014 790.986 958.285 792.704 956.706C794.574 955.127 796.943 954.337 799.811 954.337C805.13 954.337 808.358 956.789 809.507 961.665L810.366 964.893C810.796 966.624 811.377 967.691 812.098 968.12C812.957 968.564 815.035 968.771 818.345 968.771H845.69C853.157 968.771 856.883 971.999 856.883 978.468C856.883 980.768 856.094 983.137 854.515 985.575C853.088 987.874 851.356 989.453 849.348 990.312C848.35 990.88 847.2 991.24 845.912 991.393C844.61 991.531 842.463 991.67 839.443 991.822L838.155 992.681C836.575 994.26 835.204 995.618 834.054 996.768C833.057 997.779 832.129 998.776 831.256 999.788C830.397 1000.65 829.608 1001.57 828.887 1002.59C828.319 1003.44 827.599 1004.46 826.74 1005.61C824.731 1008.47 823.36 1010.77 822.64 1012.49C821.933 1014.07 821.573 1015.65 821.573 1017.23C821.573 1023.12 824.801 1026.07 831.256 1026.07H846.979C854.168 1026.34 857.756 1029.5 857.756 1035.54C857.756 1039.27 856.246 1042.5 853.226 1045.22C850.359 1047.81 846.84 1049.1 842.671 1049.1H819.412C818.692 1049.1 817.625 1048.96 816.184 1048.67C814.744 1048.38 813.164 1048.02 811.447 1047.59C806.709 1046.3 802.83 1043.44 799.811 1038.98C796.943 1034.39 795.516 1029.07 795.516 1023.05C795.516 1018.17 796.735 1013.42 799.173 1008.83C801.611 1004.1 805.781 998.416 811.668 991.822H800.683ZM892.028 1026.07H906.448C913.638 1026.34 917.226 1029.5 917.226 1035.54C917.226 1039.27 915.716 1042.5 912.696 1045.22C909.69 1047.81 906.088 1049.1 901.932 1049.1H882.76C876.305 1049.1 871.346 1047.88 867.896 1045.45C864.461 1043.01 862.729 1039.49 862.729 1034.89C862.729 1033.45 862.882 1032.23 863.159 1031.23C863.45 1030.08 864.031 1028.35 864.89 1026.07L882.331 983.414L883.411 980.615C886.708 972.719 891.958 968.771 899.134 968.771C902.14 968.771 904.661 969.783 906.67 971.791C908.817 973.648 909.898 976.016 909.898 978.898C909.898 981.045 909.33 983.414 908.18 986.004L907.099 989.01L892.028 1026.07ZM906.019 964.255C902.002 964.255 898.552 962.815 895.685 959.947C892.817 957.066 891.377 953.631 891.377 949.599C891.377 945.582 892.748 942.133 895.463 939.265C898.344 936.398 901.794 934.957 905.811 934.957C909.967 934.957 913.485 936.398 916.367 939.265C919.234 942.133 920.675 945.651 920.675 949.821C920.675 953.838 919.234 957.288 916.367 960.155C913.638 962.884 910.188 964.255 906.019 964.255ZM983.441 1051.9H998.513C1005.69 1052.19 1009.29 1055.35 1009.29 1061.38C1009.29 1065.12 1007.78 1068.28 1004.76 1070.85C1001.74 1073.58 998.153 1074.95 993.997 1074.95H973.966L969.658 1085.72C964.2 1099.21 957.661 1109.13 950.056 1115.44C942.451 1121.9 933.253 1125.13 922.49 1125.13C917.032 1125.13 912.003 1124.2 907.418 1122.33C902.819 1120.61 898.871 1118.17 895.574 1115.01C892.263 1111.99 889.687 1108.34 887.816 1104.03C885.808 1099.86 884.797 1095.26 884.797 1090.25C884.797 1083.06 886.805 1076.46 890.836 1070.42C894.854 1064.53 900.311 1059.95 907.196 1056.64C910.936 1054.92 914.801 1053.7 918.832 1052.98C922.988 1052.26 928.155 1051.9 934.334 1051.9H956.955L960.183 1043.71C957.592 1045.29 955.445 1046.37 953.713 1046.96C951.996 1047.52 949.918 1047.81 947.466 1047.81C943.74 1047.81 940.36 1047.16 937.353 1045.88C934.334 1044.43 931.674 1042.5 929.388 1040.06C927.227 1037.62 925.509 1034.75 924.207 1031.44C923.058 1028.01 922.49 1024.27 922.49 1020.25C922.49 1013.35 923.778 1006.76 926.368 1000.42C928.945 994.108 932.325 988.511 936.495 983.635C940.803 978.607 945.679 974.659 951.137 971.791C956.733 968.771 962.482 967.262 968.37 967.262C977.124 967.262 983.649 970.06 987.957 975.67C990.839 970.06 995.355 967.262 1001.53 967.262C1004.54 967.262 1007.13 968.204 1009.29 970.06C1011.44 971.93 1012.52 974.229 1012.52 976.958C1012.52 978.385 1012.3 979.757 1011.87 981.045C1011.58 982.195 1010.87 984.203 1009.72 987.085L983.441 1051.9ZM969.658 1020.46L978.053 999.788C978.482 998.638 978.773 997.779 978.911 997.197C979.202 996.629 979.341 995.978 979.341 995.258C979.341 993.249 978.413 991.531 976.543 990.091C974.686 988.664 972.456 987.944 969.866 987.944C967.289 987.944 964.629 988.733 961.9 990.312C959.324 991.892 957.024 993.969 955.016 996.56C953.007 999.136 951.345 1002.09 950.056 1005.38C948.768 1008.54 948.117 1011.77 948.117 1015.08C948.117 1022.4 951.566 1026.07 958.451 1026.07C960.903 1026.07 963.189 1025.55 965.35 1024.56C967.497 1023.41 968.938 1022.03 969.658 1020.46ZM947.466 1074.95H929.388C923.058 1074.95 918.181 1076.24 914.732 1078.83C911.144 1081.56 909.357 1085.29 909.357 1090.02C909.357 1093.47 910.576 1096.27 913.014 1098.42C915.452 1100.72 918.472 1101.87 922.06 1101.87C928.238 1101.87 933.766 1098.5 938.642 1091.74C940.082 1089.89 941.371 1087.72 942.521 1085.29C943.809 1082.99 945.457 1079.54 947.466 1074.95ZM1066.52 973.301C1068.8 971.999 1070.74 971.002 1072.32 970.281C1074.05 969.423 1075.56 968.771 1076.85 968.342C1078.14 967.913 1079.36 967.622 1080.51 967.483C1081.8 967.331 1083.24 967.262 1084.81 967.262C1091.42 967.262 1096.88 969.132 1101.19 972.858C1105.5 976.598 1107.64 981.267 1107.64 986.863C1107.64 988.581 1107.44 990.589 1106.99 992.889C1106.56 995.05 1106 996.989 1105.28 998.707L1094.08 1026.07H1108.72C1115.9 1026.34 1119.49 1029.5 1119.49 1035.54C1119.49 1039.27 1117.98 1042.5 1114.97 1045.22C1111.95 1047.81 1108.36 1049.1 1104.19 1049.1H1080.51C1075.92 1049.1 1072.11 1047.81 1069.09 1045.22C1066.22 1042.65 1064.78 1039.34 1064.78 1035.32C1064.78 1033.17 1065.14 1031.01 1065.86 1028.86L1067.15 1026.07L1076.63 1002.36C1077.35 1000.78 1077.85 999.497 1078.14 998.499C1078.43 997.488 1078.57 996.56 1078.57 995.687C1078.57 993.831 1077.78 992.39 1076.2 991.393C1074.77 990.243 1072.9 989.661 1070.6 989.661C1063.57 989.661 1057.47 995.687 1052.3 1007.75L1040.67 1036.83L1039.59 1039.63C1036.29 1047.23 1031.19 1051.04 1024.29 1051.04C1021.29 1051.04 1018.77 1050.18 1016.76 1048.45C1014.75 1046.6 1013.75 1044.23 1013.75 1041.35C1013.75 1039.34 1014.25 1036.97 1015.25 1034.24L1016.55 1031.44L1062.21 918.597C1064.35 913.416 1066.65 909.759 1069.09 907.612C1071.68 905.312 1074.84 904.163 1078.57 904.163C1081.59 904.163 1084.09 905.091 1086.1 906.961C1088.13 908.831 1089.12 911.2 1089.12 914.067C1089.12 916.076 1088.62 918.445 1087.61 921.174L1086.55 923.972L1066.52 973.301ZM1176.08 968.771H1181.89C1189.07 968.771 1192.67 971.861 1192.67 978.039C1192.67 981.765 1191.16 984.993 1188.14 987.722C1185.12 990.451 1181.53 991.822 1177.38 991.822H1167.25L1153.25 1026.07H1167.47C1174.65 1026.34 1178.24 1029.5 1178.24 1035.54C1178.24 1039.27 1176.73 1042.5 1173.71 1045.22C1170.7 1047.81 1167.11 1049.1 1162.94 1049.1H1141.62C1136.31 1049.1 1132.08 1047.88 1128.92 1045.45C1125.9 1042.86 1124.39 1039.49 1124.39 1035.32C1124.39 1032.59 1125.04 1029.72 1126.33 1026.7L1128.27 1022.19L1140.54 991.822C1131.65 991.822 1127.19 988.664 1127.19 982.347C1127.19 978.607 1128.7 975.448 1131.72 972.858C1134.73 970.143 1138.33 968.771 1142.48 968.771H1149.81L1155.41 954.988L1156.7 952.19C1160.01 944.294 1165.1 940.346 1171.99 940.346C1175.01 940.346 1177.52 941.274 1179.53 943.144C1181.53 945.014 1182.55 947.383 1182.55 950.25C1182.55 951.539 1182.32 953.118 1181.89 954.988C1181.46 956.706 1180.81 958.507 1179.95 960.377L1176.08 968.771ZM1284.03 977.388C1279.15 986.004 1275.57 994.108 1273.27 1001.73C1271.11 1009.33 1270.04 1016.94 1270.04 1024.56C1270.04 1034.6 1272.34 1041.79 1276.92 1046.08C1281.66 1050.39 1289.42 1052.55 1300.18 1052.55H1361.36C1369.25 1052.84 1373.2 1056.28 1373.2 1062.89C1373.2 1067.06 1371.55 1070.57 1368.24 1073.44C1365.08 1076.31 1361.2 1077.75 1356.62 1077.75H1292.65L1288.99 1077.96C1282.09 1077.96 1275.7 1076.67 1269.82 1074.09C1263.93 1071.64 1258.83 1068.21 1254.52 1063.75C1250.37 1059.44 1247.06 1054.27 1244.62 1048.24C1242.32 1042.07 1241.17 1035.32 1241.17 1028.01C1241.17 1020.25 1242.11 1012.49 1243.97 1004.73C1245.99 996.837 1249.29 987.722 1253.89 977.388H1245.27C1237.37 977.097 1233.43 973.648 1233.43 967.054C1233.43 962.884 1235.01 959.366 1238.16 956.498C1241.46 953.631 1245.41 952.19 1250.01 952.19H1268.1C1274.71 941.274 1283.24 931.148 1293.73 921.825C1307.22 909.468 1321.86 903.304 1337.65 903.304C1342.83 903.304 1347.64 904.163 1352.09 905.88C1356.53 907.612 1360.34 909.981 1363.5 912.987C1366.66 916.007 1369.1 919.595 1370.83 923.764C1372.69 927.92 1373.63 932.45 1373.63 937.326C1373.63 944.654 1371.55 951.4 1367.38 957.579C1363.36 963.604 1357.68 968.273 1350.37 971.57C1347.49 972.858 1343.98 973.938 1339.81 974.797C1335.64 975.67 1330.55 976.307 1324.52 976.737C1322.51 977.028 1320.21 977.249 1317.64 977.388C1315.18 977.388 1313.18 977.388 1311.6 977.388H1284.03ZM1299.75 952.19H1320.21C1323.52 952.19 1326.75 952.051 1329.91 951.76C1333.07 951.331 1335.44 950.749 1337.02 950.029C1339.88 948.893 1342.11 947.231 1343.69 945.083C1345.41 942.922 1346.27 940.554 1346.27 937.977C1346.27 935.11 1345.12 932.727 1342.83 930.871C1340.53 929.001 1337.65 928.072 1334.22 928.072C1327.9 928.072 1321.16 931.009 1313.97 936.897C1310.67 939.625 1307.94 942.133 1305.78 944.432C1303.77 946.732 1301.76 949.322 1299.75 952.19ZM1386.28 1026.07H1399.85C1407.03 1026.34 1410.62 1029.5 1410.62 1035.54C1410.62 1039.27 1409.11 1042.5 1406.1 1045.22C1403.08 1047.81 1399.49 1049.1 1395.32 1049.1H1374C1368.97 1049.1 1364.89 1047.95 1361.73 1045.65C1358.57 1043.22 1356.99 1040.06 1356.99 1036.18C1356.99 1034.75 1357.28 1033.02 1357.85 1031.01C1358.42 1029 1359.21 1026.86 1360.22 1024.56L1402.65 920.093L1403.73 917.295C1407.03 909.399 1412.19 905.451 1419.23 905.451C1422.1 905.451 1424.54 906.462 1426.56 908.471C1428.71 910.341 1429.79 912.627 1429.79 915.356C1429.79 917.517 1429.28 919.955 1428.28 922.684L1426.99 925.482L1386.28 1026.07ZM1441.29 1018.31C1441.29 1023.48 1445.23 1026.07 1453.13 1026.07H1486.94C1494.12 1026.34 1497.71 1029.5 1497.71 1035.54C1497.71 1039.27 1496.21 1042.5 1493.19 1045.22C1490.17 1047.81 1486.58 1049.1 1482.43 1049.1H1450.12C1444.8 1049.1 1440.56 1048.74 1437.41 1048.02C1434.25 1047.16 1431.24 1045.74 1428.36 1043.71C1420.19 1037.55 1416.09 1028.5 1416.09 1016.59C1416.09 1009.83 1417.31 1003.51 1419.74 997.627C1422.33 991.601 1425.71 986.364 1429.87 981.904C1434.18 977.319 1439.14 973.731 1444.73 971.14C1450.47 968.564 1456.51 967.262 1462.83 967.262C1471.87 967.262 1479.12 969.7 1484.57 974.59C1490.17 979.327 1492.97 985.644 1492.97 993.54C1492.97 998.569 1491.68 1003.08 1489.1 1007.1C1486.65 1010.98 1483.29 1013.86 1478.98 1015.72C1477.83 1016.3 1476.68 1016.73 1475.53 1017.02C1474.53 1017.3 1473.38 1017.59 1472.08 1017.88C1470.93 1018.02 1469.57 1018.17 1467.99 1018.31C1466.41 1018.31 1464.54 1018.31 1462.4 1018.31H1441.29ZM1446.24 999.136H1457.87C1461.75 999.136 1464.54 998.776 1466.28 998.056C1467.99 997.197 1468.85 995.978 1468.85 994.399C1468.85 992.82 1468.13 991.462 1466.7 990.312C1465.4 989.163 1463.75 988.581 1461.75 988.581C1455.14 988.581 1449.97 992.099 1446.24 999.136ZM1573.83 1026.07H1588.04C1595.22 1026.34 1598.8 1029.5 1598.8 1035.54C1598.8 1039.27 1597.31 1042.5 1594.29 1045.22C1591.27 1047.81 1587.68 1049.1 1583.52 1049.1H1567.37C1561.33 1049.1 1557.32 1046.73 1555.31 1042L1553.37 1043.71C1551.07 1045.74 1548.91 1047.16 1546.91 1048.02C1545.04 1048.74 1542.74 1049.1 1540.01 1049.1H1527.31C1519.83 1049.1 1513.73 1046.37 1509.01 1040.92C1504.41 1035.32 1502.11 1028.01 1502.11 1018.96C1502.11 1012.35 1503.4 1005.97 1505.99 999.788C1508.57 993.471 1511.93 987.944 1516.12 983.206C1520.43 978.316 1525.29 974.437 1530.76 971.57C1536.22 968.702 1541.88 967.262 1547.77 967.262C1556.53 967.262 1563.06 970.351 1567.37 976.529C1569.24 973.648 1571.17 971.639 1573.19 970.489C1575.34 969.353 1577.93 968.771 1580.93 968.771C1583.95 968.771 1586.54 969.7 1588.69 971.57C1590.85 973.44 1591.92 975.739 1591.92 978.468C1591.92 980.048 1591.7 981.474 1591.27 982.776C1590.98 983.926 1590.27 985.935 1589.11 988.802L1573.83 1026.07ZM1549.27 1020.89L1557.25 1001.51L1557.88 999.788C1558.46 998.638 1558.76 997.349 1558.76 995.909C1558.76 993.9 1557.83 992.182 1555.96 990.742C1554.09 989.163 1551.86 988.373 1549.27 988.373C1546.69 988.373 1544.03 989.232 1541.32 990.95C1538.72 992.529 1536.34 994.69 1534.2 997.419C1532.03 1000.15 1530.25 1003.15 1528.81 1006.46C1527.52 1009.76 1526.88 1012.99 1526.88 1016.15C1526.88 1019.46 1527.67 1022.03 1529.25 1023.91C1530.83 1025.78 1532.98 1026.7 1535.7 1026.7H1539.81C1541.37 1026.7 1543.17 1026.07 1545.18 1024.76C1547.34 1023.48 1548.7 1022.19 1549.27 1020.89ZM1682.54 1026.07H1697.85C1705.03 1026.34 1708.61 1029.5 1708.61 1035.54C1708.61 1039.27 1707.1 1042.5 1704.08 1045.22C1701.08 1047.81 1697.49 1049.1 1693.31 1049.1H1668.98C1664.67 1049.1 1661 1047.81 1658 1045.22C1655.13 1042.65 1653.69 1039.49 1653.69 1035.75C1653.69 1034.17 1653.91 1032.66 1654.34 1031.23C1654.77 1029.79 1655.54 1027.56 1656.69 1024.56L1665.96 1001.73C1666.97 999.289 1667.47 997.349 1667.47 995.909C1667.47 994.191 1666.75 992.75 1665.31 991.601C1663.88 990.451 1662.08 989.883 1659.94 989.883C1655.63 989.883 1651.68 992.182 1648.09 996.768C1645.65 999.926 1643.78 1003.08 1642.5 1006.24L1630.21 1036.61L1628.92 1039.42C1625.62 1047.32 1620.44 1051.26 1613.42 1051.26C1610.4 1051.26 1607.81 1050.32 1605.66 1048.45C1603.65 1046.6 1602.65 1044.23 1602.65 1041.35C1602.65 1039.06 1603.22 1036.61 1604.37 1034.03L1605.44 1031.23L1626.77 978.898C1629.35 971.999 1634.02 968.564 1640.78 968.564C1646.08 968.564 1649.88 971.002 1652.18 975.878C1656.49 972.581 1660.16 970.351 1663.16 969.201C1666.32 967.913 1669.77 967.262 1673.5 967.262C1680.26 967.262 1685.7 969.132 1689.87 972.858C1694.18 976.598 1696.34 981.405 1696.34 987.292C1696.34 988.872 1696.1 990.589 1695.69 992.459C1695.4 994.191 1694.9 995.978 1694.18 997.848L1682.54 1026.07ZM1738.05 1018.31C1738.05 1023.48 1742 1026.07 1749.89 1026.07H1783.71C1790.88 1026.34 1794.47 1029.5 1794.47 1035.54C1794.47 1039.27 1792.96 1042.5 1789.96 1045.22C1786.94 1047.81 1783.35 1049.1 1779.19 1049.1H1746.89C1741.58 1049.1 1737.33 1048.74 1734.17 1048.02C1731.01 1047.16 1727.99 1045.74 1725.13 1043.71C1716.94 1037.55 1712.87 1028.5 1712.87 1016.59C1712.87 1009.83 1714.07 1003.51 1716.51 997.627C1719.1 991.601 1722.48 986.364 1726.64 981.904C1730.94 977.319 1735.89 973.731 1741.5 971.14C1747.25 968.564 1753.27 967.262 1759.58 967.262C1768.64 967.262 1775.88 969.7 1781.34 974.59C1786.94 979.327 1789.73 985.644 1789.73 993.54C1789.73 998.569 1788.45 1003.08 1785.86 1007.1C1783.42 1010.98 1780.04 1013.86 1775.73 1015.72C1774.59 1016.3 1773.44 1016.73 1772.29 1017.02C1771.3 1017.3 1770.15 1017.59 1768.86 1017.88C1767.71 1018.02 1766.34 1018.17 1764.76 1018.31C1763.18 1018.31 1761.32 1018.31 1759.16 1018.31H1738.05ZM1743.01 999.136H1754.63C1758.51 999.136 1761.32 998.776 1763.04 998.056C1764.76 997.197 1765.63 995.978 1765.63 994.399C1765.63 992.82 1764.91 991.462 1763.47 990.312C1762.17 989.163 1760.52 988.581 1758.51 988.581C1751.92 988.581 1746.74 992.099 1743.01 999.136ZM1825.36 991.822L1821.91 1000.42C1820.2 1004.73 1818.33 1007.82 1816.32 1009.69C1814.31 1011.41 1811.87 1012.28 1809 1012.28C1806.12 1012.28 1803.62 1011.34 1801.45 1009.47C1799.31 1007.61 1798.23 1005.31 1798.23 1002.59C1798.23 1001.44 1798.37 1000.36 1798.67 999.358C1798.95 998.347 1799.6 996.629 1800.6 994.191L1812.44 964.893C1814.02 961.014 1815.67 958.285 1817.38 956.706C1819.25 955.127 1821.64 954.337 1824.51 954.337C1829.82 954.337 1833.05 956.789 1834.2 961.665L1835.05 964.893C1835.49 966.624 1836.06 967.691 1836.78 968.12C1837.64 968.564 1839.72 968.771 1843.03 968.771H1870.39C1877.84 968.771 1881.58 971.999 1881.58 978.468C1881.58 980.768 1880.79 983.137 1879.21 985.575C1877.77 987.874 1876.05 989.453 1874.04 990.312C1873.03 990.88 1871.89 991.24 1870.59 991.393C1869.3 991.531 1867.14 991.67 1864.12 991.822L1862.84 992.681C1861.26 994.26 1859.9 995.618 1858.75 996.768C1857.74 997.779 1856.81 998.776 1855.95 999.788C1855.08 1000.65 1854.3 1001.57 1853.58 1002.59C1853 1003.44 1852.28 1004.46 1851.43 1005.61C1849.41 1008.47 1848.05 1010.77 1847.33 1012.49C1846.61 1014.07 1846.25 1015.65 1846.25 1017.23C1846.25 1023.12 1849.48 1026.07 1855.95 1026.07H1871.66C1878.85 1026.34 1882.44 1029.5 1882.44 1035.54C1882.44 1039.27 1880.93 1042.5 1877.92 1045.22C1875.04 1047.81 1871.53 1049.1 1867.35 1049.1H1844.11C1843.39 1049.1 1842.31 1048.96 1840.87 1048.67C1839.44 1048.38 1837.85 1048.02 1836.13 1047.59C1831.39 1046.3 1827.51 1043.44 1824.51 1038.98C1821.64 1034.39 1820.2 1029.07 1820.2 1023.05C1820.2 1018.17 1821.42 1013.42 1823.85 1008.83C1826.31 1004.1 1830.46 998.416 1836.35 991.822H1825.36ZM1924.02 997.419L1921.88 1002.16C1919.01 1009.04 1914.7 1012.49 1908.95 1012.49C1906.08 1012.49 1903.51 1011.49 1901.21 1009.47C1898.89 1007.46 1897.76 1005.25 1897.76 1002.79C1897.76 1000.22 1898.77 996.92 1900.76 992.889L1914.77 964.463C1918.08 957.856 1922.3 954.559 1927.49 954.559C1930.2 954.559 1932.58 955.418 1934.59 957.149C1936.59 958.728 1937.61 960.737 1937.61 963.175C1937.61 964.172 1937.38 965.613 1936.95 967.483C1936.81 968.204 1936.67 968.91 1936.53 969.63C1936.53 970.351 1936.53 971.071 1936.53 971.791C1936.53 976.1 1938.18 980.546 1941.48 985.145L1947.5 993.54C1953.53 1002.16 1956.56 1010.12 1956.56 1017.45C1956.56 1022.76 1955.19 1027.85 1952.46 1032.74C1949.87 1037.48 1946.28 1041.28 1941.68 1044.16C1940.26 1045.02 1938.75 1045.74 1937.17 1046.3C1935.59 1046.73 1933.22 1047.32 1930.08 1048.02C1928.48 1048.45 1927.13 1048.74 1925.98 1048.9C1924.96 1049.03 1924.17 1049.1 1923.61 1049.1H1897.54C1890.36 1048.81 1886.77 1045.65 1886.77 1039.63C1886.77 1035.9 1888.28 1032.74 1891.3 1030.15C1894.31 1027.42 1897.9 1026.07 1902.07 1026.07H1916.71C1926.47 1026.07 1931.35 1022.46 1931.35 1015.29C1931.35 1013.86 1931.14 1012.56 1930.71 1011.41C1930.42 1010.12 1929.77 1008.47 1928.77 1006.46L1924.02 997.419Z" fill="black"/>
</g>
<path d="M155.053 987.791H497.546V1028.17H155.053V987.791Z" fill="black"/>
<mask id="mask1_350_336" style="mask-type:luminance" maskUnits="userSpaceOnUse" x="12" y="312" width="1280" height="739">
<path d="M12.9661 312.779H1291.58V1050.41H12.9661V312.779Z" fill="white"/>
</mask>
<g mask="url(#mask1_350_336)">
<path d="M12.9661 1031.16L24.1867 1005.73L85.5124 955.625L138.596 922.725L217.126 887.581L231.325 898.801L255.263 898.053L259.751 894.313L262.743 891.321L268.714 882.344V867.384L278.438 861.399L307.612 849.444L439.974 796.347L674.028 704.366L759.278 665.481L824.344 637.804L876.693 609.392L932.768 566.767L1030.73 474.786L1105.52 386.544L1139.17 340.179L1197.51 322.974L1231.9 316.256H1290.22V517.41L1270.04 530.875L1251.34 542.844L1211.71 553.302L997.834 639.3L881.929 690.153L694.226 773.906L471.378 881.596L285.919 973.578L143.832 1046.11L12.9661 1049.1V1031.16Z" fill="black"/>
</g>
<mask id="mask2_350_336" style="mask-type:luminance" maskUnits="userSpaceOnUse" x="1178" y="18" width="235" height="299">
<path d="M1178.1 18.6179H1412.15V316.325H1178.1V18.6179Z" fill="white"/>
</mask>
<g mask="url(#mask2_350_336)">
<path d="M1308.18 281.846L1311.92 231.007L1325.38 217.542L1352.3 204.077L1376.97 189.13L1394.17 172.673L1407.64 153.224L1412.13 139.025V94.9045L1401.65 69.471L1387.44 50.0357L1371 37.319L1356.78 28.3425L1338.08 21.6101L1312.66 18.6179H1277.52L1249.09 26.0984L1227.41 38.8151L1207.97 56.0201L1187.03 83.6838L1179.55 94.9045V106.111L1187.03 112.844H1197.51L1202.73 110.6L1205.72 105.363L1214.7 90.4162L1227.41 70.219L1247.6 53.7759L1267.05 44.0514L1298.45 40.3112L1327.62 42.5553L1352.3 53.0279L1373.24 69.471L1384.45 90.4162L1387.44 121.072L1385.2 137.529L1373.24 155.468L1353.79 172.673L1325.38 189.13L1294.71 206.321L1284.25 220.534L1275.28 239.969V281.846L1270.04 316.256H1313.41L1308.18 281.846Z" fill="black"/>
</g>
<path d="M2401.47 987.791H2058.98V1028.17H2401.47V987.791Z" fill="black"/>
<mask id="mask3_350_336" style="mask-type:luminance" maskUnits="userSpaceOnUse" x="1263" y="312" width="1280" height="739">
<path d="M1263.21 312.779H2542.35V1050.41H1263.21V312.779Z" fill="white"/>
</mask>
<g mask="url(#mask3_350_336)">
<path d="M2543.55 1031.16L2532.33 1005.73L2471.02 955.625L2417.93 922.725L2339.41 887.581L2325.2 898.801L2301.27 898.053L2296.78 894.313L2293.79 891.321L2287.81 882.344V867.384L2278.08 861.399L2248.92 849.444L2116.56 796.347L1882.49 704.366L1797.24 665.481L1732.18 637.804L1679.84 609.392L1623.75 566.767L1525.79 474.786L1451.01 386.544L1417.36 340.179L1359.03 322.974L1324.63 316.256H1266.3V517.41L1286.5 530.875L1305.18 542.844L1344.82 553.302L1558.69 639.3L1674.61 690.153L1862.31 773.906L2085.16 881.596L2270.6 973.578L2412.69 1046.11L2543.55 1049.1V1031.16Z" fill="black"/>
</g>
<path d="M682.077 912.17H667.435C659.553 911.879 655.605 908.443 655.605 901.835C655.605 897.666 657.184 894.147 660.342 891.28C663.639 888.398 667.587 886.972 672.172 886.972H717.595C723.773 886.972 728.65 887.332 732.237 888.038C735.964 888.759 739.704 890.13 743.43 892.139C748.888 895.006 753.113 899.037 756.133 904.204C759.292 909.371 760.871 915.259 760.871 921.866C760.871 927.463 759.79 932.99 757.643 938.448C755.482 943.767 752.393 948.574 748.376 952.882C745.661 955.75 742.932 958.05 740.203 959.767C737.612 961.499 734.107 963.147 729.647 964.726C736.393 968.037 741.283 972.193 744.289 977.222C747.448 982.25 749.027 988.567 749.027 996.172C749.027 1001.78 748.168 1007.31 746.436 1012.77C744.871 1018.07 742.571 1023.17 739.552 1028.06C736.684 1032.8 733.166 1037.11 729.01 1040.99C724.84 1045 720.255 1048.3 715.226 1050.89C709.921 1053.62 703.105 1055.7 694.78 1057.14C686.454 1058.56 677.27 1059.28 667.227 1059.28H651.726L650.437 1062.3C648.276 1067.18 646.42 1071.21 644.841 1074.37C643.262 1077.67 641.752 1080.47 640.311 1082.76C638.884 1085.2 637.444 1087.29 636.017 1089.01C634.715 1090.88 633.219 1092.75 631.487 1094.61C625.614 1100.94 618.867 1105.75 611.262 1109.04C603.796 1112.49 595.969 1114.21 587.796 1114.21C581.617 1114.21 575.952 1113.21 570.785 1111.2C565.618 1109.33 561.171 1106.67 557.445 1103.23C553.704 1099.79 550.837 1095.62 548.828 1090.74C546.681 1085.99 545.601 1080.83 545.601 1075.23C545.601 1071.21 546.169 1067.33 547.318 1063.59C548.33 1059.87 549.839 1056.42 551.848 1053.26C553.857 1050.1 556.295 1047.3 559.162 1044.86C561.891 1042.41 564.967 1040.47 568.416 1039.05C575.882 1035.74 584.998 1034.09 595.761 1034.09H632.568L682.077 912.17ZM695.431 951.594H701.665C707.413 951.442 711.86 950.943 715.019 950.084C718.177 949.073 721.183 947.286 724.05 944.696C726.779 942.257 729.01 939.168 730.727 935.428C732.445 931.702 733.318 928.114 733.318 924.665C733.318 918.348 730.229 914.4 724.05 912.821C722.901 912.53 721.682 912.391 720.393 912.391C719.105 912.239 717.027 912.17 714.16 912.17H711.569L695.431 951.594ZM661.838 1034.09H670.455C683.947 1034.09 694.42 1032.08 701.886 1028.06C707.774 1024.9 712.497 1020.3 716.085 1014.26C719.673 1008.24 721.474 1001.92 721.474 995.313C721.474 991.434 720.546 988.068 718.676 985.187C716.958 982.181 714.506 980.089 711.361 978.939C709.339 978.08 707.053 977.512 704.463 977.222C702.025 976.931 698.506 976.792 693.921 976.792H685.305L661.838 1034.09ZM622.233 1059.28H594.902C592.173 1059.28 590.165 1059.37 588.862 1059.51C587.574 1059.8 586.147 1060.16 584.568 1060.59C577.822 1062.87 574.442 1067.33 574.442 1073.94C574.442 1077.96 575.882 1081.34 578.75 1084.07C581.77 1086.78 585.427 1088.15 589.735 1088.15C596.19 1088.15 602.286 1085.56 608.021 1080.4C613.769 1075.37 618.507 1068.33 622.233 1059.28ZM787.343 973.343L783.894 981.959C782.176 986.267 780.306 989.357 778.297 991.227C776.289 992.944 773.851 993.803 770.983 993.803C768.116 993.803 765.595 992.875 763.447 991.005C761.3 989.135 760.22 986.849 760.22 984.12C760.22 982.97 760.358 981.89 760.649 980.879C760.94 979.881 761.577 978.15 762.589 975.712L774.419 946.413C775.998 942.548 777.66 939.819 779.378 938.24C781.248 936.647 783.603 935.858 786.484 935.858C791.79 935.858 795.018 938.309 796.167 943.186L797.026 946.413C797.456 948.145 798.037 949.225 798.744 949.655C799.617 950.084 801.695 950.292 804.992 950.292H832.337C839.789 950.292 843.53 953.534 843.53 959.989C843.53 962.288 842.74 964.657 841.161 967.095C839.72 969.395 838.002 970.974 835.994 971.833C834.983 972.415 833.833 972.775 832.544 972.913C831.256 973.052 829.109 973.204 826.089 973.343L824.801 974.202C823.222 975.781 821.85 977.152 820.7 978.302C819.703 979.299 818.775 980.311 817.902 981.308C817.043 982.181 816.254 983.109 815.547 984.12C814.965 984.979 814.245 985.976 813.386 987.126C811.378 990.008 810.02 992.293 809.3 994.025C808.579 995.604 808.219 997.183 808.219 998.762C808.219 1004.65 811.447 1007.59 817.902 1007.59H833.625C840.801 1007.88 844.388 1011.04 844.388 1017.08C844.388 1020.8 842.879 1024.03 839.872 1026.76C836.991 1029.35 833.486 1030.64 829.317 1030.64H806.072C805.352 1030.64 804.271 1030.5 802.844 1030.21C801.404 1029.92 799.824 1029.56 798.107 1029.13C793.369 1027.84 789.49 1024.97 786.484 1020.51C783.603 1015.93 782.176 1010.61 782.176 1004.58C782.176 999.691 783.395 994.953 785.833 990.354C788.271 985.616 792.441 979.951 798.315 973.343H787.343ZM878.646 1007.59H893.067C900.242 1007.88 903.83 1011.04 903.83 1017.08C903.83 1020.8 902.32 1024.03 899.314 1026.76C896.294 1029.35 892.707 1030.64 888.551 1030.64H869.392C862.923 1030.64 857.978 1029.42 854.529 1026.98C851.093 1024.54 849.362 1021.02 849.362 1016.42C849.362 1014.98 849.514 1013.76 849.791 1012.77C850.082 1011.62 850.664 1009.89 851.523 1007.59L868.949 964.948L870.03 962.15C873.327 954.24 878.577 950.292 885.752 950.292C888.759 950.292 891.266 951.303 893.274 953.312C895.435 955.182 896.516 957.551 896.516 960.418C896.516 962.579 895.934 964.948 894.784 967.525L893.718 970.545L878.646 1007.59ZM892.637 945.776C888.62 945.776 885.171 944.335 882.303 941.468C879.436 938.587 877.995 935.151 877.995 931.12C877.995 927.103 879.366 923.653 882.082 920.786C884.963 917.918 888.398 916.478 892.416 916.478C896.585 916.478 900.104 917.918 902.971 920.786C905.839 923.653 907.28 927.172 907.28 931.342C907.28 935.359 905.839 938.808 902.971 941.676C900.242 944.405 896.793 945.776 892.637 945.776ZM970.018 1033.44H985.076C992.252 1033.73 995.84 1036.88 995.84 1042.92C995.84 1046.65 994.343 1049.81 991.324 1052.4C988.318 1055.13 984.73 1056.49 980.56 1056.49H960.543L956.235 1067.26C950.777 1080.76 944.252 1090.66 936.647 1096.98C929.042 1103.45 919.858 1106.67 909.094 1106.67C903.636 1106.67 898.622 1105.75 894.023 1103.88C889.437 1102.16 885.489 1099.71 882.178 1096.55C878.882 1093.54 876.305 1089.87 874.435 1085.56C872.426 1081.41 871.429 1076.81 871.429 1071.78C871.429 1064.6 873.437 1058 877.455 1051.97C881.472 1046.08 886.916 1041.48 893.815 1038.17C897.541 1036.46 901.42 1035.24 905.437 1034.52C909.593 1033.8 914.76 1033.44 920.938 1033.44H943.532L946.76 1025.26C944.183 1026.84 942.036 1027.91 940.304 1028.49C938.587 1029.06 936.509 1029.35 934.071 1029.35C930.33 1029.35 926.964 1028.7 923.944 1027.41C920.938 1025.97 918.279 1024.03 915.979 1021.59C913.832 1019.15 912.114 1016.29 910.812 1012.98C909.662 1009.53 909.094 1005.8 909.094 1001.78C909.094 994.884 910.382 988.276 912.973 981.959C915.55 975.642 918.93 970.046 923.085 965.156C927.394 960.127 932.27 956.179 937.728 953.312C943.324 950.292 949.059 948.782 954.946 948.782C963.701 948.782 970.226 951.594 974.534 957.191C977.402 951.594 981.931 948.782 988.096 948.782C991.116 948.782 993.692 949.724 995.84 951.594C998.001 953.45 999.081 955.75 999.081 958.479C999.081 959.92 998.859 961.277 998.43 962.579C998.139 963.729 997.419 965.738 996.283 968.605L970.018 1033.44ZM956.235 1001.99L964.629 981.308C965.059 980.158 965.35 979.299 965.488 978.732C965.779 978.15 965.918 977.512 965.918 976.792C965.918 974.784 964.99 973.052 963.12 971.625C961.263 970.184 959.033 969.464 956.456 969.464C953.866 969.464 951.22 970.254 948.491 971.833C945.901 973.412 943.615 975.504 941.593 978.08C939.584 980.671 937.935 983.608 936.647 986.918C935.359 990.077 934.708 993.305 934.708 996.601C934.708 1003.93 938.157 1007.59 945.042 1007.59C947.48 1007.59 949.779 1007.09 951.927 1006.09C954.088 1004.94 955.514 1003.57 956.235 1001.99ZM934.071 1056.49H915.979C909.662 1056.49 904.786 1057.77 901.351 1060.37C897.763 1063.09 895.962 1066.83 895.962 1071.57C895.962 1075.01 897.181 1077.82 899.619 1079.97C902.057 1082.27 905.077 1083.42 908.665 1083.42C914.829 1083.42 920.356 1080.04 925.233 1073.29C926.673 1071.42 927.962 1069.27 929.111 1066.83C930.4 1064.53 932.062 1061.09 934.071 1056.49ZM1053.05 954.822C1055.34 953.534 1057.28 952.522 1058.86 951.802C1060.59 950.943 1062.08 950.292 1063.39 949.863C1064.67 949.433 1065.89 949.142 1067.04 949.004C1068.33 948.865 1069.77 948.782 1071.35 948.782C1077.94 948.782 1083.4 950.652 1087.71 954.392C1092 958.119 1094.17 962.787 1094.17 968.384C1094.17 970.115 1093.94 972.124 1093.51 974.423C1093.09 976.571 1092.52 978.51 1091.8 980.241L1080.6 1007.59H1095.23C1102.41 1007.88 1106 1011.04 1106 1017.08C1106 1020.8 1104.5 1024.03 1101.48 1026.76C1098.47 1029.35 1094.89 1030.64 1090.72 1030.64H1067.04C1062.44 1030.64 1058.65 1029.35 1055.63 1026.76C1052.76 1024.18 1051.32 1020.87 1051.32 1016.85C1051.32 1014.71 1051.68 1012.55 1052.4 1010.4L1053.69 1007.59L1063.16 983.899C1063.88 982.319 1064.38 981.031 1064.67 980.02C1064.95 979.022 1065.1 978.08 1065.1 977.222C1065.1 975.351 1064.31 973.925 1062.73 972.913C1061.29 971.764 1059.44 971.196 1057.14 971.196C1050.1 971.196 1044.01 977.222 1038.84 989.287L1027.22 1018.36L1026.14 1021.16C1022.84 1028.77 1017.74 1032.58 1010.86 1032.58C1007.84 1032.58 1005.33 1031.72 1003.32 1030C1001.31 1028.13 1000.3 1025.76 1000.3 1022.88C1000.3 1020.87 1000.81 1018.5 1001.81 1015.77L1003.1 1012.98L1048.74 900.104C1050.89 894.937 1053.19 891.28 1055.63 889.119C1058.22 886.819 1061.36 885.669 1065.1 885.669C1068.11 885.669 1070.63 886.611 1072.64 888.481C1074.65 890.338 1075.64 892.707 1075.64 895.588C1075.64 897.597 1075.15 899.965 1074.15 902.694L1073.07 905.493L1053.05 954.822ZM1162.57 950.292H1168.37C1175.55 950.292 1179.14 953.381 1179.14 959.559C1179.14 963.286 1177.63 966.527 1174.62 969.256C1171.6 971.985 1168.01 973.343 1163.86 973.343H1153.75L1139.74 1007.59H1153.95C1161.13 1007.88 1164.72 1011.04 1164.72 1017.08C1164.72 1020.8 1163.21 1024.03 1160.2 1026.76C1157.18 1029.35 1153.59 1030.64 1149.44 1030.64H1128.12C1122.81 1030.64 1118.57 1029.42 1115.42 1026.98C1112.41 1024.39 1110.9 1021.02 1110.9 1016.85C1110.9 1014.13 1111.55 1011.26 1112.84 1008.24L1114.78 1003.72L1127.05 973.343C1118.14 973.343 1113.7 970.184 1113.7 963.868C1113.7 960.127 1115.21 956.969 1118.21 954.392C1121.23 951.663 1124.82 950.292 1128.98 950.292H1136.31L1141.9 936.509L1143.19 933.71C1146.49 925.814 1151.58 921.866 1158.47 921.866C1161.49 921.866 1164 922.795 1166.01 924.665C1168.01 926.535 1169.03 928.904 1169.03 931.771C1169.03 933.059 1168.8 934.639 1168.37 936.509C1167.94 938.24 1167.31 940.027 1166.43 941.897L1162.57 950.292ZM1270.47 958.908C1265.59 967.525 1262 975.642 1259.7 983.247C1257.54 990.866 1256.48 998.472 1256.48 1006.09C1256.48 1016.13 1258.76 1023.32 1263.36 1027.63C1268.1 1031.94 1275.84 1034.09 1286.61 1034.09H1347.75C1355.63 1034.38 1359.58 1037.83 1359.58 1044.42C1359.58 1048.59 1357.93 1052.11 1354.64 1054.98C1351.48 1057.86 1347.6 1059.28 1343.01 1059.28H1279.07L1275.41 1059.51C1268.53 1059.51 1262.14 1058.22 1256.26 1055.63C1250.37 1053.19 1245.28 1049.74 1240.98 1045.29C1236.81 1040.99 1233.51 1035.8 1231.07 1029.78C1228.77 1023.6 1227.62 1016.85 1227.62 1009.53C1227.62 1001.78 1228.56 994.025 1230.42 986.267C1232.43 978.371 1235.74 969.256 1240.32 958.908H1231.72C1223.83 958.631 1219.88 955.182 1219.88 948.574C1219.88 944.405 1221.46 940.886 1224.62 938.019C1227.91 935.151 1231.86 933.71 1236.45 933.71H1254.54C1261.13 922.795 1269.68 912.668 1280.15 903.345C1293.64 890.989 1308.29 884.811 1324.06 884.811C1329.23 884.811 1334.04 885.669 1338.48 887.401C1342.93 889.119 1346.74 891.488 1349.9 894.507C1353.06 897.527 1355.5 901.115 1357.21 905.271C1359.08 909.441 1360.01 913.97 1360.01 918.847C1360.01 926.175 1357.93 932.921 1353.78 939.099C1349.76 945.125 1344.08 949.793 1336.77 953.09C1333.9 954.392 1330.38 955.459 1326.23 956.332C1322.06 957.191 1316.96 957.842 1310.93 958.271C1308.92 958.548 1306.62 958.77 1304.05 958.908C1301.61 958.908 1299.6 958.908 1298.02 958.908H1270.47ZM1286.18 933.71H1306.62C1309.93 933.71 1313.16 933.572 1316.32 933.281C1319.48 932.852 1321.85 932.27 1323.43 931.549C1326.29 930.413 1328.51 928.751 1330.09 926.604C1331.82 924.443 1332.68 922.074 1332.68 919.498C1332.68 916.616 1331.53 914.247 1329.23 912.391C1326.93 910.521 1324.06 909.579 1320.63 909.579C1314.31 909.579 1307.57 912.53 1300.39 918.417C1297.09 921.146 1294.36 923.653 1292.2 925.953C1290.19 928.252 1288.19 930.843 1286.18 933.71ZM1372.66 1007.59H1386.22C1393.4 1007.88 1396.98 1011.04 1396.98 1017.08C1396.98 1020.8 1395.47 1024.03 1392.47 1026.76C1389.45 1029.35 1385.86 1030.64 1381.71 1030.64H1360.39C1355.37 1030.64 1351.28 1029.49 1348.13 1027.19C1344.97 1024.75 1343.39 1021.59 1343.39 1017.71C1343.39 1016.29 1343.68 1014.55 1344.25 1012.55C1344.82 1010.54 1345.61 1008.38 1346.62 1006.09L1389.02 901.614L1390.1 898.816C1393.4 890.92 1398.56 886.972 1405.6 886.972C1408.47 886.972 1410.91 887.969 1412.92 889.978C1415.08 891.848 1416.14 894.147 1416.14 896.876C1416.14 899.037 1415.64 901.475 1414.65 904.204L1413.34 907.002L1372.66 1007.59ZM1427.64 999.843C1427.64 1005.01 1431.59 1007.59 1439.48 1007.59H1473.29C1480.46 1007.88 1484.05 1011.04 1484.05 1017.08C1484.05 1020.8 1482.54 1024.03 1479.52 1026.76C1476.51 1029.35 1472.92 1030.64 1468.76 1030.64H1436.46C1431.16 1030.64 1426.92 1030.28 1423.78 1029.56C1420.62 1028.7 1417.6 1027.27 1414.73 1025.26C1406.54 1019.08 1402.46 1010.04 1402.46 998.111C1402.46 991.365 1403.68 985.048 1406.11 979.161C1408.7 973.135 1412.07 967.885 1416.24 963.438C1420.53 958.839 1425.49 955.251 1431.09 952.661C1436.82 950.084 1442.85 948.782 1449.17 948.782C1458.21 948.782 1465.46 951.234 1470.92 956.11C1476.51 960.848 1479.31 967.165 1479.31 975.061C1479.31 980.089 1478.02 984.619 1475.43 988.636C1472.99 992.515 1469.63 995.382 1465.32 997.253C1464.17 997.834 1463.02 998.264 1461.87 998.541C1460.87 998.832 1459.72 999.123 1458.42 999.414C1457.29 999.552 1455.91 999.691 1454.33 999.843C1452.76 999.843 1450.9 999.843 1448.74 999.843H1427.64ZM1432.6 980.671H1444.22C1448.1 980.671 1450.9 980.311 1452.62 979.59C1454.33 978.732 1455.19 977.512 1455.19 975.933C1455.19 974.354 1454.49 972.983 1453.05 971.833C1451.76 970.683 1450.11 970.115 1448.1 970.115C1441.49 970.115 1436.33 973.634 1432.6 980.671ZM1560.13 1007.59H1574.33C1581.5 1007.88 1585.09 1011.04 1585.09 1017.08C1585.09 1020.8 1583.59 1024.03 1580.57 1026.76C1577.55 1029.35 1573.97 1030.64 1569.81 1030.64H1553.66C1547.63 1030.64 1543.61 1028.27 1541.62 1023.53L1539.67 1025.26C1537.37 1027.27 1535.22 1028.7 1533.21 1029.56C1531.34 1030.28 1529.06 1030.64 1526.33 1030.64H1513.62C1506.16 1030.64 1500.06 1027.91 1495.34 1022.45C1490.74 1016.85 1488.44 1009.53 1488.44 1000.48C1488.44 993.872 1489.73 987.486 1492.32 981.308C1494.9 974.991 1498.26 969.464 1502.43 964.726C1506.74 959.85 1511.62 955.972 1517.07 953.09C1522.53 950.223 1528.2 948.782 1534.08 948.782C1542.83 948.782 1549.36 951.871 1553.66 958.05C1555.53 955.182 1557.45 953.173 1559.48 952.024C1561.64 950.874 1564.21 950.292 1567.22 950.292C1570.24 950.292 1572.83 951.234 1574.98 953.09C1577.14 954.96 1578.21 957.26 1578.21 959.989C1578.21 961.568 1577.98 963.009 1577.55 964.297C1577.26 965.447 1576.56 967.455 1575.39 970.323L1560.13 1007.59ZM1535.58 1002.42L1543.55 983.04L1544.18 981.308C1544.76 980.158 1545.06 978.87 1545.06 977.443C1545.06 975.421 1544.13 973.703 1542.26 972.262C1540.39 970.683 1538.16 969.894 1535.58 969.894C1533 969.894 1530.34 970.752 1527.63 972.484C1525.04 974.063 1522.66 976.21 1520.51 978.939C1518.35 981.668 1516.56 984.688 1515.12 987.985C1513.85 991.296 1513.19 994.524 1513.19 997.682C1513.19 1000.99 1513.98 1003.57 1515.56 1005.44C1517.14 1007.31 1519.29 1008.24 1522.02 1008.24H1526.12C1527.68 1008.24 1529.47 1007.59 1531.49 1006.3C1533.64 1005.01 1535.01 1003.72 1535.58 1002.42ZM1668.79 1007.59H1684.08C1691.26 1007.88 1694.84 1011.04 1694.84 1017.08C1694.84 1020.8 1693.33 1024.03 1690.31 1026.76C1687.31 1029.35 1683.72 1030.64 1679.55 1030.64H1655.23C1650.92 1030.64 1647.26 1029.35 1644.25 1026.76C1641.39 1024.18 1639.95 1021.02 1639.95 1017.28C1639.95 1015.7 1640.15 1014.19 1640.6 1012.77C1641.03 1011.33 1641.8 1009.1 1642.95 1006.09L1652.21 983.247C1653.23 980.809 1653.72 978.87 1653.72 977.443C1653.72 975.712 1653 974.271 1651.57 973.135C1650.13 971.985 1648.34 971.403 1646.18 971.403C1641.87 971.403 1637.94 973.703 1634.35 978.302C1631.91 981.46 1630.04 984.619 1628.75 987.777L1616.48 1018.14L1615.19 1020.95C1611.89 1028.85 1606.71 1032.8 1599.69 1032.8C1596.67 1032.8 1594.08 1031.86 1591.93 1030C1589.92 1028.13 1588.93 1025.76 1588.93 1022.88C1588.93 1020.59 1589.49 1018.14 1590.64 1015.57L1591.73 1012.77L1613.04 960.418C1615.61 953.534 1620.28 950.084 1627.04 950.084C1632.34 950.084 1636.14 952.522 1638.44 957.398C1642.74 954.102 1646.4 951.871 1649.41 950.721C1652.57 949.433 1656.02 948.782 1659.74 948.782C1666.5 948.782 1671.95 950.652 1676.12 954.392C1680.41 958.119 1682.57 962.94 1682.57 968.827C1682.57 970.406 1682.35 972.124 1681.92 973.994C1681.63 975.712 1681.13 977.512 1680.41 979.369L1668.79 1007.59ZM1724.27 999.843C1724.27 1005.01 1728.22 1007.59 1736.1 1007.59H1769.9C1777.07 1007.88 1780.66 1011.04 1780.66 1017.08C1780.66 1020.8 1779.15 1024.03 1776.15 1026.76C1773.13 1029.35 1769.54 1030.64 1765.38 1030.64H1733.09C1727.79 1030.64 1723.55 1030.28 1720.39 1029.56C1717.23 1028.7 1714.21 1027.27 1711.34 1025.26C1703.17 1019.08 1699.08 1010.04 1699.08 998.111C1699.08 991.365 1700.3 985.048 1702.74 979.161C1705.32 973.135 1708.7 967.885 1712.85 963.438C1717.16 958.839 1722.11 955.251 1727.72 952.661C1733.45 950.084 1739.48 948.782 1745.79 948.782C1754.83 948.782 1762.09 951.234 1767.54 956.11C1773.13 960.848 1775.92 967.165 1775.92 975.061C1775.92 980.089 1774.64 984.619 1772.06 988.636C1769.62 992.515 1766.24 995.382 1761.93 997.253C1760.8 997.834 1759.65 998.264 1758.5 998.541C1757.5 998.832 1756.34 999.123 1755.06 999.414C1753.91 999.552 1752.54 999.691 1750.96 999.843C1749.38 999.843 1747.53 999.843 1745.37 999.843H1724.27ZM1729.23 980.671H1740.84C1744.71 980.671 1747.53 980.311 1749.24 979.59C1750.96 978.732 1751.83 977.512 1751.83 975.933C1751.83 974.354 1751.11 972.983 1749.67 971.833C1748.37 970.683 1746.74 970.115 1744.71 970.115C1738.12 970.115 1732.95 973.634 1729.23 980.671ZM1811.54 973.343L1808.09 981.959C1806.37 986.267 1804.5 989.357 1802.49 991.227C1800.48 992.944 1798.05 993.803 1795.18 993.803C1792.31 993.803 1789.8 992.875 1787.64 991.005C1785.5 989.135 1784.42 986.849 1784.42 984.12C1784.42 982.97 1784.55 981.89 1784.85 980.879C1785.14 979.881 1785.77 978.15 1786.78 975.712L1798.61 946.413C1800.21 942.548 1801.84 939.819 1803.57 938.24C1805.43 936.647 1807.81 935.858 1810.68 935.858C1815.99 935.858 1819.21 938.309 1820.36 943.186L1821.22 946.413C1821.65 948.145 1822.22 949.225 1822.94 949.655C1823.81 950.084 1825.89 950.292 1829.19 950.292H1856.53C1863.99 950.292 1867.73 953.534 1867.73 959.989C1867.73 962.288 1866.94 964.657 1865.36 967.095C1863.92 969.395 1862.2 970.974 1860.19 971.833C1859.18 972.415 1858.04 972.775 1856.74 972.913C1855.45 973.052 1853.3 973.204 1850.29 973.343L1849 974.202C1847.42 975.781 1846.05 977.152 1844.9 978.302C1843.9 979.299 1842.97 980.311 1842.11 981.308C1841.24 982.181 1840.46 983.109 1839.74 984.12C1839.16 984.979 1838.44 985.976 1837.6 987.126C1835.57 990.008 1834.22 992.293 1833.5 994.025C1832.78 995.604 1832.42 997.183 1832.42 998.762C1832.42 1004.65 1835.64 1007.59 1842.11 1007.59H1857.82C1865 1007.88 1868.58 1011.04 1868.58 1017.08C1868.58 1020.8 1867.07 1024.03 1864.07 1026.76C1861.2 1029.35 1857.68 1030.64 1853.51 1030.64H1830.27C1829.55 1030.64 1828.47 1030.5 1827.04 1030.21C1825.6 1029.92 1824.02 1029.56 1822.3 1029.13C1817.57 1027.84 1813.69 1024.97 1810.68 1020.51C1807.81 1015.93 1806.37 1010.61 1806.37 1004.58C1806.37 999.691 1807.59 994.953 1810.03 990.354C1812.48 985.616 1816.64 979.951 1822.52 973.343H1811.54ZM1910.16 978.939L1908 983.677C1905.13 990.576 1900.82 994.025 1895.08 994.025C1892.22 994.025 1889.64 993.014 1887.34 991.005C1885.04 988.996 1883.91 986.766 1883.91 984.328C1883.91 981.751 1884.9 978.441 1886.91 974.423L1900.9 945.984C1904.2 939.376 1908.44 936.079 1913.61 936.079C1916.33 936.079 1918.7 936.938 1920.71 938.67C1922.71 940.249 1923.73 942.257 1923.73 944.696C1923.73 945.707 1923.51 947.134 1923.07 949.004C1922.94 949.724 1922.79 950.444 1922.65 951.151C1922.65 951.871 1922.65 952.592 1922.65 953.312C1922.65 957.62 1924.3 962.067 1927.6 966.666L1933.62 975.061C1939.65 983.677 1942.67 991.656 1942.67 998.97C1942.67 1004.29 1941.31 1009.39 1938.57 1014.26C1935.99 1019.02 1932.4 1022.81 1927.8 1025.69C1926.38 1026.55 1924.87 1027.27 1923.29 1027.84C1921.71 1028.27 1919.35 1028.85 1916.2 1029.56C1914.6 1030 1913.25 1030.28 1912.1 1030.43C1911.1 1030.57 1910.31 1030.64 1909.74 1030.64H1883.68C1876.51 1030.36 1872.92 1027.19 1872.92 1021.16C1872.92 1017.44 1874.43 1014.26 1877.45 1011.69C1880.46 1008.96 1884.04 1007.59 1888.21 1007.59H1902.84C1912.61 1007.59 1917.48 1004 1917.48 996.823C1917.48 995.382 1917.28 994.094 1916.83 992.944C1916.56 991.656 1915.89 990.008 1914.89 987.985L1910.16 978.939Z" fill="white"/>
<path d="M142.017 969.312H484.358V1009.69H142.017V969.312Z" fill="white"/>
<mask id="mask4_350_336" style="mask-type:luminance" maskUnits="userSpaceOnUse" x="0" y="295" width="1278" height="738">
<path d="M0 295.048H1277.39V1032.67H0V295.048Z" fill="white"/>
</mask>
<g mask="url(#mask4_350_336)">
<path d="M0 1012.68L11.2206 987.264L72.5048 937.146L125.574 904.245L204.063 869.087L218.262 880.308L242.186 879.56L246.66 875.82L249.652 872.828L255.637 863.851V848.89L265.348 842.906L294.507 830.951L426.8 777.84L660.758 685.845L745.965 646.96L810.99 619.283L863.311 590.857L919.373 548.232L1017.3 456.237L1092.03 367.982L1125.67 321.617L1183.97 304.412L1218.35 297.679H1276.66V498.861L1256.48 512.326L1237.79 524.295L1198.17 534.768L984.397 620.779L868.547 671.632L680.941 755.399L458.19 863.103L272.828 955.099L130.811 1027.64L0 1030.64V1012.68Z" fill="white"/>
</g>
<mask id="mask5_350_336" style="mask-type:luminance" maskUnits="userSpaceOnUse" x="1163" y="0" width="239" height="299">
<path d="M1163.91 0H1401.51V298.594H1163.91V0Z" fill="white"/>
</mask>
<g mask="url(#mask5_350_336)">
<path d="M1294.6 263.27L1298.34 212.417L1311.79 198.952L1338.69 185.487L1363.36 170.526L1380.56 154.083L1394.01 134.634L1398.49 120.421V76.2866L1388.02 50.8669L1373.82 31.4178L1357.38 18.7011L1343.18 9.72456L1324.49 2.99217L1299.07 0H1263.94L1235.55 7.48043L1213.87 20.1972L1194.43 37.4022L1173.51 65.0798L1166.03 76.2866V87.5072L1173.51 94.2396H1183.97L1189.21 91.9955L1192.2 86.7592L1201.16 71.8121L1213.87 51.615L1234.05 35.158L1253.48 25.4335L1284.87 21.6933L1314.03 23.9374L1338.69 34.41L1359.62 50.8669L1370.83 71.8121L1373.82 102.468L1371.58 118.925L1359.62 136.878L1340.19 154.083L1311.79 170.526L1281.13 187.731L1270.68 201.944L1261.71 221.393V263.27L1256.48 297.68H1299.82L1294.6 263.27Z" fill="white"/>
</g>
<path d="M2387.38 969.312H2045.04V1009.69H2387.38V969.312Z" fill="white"/>
<mask id="mask6_350_336" style="mask-type:luminance" maskUnits="userSpaceOnUse" x="1252" y="295" width="1278" height="738">
<path d="M1252.57 295.048H2529.38V1032.67H1252.57V295.048Z" fill="white"/>
</mask>
<g mask="url(#mask6_350_336)">
<path d="M2529.38 1012.68L2518.18 987.264L2456.89 937.146L2403.82 904.245L2325.33 869.087L2311.13 880.308L2287.21 879.56L2282.72 875.82L2279.74 872.828L2273.76 863.851V848.89L2264.05 842.906L2234.89 830.951L2102.6 777.84L1868.64 685.845L1783.43 646.96L1718.41 619.283L1666.09 590.857L1610.02 548.232L1512.1 456.237L1437.36 367.982L1403.73 321.617L1345.42 304.412L1311.04 297.679H1252.74V498.861L1272.92 512.326L1291.61 524.295L1331.23 534.768L1544.99 620.779L1660.85 671.632L1848.46 755.399L2071.21 863.103L2256.57 955.099L2398.59 1027.64L2529.38 1030.64V1012.68Z" fill="white"/>
</g>
</svg>
