<svg width="24" height="24" viewBox="0 0 24 24" fill="none" xmlns="http://www.w3.org/2000/svg">
<path d="M19.979 22.928C19.901 22.928 19.814 22.924 19.727 22.916C16.497 22.565 13.361 21.449 10.646 19.688C8.12901 18.089 5.94801 15.909 4.34601 13.386C2.58401 10.666 1.46901 7.516 1.12601 4.285C1.05201 3.472 1.29501 2.694 1.80801 2.078C2.32201 1.463 3.04401 1.084 3.84201 1.012C3.93201 1.004 4.02101 1 4.11001 1H7.11001C7.12001 1 7.13001 1 7.13901 1C8.61801 1 9.89201 2.104 10.1 3.581C10.218 4.474 10.435 5.345 10.747 6.181C11.157 7.272 10.892 8.514 10.071 9.344L9.35001 10.064C10.526 11.908 12.092 13.474 13.935 14.65L14.653 13.932C15.486 13.108 16.728 12.842 17.822 13.254C18.657 13.565 19.529 13.781 20.41 13.898C21.925 14.113 23.031 15.415 23 16.931V19.919C23.004 20.716 22.694 21.471 22.13 22.04C21.566 22.609 20.813 22.924 20.012 22.927C20.001 22.928 19.989 22.928 19.979 22.928ZM7.12901 3C7.12601 3 7.12301 3 7.12001 3H4.11001C3.75601 3.028 3.51501 3.154 3.34401 3.359C3.17301 3.564 3.09201 3.824 3.11601 4.09C3.42401 6.995 4.43201 9.841 6.02901 12.307C7.48001 14.59 9.44801 16.559 11.726 18.006C14.187 19.603 17.021 20.61 19.928 20.926C20.281 20.964 20.522 20.822 20.71 20.632C20.898 20.443 21.001 20.192 21 19.925V16.92C21 16.911 21 16.903 21 16.895C21.013 16.388 20.644 15.952 20.14 15.88C19.119 15.746 18.101 15.492 17.121 15.128C16.752 14.988 16.339 15.076 16.063 15.351L14.796 16.618C14.477 16.936 13.984 17.002 13.595 16.78C10.936 15.268 8.73201 13.064 7.22001 10.405C6.99701 10.013 7.06401 9.522 7.38201 9.203L8.65201 7.933C8.92201 7.66 9.01001 7.246 8.87301 6.882C8.50801 5.903 8.25401 4.884 8.11801 3.852C8.05001 3.368 7.62501 3 7.12901 3Z" fill="black"/>
</svg>
