<svg width="1692" height="745" viewBox="0 0 1692 745" fill="none" xmlns="http://www.w3.org/2000/svg">
<path d="M456.264 609.8H448.344H446.472C441.192 609.608 438.552 607.304 438.552 602.888C438.552 600.104 439.608 597.752 441.72 595.832C443.928 593.912 446.568 592.952 449.64 592.952H451.512H480.024C484.152 592.952 487.416 593.192 489.816 593.672C492.312 594.152 494.808 595.064 497.304 596.408C500.952 598.328 503.784 601.016 505.8 604.472C507.912 607.928 508.968 611.864 508.968 616.28C508.968 620.024 508.248 623.72 506.808 627.368C505.368 630.92 503.304 634.136 500.616 637.016C498.792 638.936 496.968 640.472 495.144 641.624C493.416 642.776 491.064 643.88 488.088 644.936C492.6 647.144 495.864 649.928 497.88 653.288C499.992 656.648 501.048 660.872 501.048 665.96C501.048 669.704 500.472 673.4 499.32 677.048C498.264 680.6 496.728 684.008 494.712 687.272C492.792 690.44 490.44 693.32 487.656 695.912C484.872 698.6 481.8 700.808 478.44 702.536C474.888 704.36 470.328 705.752 464.76 706.712C459.192 707.672 453.048 708.152 446.328 708.152H435.96L435.096 710.168C433.656 713.432 432.408 716.12 431.352 718.232C430.296 720.44 429.288 722.312 428.328 723.848C427.368 725.48 426.408 726.872 425.448 728.024C424.584 729.272 423.576 730.52 422.424 731.768C418.488 735.992 413.976 739.208 408.888 741.416C403.896 743.72 398.664 744.872 393.192 744.872C389.064 744.872 385.272 744.2 381.816 742.856C378.36 741.608 375.384 739.832 372.888 737.528C370.392 735.224 368.472 732.44 367.128 729.176C365.688 726.008 364.968 722.552 364.968 718.808C364.968 716.12 365.352 713.528 366.12 711.032C366.792 708.536 367.8 706.232 369.144 704.12C370.488 702.008 372.12 700.136 374.04 698.504C375.864 696.872 377.928 695.576 380.232 694.616C385.224 692.408 391.32 691.304 398.52 691.304H423.144L456.264 609.8ZM465.192 636.152H469.368C473.208 636.056 476.184 635.72 478.296 635.144C480.408 634.472 482.424 633.272 484.344 631.544C486.168 629.912 487.656 627.848 488.808 625.352C489.96 622.856 490.536 620.456 490.536 618.152C490.536 613.928 488.472 611.288 484.344 610.232C483.576 610.04 482.76 609.944 481.896 609.944C481.032 609.848 479.64 609.8 477.72 609.8H476.712H475.992L465.192 636.152ZM442.728 691.304H448.488C457.512 691.304 464.52 689.96 469.512 687.272C473.448 685.16 476.616 682.088 479.016 678.056C481.416 674.024 482.616 669.8 482.616 665.384C482.616 662.792 481.992 660.536 480.744 658.616C479.592 656.6 477.96 655.208 475.848 654.44C474.504 653.864 472.968 653.48 471.24 653.288C469.608 653.096 467.256 653 464.184 653H458.424L442.728 691.304ZM416.232 708.152H397.944C396.12 708.152 394.776 708.2 393.912 708.296C393.048 708.488 392.088 708.728 391.032 709.016C386.52 710.552 384.264 713.528 384.264 717.944C384.264 720.632 385.224 722.888 387.144 724.712C389.16 726.536 391.608 727.448 394.488 727.448C398.808 727.448 402.888 725.72 406.728 722.264C410.568 718.904 413.736 714.2 416.232 708.152ZM526.678 650.696L524.374 656.456C523.222 659.336 521.974 661.4 520.63 662.648C519.286 663.8 517.654 664.376 515.734 664.376C513.814 664.376 512.134 663.752 510.694 662.504C509.254 661.256 508.534 659.72 508.534 657.896C508.534 657.128 508.63 656.408 508.822 655.736C509.014 655.064 509.446 653.912 510.118 652.28L518.038 632.696C519.094 630.104 520.198 628.28 521.35 627.224C522.598 626.168 524.182 625.64 526.102 625.64C529.654 625.64 531.814 627.272 532.582 630.536L533.158 632.696C533.446 633.848 533.83 634.568 534.31 634.856C534.886 635.144 536.278 635.288 538.486 635.288H555.046H556.774C561.766 635.288 564.262 637.448 564.262 641.768C564.262 643.304 563.734 644.888 562.678 646.52C561.718 648.056 560.566 649.112 559.222 649.688C558.55 650.072 557.782 650.312 556.918 650.408C556.054 650.504 554.614 650.6 552.598 650.696L551.734 651.272C550.678 652.328 549.766 653.24 548.998 654.008C548.326 654.68 547.702 655.352 547.126 656.024C546.55 656.6 546.022 657.224 545.542 657.896C545.158 658.472 544.678 659.144 544.102 659.912C542.758 661.832 541.846 663.368 541.366 664.52C540.886 665.576 540.646 666.632 540.646 667.688C540.646 671.624 542.806 673.592 547.126 673.592H555.91H557.638C562.438 673.784 564.838 675.896 564.838 679.928C564.838 682.424 563.83 684.584 561.814 686.408C559.894 688.136 557.542 689 554.758 689H553.03H539.206C538.726 689 538.006 688.904 537.046 688.712C536.086 688.52 535.03 688.28 533.878 687.992C530.71 687.128 528.118 685.208 526.102 682.232C524.182 679.16 523.222 675.608 523.222 671.576C523.222 668.312 524.038 665.144 525.67 662.072C527.302 658.904 530.086 655.112 534.022 650.696H526.678ZM587.753 673.592H595.673H597.401C602.201 673.784 604.601 675.896 604.601 679.928C604.601 682.424 603.593 684.584 601.577 686.408C599.561 688.136 597.161 689 594.377 689H592.649H581.561C577.241 689 573.929 688.184 571.625 686.552C569.321 684.92 568.169 682.568 568.169 679.496C568.169 678.536 568.265 677.72 568.457 677.048C568.649 676.28 569.033 675.128 569.609 673.592L581.273 645.08L581.993 643.208C584.201 637.928 587.705 635.288 592.505 635.288C594.521 635.288 596.201 635.96 597.545 637.304C598.985 638.552 599.705 640.136 599.705 642.056C599.705 643.496 599.321 645.08 598.553 646.808L597.833 648.824L587.753 673.592ZM597.113 632.264C594.425 632.264 592.121 631.304 590.201 629.384C588.281 627.464 587.321 625.16 587.321 622.472C587.321 619.784 588.233 617.48 590.057 615.56C591.977 613.64 594.281 612.68 596.969 612.68C599.753 612.68 602.105 613.64 604.025 615.56C605.945 617.48 606.905 619.832 606.905 622.616C606.905 625.304 605.945 627.608 604.025 629.528C602.201 631.352 599.897 632.264 597.113 632.264ZM648.875 690.872H657.227H658.955C663.755 691.064 666.155 693.176 666.155 697.208C666.155 699.704 665.147 701.816 663.131 703.544C661.115 705.368 658.715 706.28 655.931 706.28H654.203H642.539L639.659 713.48C636.011 722.504 631.643 729.128 626.555 733.352C621.467 737.672 615.323 739.832 608.123 739.832C604.475 739.832 601.115 739.208 598.043 737.96C594.971 736.808 592.331 735.176 590.123 733.064C587.915 731.048 586.187 728.6 584.939 725.72C583.595 722.936 582.923 719.864 582.923 716.504C582.923 711.704 584.267 707.288 586.955 703.256C589.643 699.32 593.291 696.248 597.899 694.04C600.395 692.888 602.987 692.072 605.675 691.592C608.459 691.112 611.915 690.872 616.043 690.872H631.163L633.323 685.4C631.595 686.456 630.155 687.176 629.003 687.56C627.851 687.944 626.459 688.136 624.827 688.136C622.331 688.136 620.075 687.704 618.059 686.84C616.043 685.88 614.267 684.584 612.731 682.952C611.291 681.32 610.139 679.4 609.275 677.192C608.507 674.888 608.123 672.392 608.123 669.704C608.123 665.096 608.987 660.68 610.715 656.456C612.443 652.232 614.699 648.488 617.483 645.224C620.363 641.864 623.627 639.224 627.275 637.304C631.019 635.288 634.859 634.28 638.795 634.28C644.651 634.28 649.019 636.152 651.899 639.896C653.819 636.152 656.843 634.28 660.971 634.28C662.987 634.28 664.715 634.904 666.155 636.152C667.595 637.4 668.315 638.936 668.315 640.76C668.315 641.72 668.171 642.632 667.883 643.496C667.691 644.264 667.211 645.608 666.443 647.528L648.875 690.872ZM639.659 669.848L645.275 656.024C645.563 655.256 645.755 654.68 645.851 654.296C646.043 653.912 646.139 653.48 646.139 653C646.139 651.656 645.515 650.504 644.267 649.544C643.019 648.584 641.531 648.104 639.803 648.104C638.075 648.104 636.299 648.632 634.475 649.688C632.747 650.744 631.211 652.136 629.867 653.864C628.523 655.592 627.419 657.56 626.555 659.768C625.691 661.88 625.259 664.04 625.259 666.248C625.259 671.144 627.563 673.592 632.171 673.592C633.803 673.592 635.339 673.256 636.779 672.584C638.219 671.816 639.179 670.904 639.659 669.848ZM624.827 706.28H612.731C608.507 706.28 605.243 707.144 602.939 708.872C600.539 710.696 599.339 713.192 599.339 716.36C599.339 718.664 600.155 720.536 601.787 721.976C603.419 723.512 605.435 724.28 607.835 724.28C611.963 724.28 615.659 722.024 618.923 717.512C619.883 716.264 620.747 714.824 621.515 713.192C622.379 711.656 623.483 709.352 624.827 706.28ZM704.418 638.312C705.954 637.448 707.25 636.776 708.306 636.296C709.458 635.72 710.466 635.288 711.33 635C712.194 634.712 713.01 634.52 713.778 634.424C714.642 634.328 715.602 634.28 716.658 634.28C721.074 634.28 724.722 635.528 727.602 638.024C730.482 640.52 731.922 643.64 731.922 647.384C731.922 648.536 731.778 649.88 731.49 651.416C731.202 652.856 730.818 654.152 730.338 655.304L722.85 673.592H730.914H732.642C737.442 673.784 739.842 675.896 739.842 679.928C739.842 682.424 738.834 684.584 736.818 686.408C734.802 688.136 732.402 689 729.618 689H727.89H713.778C710.706 689 708.162 688.136 706.146 686.408C704.226 684.68 703.266 682.472 703.266 679.784C703.266 678.344 703.506 676.904 703.986 675.464L704.85 673.592L711.186 657.752C711.666 656.696 712.002 655.832 712.194 655.16C712.386 654.488 712.482 653.864 712.482 653.288C712.482 652.04 711.954 651.08 710.898 650.408C709.938 649.64 708.69 649.256 707.154 649.256C702.45 649.256 698.37 653.288 694.914 661.352L687.138 680.792L686.418 682.664C684.21 687.752 680.802 690.296 676.194 690.296C674.178 690.296 672.498 689.72 671.154 688.568C669.81 687.32 669.138 685.736 669.138 683.816C669.138 682.472 669.474 680.888 670.146 679.064L671.01 677.192L701.538 601.736C702.978 598.28 704.514 595.832 706.146 594.392C707.874 592.856 709.986 592.088 712.482 592.088C714.498 592.088 716.178 592.712 717.522 593.96C718.866 595.208 719.538 596.792 719.538 598.712C719.538 600.056 719.202 601.64 718.53 603.464L717.81 605.336L704.418 638.312ZM777.68 635.288H779.84H781.568C786.368 635.288 788.768 637.352 788.768 641.48C788.768 643.976 787.76 646.136 785.744 647.96C783.728 649.784 781.328 650.696 778.544 650.696H776.816H771.776L762.416 673.592H770.192H771.92C776.72 673.784 779.12 675.896 779.12 679.928C779.12 682.424 778.112 684.584 776.096 686.408C774.08 688.136 771.68 689 768.896 689H767.168H754.64C751.088 689 748.256 688.184 746.144 686.552C744.128 684.824 743.12 682.568 743.12 679.784C743.12 677.96 743.552 676.04 744.416 674.024L745.712 671L753.92 650.696C747.968 650.696 744.992 648.584 744.992 644.36C744.992 641.864 746 639.752 748.016 638.024C750.032 636.2 752.432 635.288 755.216 635.288H756.944H760.112L763.856 626.072L764.72 624.2C766.928 618.92 770.336 616.28 774.944 616.28C776.96 616.28 778.64 616.904 779.984 618.152C781.328 619.4 782 620.984 782 622.904C782 623.768 781.856 624.824 781.568 626.072C781.28 627.224 780.848 628.424 780.272 629.672L777.68 635.288ZM849.858 641.048C846.594 646.808 844.194 652.232 842.658 657.32C841.218 662.408 840.498 667.496 840.498 672.584C840.498 679.304 842.034 684.104 845.106 686.984C848.274 689.864 853.458 691.304 860.658 691.304H899.682H901.554C906.834 691.496 909.474 693.8 909.474 698.216C909.474 701 908.37 703.352 906.162 705.272C904.05 707.192 901.458 708.152 898.386 708.152H896.514H855.618L853.17 708.296C848.562 708.296 844.29 707.432 840.354 705.704C836.418 704.072 833.01 701.768 830.13 698.792C827.346 695.912 825.138 692.456 823.506 688.424C821.97 684.296 821.202 679.784 821.202 674.888C821.202 669.704 821.826 664.52 823.074 659.336C824.418 654.056 826.626 647.96 829.698 641.048H825.81H823.938C818.658 640.856 816.018 638.552 816.018 634.136C816.018 631.352 817.074 629 819.186 627.08C821.394 625.16 824.034 624.2 827.106 624.2H828.978H839.202C843.618 616.904 849.33 610.136 856.338 603.896C865.362 595.64 875.154 591.512 885.714 591.512C889.17 591.512 892.386 592.088 895.362 593.24C898.338 594.392 900.882 595.976 902.994 597.992C905.106 600.008 906.738 602.408 907.89 605.192C909.138 607.976 909.762 611 909.762 614.264C909.762 619.16 908.37 623.672 905.586 627.8C902.898 631.832 899.106 634.952 894.21 637.16C892.29 638.024 889.938 638.744 887.154 639.32C884.37 639.896 880.962 640.328 876.93 640.616C875.586 640.808 874.05 640.952 872.322 641.048C870.69 641.048 869.346 641.048 868.29 641.048H849.858ZM860.37 624.2H874.05C876.258 624.2 878.418 624.104 880.53 623.912C882.642 623.624 884.226 623.24 885.282 622.76C887.202 621.992 888.69 620.888 889.746 619.448C890.898 618.008 891.474 616.424 891.474 614.696C891.474 612.776 890.706 611.192 889.17 609.944C887.634 608.696 885.714 608.072 883.41 608.072C879.186 608.072 874.674 610.04 869.874 613.976C867.666 615.8 865.842 617.48 864.402 619.016C863.058 620.552 861.714 622.28 860.37 624.2ZM918.222 673.592H925.566H927.294C932.094 673.784 934.494 675.896 934.494 679.928C934.494 682.424 933.486 684.584 931.47 686.408C929.454 688.136 927.054 689 924.27 689H922.542H910.014C906.654 689 903.918 688.232 901.806 686.696C899.694 685.064 898.638 682.952 898.638 680.36C898.638 679.4 898.83 678.248 899.214 676.904C899.598 675.56 900.126 674.12 900.798 672.584L929.166 602.744L929.886 600.872C932.094 595.592 935.55 592.952 940.254 592.952C942.174 592.952 943.806 593.624 945.15 594.968C946.59 596.216 947.31 597.752 947.31 599.576C947.31 601.016 946.974 602.648 946.302 604.472L945.438 606.344L918.222 673.592ZM955.001 668.408C955.001 671.864 957.641 673.592 962.921 673.592H983.801H985.529C990.329 673.784 992.729 675.896 992.729 679.928C992.729 682.424 991.721 684.584 989.705 686.408C987.689 688.136 985.289 689 982.505 689H980.777H960.905C957.353 689 954.521 688.76 952.409 688.28C950.297 687.704 948.281 686.744 946.361 685.4C940.889 681.272 938.153 675.224 938.153 667.256C938.153 662.744 938.969 658.52 940.601 654.584C942.329 650.552 944.585 647.048 947.369 644.072C950.249 641 953.561 638.6 957.305 636.872C961.145 635.144 965.177 634.28 969.401 634.28C975.449 634.28 980.297 635.912 983.945 639.176C987.689 642.344 989.561 646.568 989.561 651.848C989.561 655.208 988.697 658.232 986.969 660.92C985.337 663.512 983.081 665.432 980.201 666.68C979.433 667.064 978.665 667.352 977.897 667.544C977.225 667.736 976.457 667.928 975.593 668.12C974.825 668.216 973.913 668.312 972.857 668.408C971.801 668.408 970.553 668.408 969.113 668.408H955.001ZM958.313 655.592H966.089C968.681 655.592 970.553 655.352 971.705 654.872C972.857 654.296 973.433 653.48 973.433 652.424C973.433 651.368 972.953 650.456 971.993 649.688C971.129 648.92 970.025 648.536 968.681 648.536C964.265 648.536 960.809 650.888 958.313 655.592ZM1043.62 673.592H1051.4H1053.12C1057.92 673.784 1060.32 675.896 1060.32 679.928C1060.32 682.424 1059.32 684.584 1057.3 686.408C1055.28 688.136 1052.88 689 1050.1 689H1048.37H1039.3C1035.27 689 1032.58 687.416 1031.24 684.248L1029.94 685.4C1028.4 686.744 1026.96 687.704 1025.62 688.28C1024.37 688.76 1022.84 689 1021.01 689H1012.52C1007.52 689 1003.44 687.176 1000.28 683.528C997.205 679.784 995.669 674.888 995.669 668.84C995.669 664.424 996.533 660.152 998.261 656.024C999.989 651.8 1002.24 648.104 1005.03 644.936C1007.91 641.672 1011.17 639.08 1014.82 637.16C1018.47 635.24 1022.26 634.28 1026.2 634.28C1032.05 634.28 1036.42 636.344 1039.3 640.472C1040.55 638.552 1041.84 637.208 1043.19 636.44C1044.63 635.672 1046.36 635.288 1048.37 635.288C1050.39 635.288 1052.12 635.912 1053.56 637.16C1055 638.408 1055.72 639.944 1055.72 641.768C1055.72 642.824 1055.57 643.784 1055.28 644.648C1055.09 645.416 1054.61 646.76 1053.84 648.68L1043.62 673.592ZM1027.2 670.136L1032.53 657.176L1032.96 656.024C1033.35 655.256 1033.54 654.392 1033.54 653.432C1033.54 652.088 1032.92 650.936 1031.67 649.976C1030.42 648.92 1028.93 648.392 1027.2 648.392C1025.48 648.392 1023.7 648.968 1021.88 650.12C1020.15 651.176 1018.56 652.616 1017.12 654.44C1015.68 656.264 1014.48 658.28 1013.52 660.488C1012.66 662.696 1012.23 664.856 1012.23 666.968C1012.23 669.176 1012.76 670.904 1013.81 672.152C1014.87 673.4 1016.31 674.024 1018.13 674.024H1020.87C1021.92 674.024 1023.12 673.592 1024.47 672.728C1025.91 671.864 1026.82 671 1027.2 670.136ZM1116.31 673.592H1124.81H1126.54C1131.34 673.784 1133.74 675.896 1133.74 679.928C1133.74 682.424 1132.73 684.584 1130.71 686.408C1128.7 688.136 1126.3 689 1123.51 689H1121.78H1107.24C1104.36 689 1101.91 688.136 1099.9 686.408C1097.98 684.68 1097.02 682.568 1097.02 680.072C1097.02 679.016 1097.16 678.008 1097.45 677.048C1097.74 676.088 1098.26 674.6 1099.03 672.584L1105.22 657.32C1105.9 655.688 1106.23 654.392 1106.23 653.432C1106.23 652.28 1105.75 651.32 1104.79 650.552C1103.83 649.784 1102.63 649.4 1101.19 649.4C1098.31 649.4 1095.67 650.936 1093.27 654.008C1091.64 656.12 1090.39 658.232 1089.53 660.344L1081.32 680.648L1080.46 682.52C1078.25 687.8 1074.79 690.44 1070.09 690.44C1068.07 690.44 1066.34 689.816 1064.9 688.568C1063.56 687.32 1062.89 685.736 1062.89 683.816C1062.89 682.28 1063.27 680.648 1064.04 678.92L1064.76 677.048L1079.02 642.056C1080.74 637.448 1083.86 635.144 1088.38 635.144C1091.93 635.144 1094.47 636.776 1096.01 640.04C1098.89 637.832 1101.34 636.344 1103.35 635.576C1105.46 634.712 1107.77 634.28 1110.26 634.28C1114.78 634.28 1118.42 635.528 1121.21 638.024C1124.09 640.52 1125.53 643.736 1125.53 647.672C1125.53 648.728 1125.38 649.88 1125.1 651.128C1124.9 652.28 1124.57 653.48 1124.09 654.728L1116.31 673.592ZM1153.42 668.408C1153.42 671.864 1156.06 673.592 1161.34 673.592H1182.22H1183.95C1188.75 673.784 1191.15 675.896 1191.15 679.928C1191.15 682.424 1190.14 684.584 1188.13 686.408C1186.11 688.136 1183.71 689 1180.93 689H1179.2H1159.33C1155.78 689 1152.94 688.76 1150.83 688.28C1148.72 687.704 1146.7 686.744 1144.78 685.4C1139.31 681.272 1136.58 675.224 1136.58 667.256C1136.58 662.744 1137.39 658.52 1139.02 654.584C1140.75 650.552 1143.01 647.048 1145.79 644.072C1148.67 641 1151.98 638.6 1155.73 636.872C1159.57 635.144 1163.6 634.28 1167.82 634.28C1173.87 634.28 1178.72 635.912 1182.37 639.176C1186.11 642.344 1187.98 646.568 1187.98 651.848C1187.98 655.208 1187.12 658.232 1185.39 660.92C1183.76 663.512 1181.5 665.432 1178.62 666.68C1177.86 667.064 1177.09 667.352 1176.32 667.544C1175.65 667.736 1174.88 667.928 1174.02 668.12C1173.25 668.216 1172.34 668.312 1171.28 668.408C1170.22 668.408 1168.98 668.408 1167.54 668.408H1153.42ZM1156.74 655.592H1164.51C1167.1 655.592 1168.98 655.352 1170.13 654.872C1171.28 654.296 1171.86 653.48 1171.86 652.424C1171.86 651.368 1171.38 650.456 1170.42 649.688C1169.55 648.92 1168.45 648.536 1167.1 648.536C1162.69 648.536 1159.23 650.888 1156.74 655.592ZM1211.8 650.696L1209.5 656.456C1208.35 659.336 1207.1 661.4 1205.75 662.648C1204.41 663.8 1202.78 664.376 1200.86 664.376C1198.94 664.376 1197.26 663.752 1195.82 662.504C1194.38 661.256 1193.66 659.72 1193.66 657.896C1193.66 657.128 1193.75 656.408 1193.95 655.736C1194.14 655.064 1194.57 653.912 1195.24 652.28L1203.16 632.696C1204.22 630.104 1205.32 628.28 1206.47 627.224C1207.72 626.168 1209.31 625.64 1211.23 625.64C1214.78 625.64 1216.94 627.272 1217.71 630.536L1218.28 632.696C1218.57 633.848 1218.95 634.568 1219.43 634.856C1220.01 635.144 1221.4 635.288 1223.61 635.288H1240.17H1241.9C1246.89 635.288 1249.39 637.448 1249.39 641.768C1249.39 643.304 1248.86 644.888 1247.8 646.52C1246.84 648.056 1245.69 649.112 1244.35 649.688C1243.67 650.072 1242.91 650.312 1242.04 650.408C1241.18 650.504 1239.74 650.6 1237.72 650.696L1236.86 651.272C1235.8 652.328 1234.89 653.24 1234.12 654.008C1233.45 654.68 1232.83 655.352 1232.25 656.024C1231.67 656.6 1231.15 657.224 1230.67 657.896C1230.28 658.472 1229.8 659.144 1229.23 659.912C1227.88 661.832 1226.97 663.368 1226.49 664.52C1226.01 665.576 1225.77 666.632 1225.77 667.688C1225.77 671.624 1227.93 673.592 1232.25 673.592H1241.03H1242.76C1247.56 673.784 1249.96 675.896 1249.96 679.928C1249.96 682.424 1248.95 684.584 1246.94 686.408C1245.02 688.136 1242.67 689 1239.88 689H1238.15H1224.33C1223.85 689 1223.13 688.904 1222.17 688.712C1221.21 688.52 1220.15 688.28 1219 687.992C1215.83 687.128 1213.24 685.208 1211.23 682.232C1209.31 679.16 1208.35 675.608 1208.35 671.576C1208.35 668.312 1209.16 665.144 1210.79 662.072C1212.43 658.904 1215.21 655.112 1219.15 650.696H1211.8ZM1277.77 654.44L1276.33 657.608C1274.41 662.216 1271.53 664.52 1267.69 664.52C1265.77 664.52 1264.05 663.848 1262.51 662.504C1260.97 661.16 1260.21 659.672 1260.21 658.04C1260.21 656.312 1260.88 654.104 1262.22 651.416L1271.58 632.408C1273.79 627.992 1276.62 625.784 1280.08 625.784C1281.9 625.784 1283.49 626.36 1284.83 627.512C1286.17 628.568 1286.85 629.912 1286.85 631.544C1286.85 632.216 1286.7 633.176 1286.41 634.424C1286.32 634.904 1286.22 635.384 1286.13 635.864C1286.13 636.344 1286.13 636.824 1286.13 637.304C1286.13 640.184 1287.23 643.16 1289.44 646.232L1293.47 651.848C1297.5 657.608 1299.52 662.936 1299.52 667.832C1299.52 671.384 1298.61 674.792 1296.78 678.056C1295.05 681.224 1292.65 683.768 1289.58 685.688C1288.62 686.264 1287.61 686.744 1286.56 687.128C1285.5 687.416 1283.92 687.8 1281.81 688.28C1280.75 688.568 1279.84 688.76 1279.07 688.856C1278.4 688.952 1277.87 689 1277.49 689H1261.79H1260.06C1255.26 688.808 1252.86 686.696 1252.86 682.664C1252.86 680.168 1253.87 678.056 1255.89 676.328C1257.9 674.504 1260.3 673.592 1263.09 673.592H1264.67H1272.88C1279.41 673.592 1282.67 671.192 1282.67 666.392C1282.67 665.432 1282.53 664.568 1282.24 663.8C1282.05 662.936 1281.61 661.832 1280.94 660.488L1277.77 654.44Z" fill="white"/>
<path d="M95 648H324V675H95V648Z" fill="white"/>
<path d="M0 677L7.5 660L48.5 626.5L84 604.5L136.5 581L146 588.5L162 588L165 585.5L167 583.5L171 577.5V567.5L177.5 563.5L197 555.5L285.5 520L442 458.5L499 432.5L542.5 414L577.5 395L615 366.5L680.5 305L730.5 246L753 215L792 203.5L815 199H854V333.5L840.5 342.5L828 350.5L801.5 357.5L658.5 415L581 449L455.5 505L306.5 577L182.5 638.5L87.5 687L0 689V677Z" fill="white"/>
<path d="M866 176L868.5 142L877.5 133L895.5 124L912 114L923.5 103L932.5 90L935.5 80.5V51L928.5 34L919 21L908 12.5L898.5 6.5L886 2L869 0H845.5L826.5 5L812 13.5L799 25L785 43.5L780 51V58.5L785 63H792L795.5 61.5L797.5 58L803.5 48L812 34.5L825.5 23.5L838.5 17L859.5 14.5L879 16L895.5 23L909.5 34L917 48L919 68.5L917.5 79.5L909.5 91.5L896.5 103L877.5 114L857 125.5L850 135L844 148V176L840.5 199H869.5L866 176Z" fill="white"/>
<path d="M1597 648H1368V675H1597V648Z" fill="white"/>
<path d="M1692 677L1684.5 660L1643.5 626.5L1608 604.5L1555.5 581L1546 588.5L1530 588L1527 585.5L1525 583.5L1521 577.5V567.5L1514.5 563.5L1495 555.5L1406.5 520L1250 458.5L1193 432.5L1149.5 414L1114.5 395L1077 366.5L1011.5 305L961.5 246L939 215L900 203.5L877 199H838V333.5L851.5 342.5L864 350.5L890.5 357.5L1033.5 415L1111 449L1236.5 505L1385.5 577L1509.5 638.5L1604.5 687L1692 689V677Z" fill="white"/>
</svg>
