<svg width="12" height="16" viewBox="0 0 12 16" fill="none" xmlns="http://www.w3.org/2000/svg">
<path fill-rule="evenodd" clip-rule="evenodd" d="M3.33333 6.66663C3.33333 8.13729 4.52933 9.33329 6 9.33329C7.47067 9.33329 8.66667 8.13729 8.66667 6.66663C8.66667 5.19596 7.47067 3.99996 6 3.99996C4.52933 3.99996 3.33333 5.19596 3.33333 6.66663ZM4.66667 6.66663C4.66667 5.93129 5.26467 5.33329 6 5.33329C6.73533 5.33329 7.33333 5.93129 7.33333 6.66663C7.33333 7.40196 6.73533 7.99996 6 7.99996C5.26467 7.99996 4.66667 7.40196 4.66667 6.66663Z" fill="black"/>
<path fill-rule="evenodd" clip-rule="evenodd" d="M5.6 15.2C5.71867 15.2893 5.85933 15.3333 6 15.3333C6.14067 15.3333 6.28133 15.2893 6.4 15.2C6.62867 15.0286 12 10.9506 12 6.66663C12 3.35863 9.30867 0.666626 6 0.666626C2.692 0.666626 0 3.35863 0 6.66663C0 10.9506 5.37133 15.0286 5.6 15.2ZM1.33333 6.66663C1.33333 4.09329 3.42667 1.99996 6 1.99996C8.57267 1.99996 10.6667 4.09329 10.6667 6.66663C10.6667 9.67463 7.19733 12.8173 6 13.8126C4.80267 12.8173 1.33333 9.67463 1.33333 6.66663Z" fill="black"/>
</svg>
