<svg width="179" height="226" viewBox="0 0 179 226" fill="none" xmlns="http://www.w3.org/2000/svg">
<circle cx="90.113" cy="75.4007" r="74.7877" fill="#E0E6EC" stroke="black" stroke-width="1.22603"/>
<circle cx="89.5" cy="76.0137" r="69.8836" fill="black"/>
<g clip-path="url(#clip0_40_106)">
<path fill-rule="evenodd" clip-rule="evenodd" d="M89.7427 31.8767H80.9621L84.9134 37.6207L87.1084 46.8995L83.5963 74.7359L80.0839 97.2701L90.1819 96.828L99.8407 97.2701L96.3283 74.7359L92.8158 46.8995L95.0112 37.6207L98.9625 31.8767H90.1819H89.7427Z" fill="white"/>
<mask id="mask0_40_106" style="mask-type:luminance" maskUnits="userSpaceOnUse" x="80" y="31" width="20" height="67">
<path fill-rule="evenodd" clip-rule="evenodd" d="M89.7427 31.8767H80.9621L84.9134 37.6207L87.1084 46.8995L83.5963 74.7359L80.0839 97.2701L90.1819 96.828L99.8407 97.2701L96.3283 74.7359L92.8158 46.8995L95.0112 37.6207L98.9625 31.8767H90.1819H89.7427Z" fill="white"/>
</mask>
<g mask="url(#mask0_40_106)">
<path d="M80.9621 31.8766V31.5315H80.3075L80.6799 32.073L80.9621 31.8766ZM84.9135 37.6206L85.2468 37.5407L85.232 37.4775L85.1953 37.4242L84.9135 37.6206ZM87.1085 46.8994L87.4486 46.9429L87.4565 46.8805L87.4421 46.8195L87.1085 46.8994ZM83.5964 74.7358L83.9348 74.7892L83.9358 74.7841L83.9365 74.7792L83.5964 74.7358ZM80.0839 97.27L79.7451 97.2165L79.6803 97.6331L80.0987 97.6148L80.0839 97.27ZM90.182 96.8279L90.1974 96.4832L90.1823 96.4825L90.1669 96.4832L90.182 96.8279ZM99.8408 97.27L99.825 97.6148L100.244 97.6338L100.18 97.2165L99.8408 97.27ZM96.3283 74.7358L95.9882 74.7792L95.9888 74.7841L95.9895 74.7892L96.3283 74.7358ZM92.8159 46.8994L92.4826 46.8195L92.4682 46.8805L92.4757 46.9429L92.8159 46.8994ZM95.0112 37.6206L94.7293 37.4242L94.6926 37.4775L94.6776 37.5407L95.0112 37.6206ZM98.9626 31.8766L99.2444 32.073L99.6172 31.5315H98.9626V31.8766ZM80.9621 32.2217H89.7427V31.5315H80.9621V32.2217ZM85.1953 37.4242L81.244 31.6802L80.6799 32.073L84.6313 37.817L85.1953 37.4242ZM87.4421 46.8195L85.2468 37.5407L84.5798 37.7005L86.7748 46.9793L87.4421 46.8195ZM83.9365 74.7792L87.4486 46.9429L86.7683 46.8559L83.2562 74.6923L83.9365 74.7792ZM80.4227 97.3235L83.9348 74.7892L83.2576 74.6823L79.7451 97.2165L80.4227 97.3235ZM90.1669 96.4832L80.0692 96.9253L80.0987 97.6148L90.1967 97.1727L90.1669 96.4832ZM90.1662 97.1727L99.825 97.6148L99.8562 96.9253L90.1974 96.4832L90.1662 97.1727ZM100.18 97.2165L96.6671 74.6823L95.9895 74.7892L99.502 97.3235L100.18 97.2165ZM96.6685 74.6923L93.1564 46.8559L92.4757 46.9429L95.9882 74.7792L96.6685 74.6923ZM93.1495 46.9793L95.3449 37.7005L94.6776 37.5407L92.4826 46.8195L93.1495 46.9793ZM95.2931 37.817L99.2444 32.073L98.6807 31.6802L94.7293 37.4242L95.2931 37.817ZM98.9626 31.5315H90.182V32.2217H98.9626V31.5315ZM90.182 31.5315H89.7427V32.2217H90.182V31.5315Z" fill="black"/>
</g>
<path d="M55.2277 42.2308C55.2349 42.1711 55.2726 42.1195 55.3269 42.0946L76.0439 32.6177C76.1507 32.5688 76.2737 32.64 76.2854 32.7576L76.8942 38.8843C76.8971 38.9137 76.9075 38.9419 76.9244 38.9661L81.341 45.3159C81.3523 45.332 81.3605 45.35 81.3657 45.3689L86.4542 63.9325L89.6281 72.237C89.6357 72.2567 89.6395 72.2778 89.6395 72.2988V94.7057L88.096 124.033C88.0912 124.125 88.0161 124.197 87.9249 124.197H64.9664C64.8717 124.197 64.7949 124.12 64.7949 124.024V63.2914L58.4415 120.838C58.4318 120.925 58.3585 120.991 58.2711 120.991H45.8774C45.7745 120.991 45.6948 120.901 45.7072 120.798L55.2277 42.2308Z" fill="white"/>
<mask id="mask1_40_106" style="mask-type:luminance" maskUnits="userSpaceOnUse" x="45" y="31" width="46" height="94">
<path d="M90.2845 31.9116H45.0201V124.745H90.2845V31.9116Z" fill="white"/>
<path d="M55.2277 42.2308C55.2349 42.1711 55.2726 42.1195 55.3269 42.0946L76.0439 32.6177C76.1507 32.5688 76.2737 32.64 76.2854 32.7576L76.8942 38.8843C76.8971 38.9137 76.9075 38.9419 76.9244 38.9661L81.341 45.3159C81.3523 45.332 81.3605 45.35 81.3657 45.3689L86.4542 63.9325L89.6281 72.237C89.6357 72.2567 89.6395 72.2778 89.6395 72.2988V94.7057L88.096 124.033C88.0912 124.125 88.0161 124.197 87.9249 124.197H64.9664C64.8717 124.197 64.7949 124.12 64.7949 124.024V63.2914L58.4415 120.838C58.4318 120.925 58.3585 120.991 58.2711 120.991H45.8774C45.7745 120.991 45.6948 120.901 45.7072 120.798L55.2277 42.2308Z" fill="black"/>
</mask>
<g mask="url(#mask1_40_106)">
<path d="M64.795 63.2913H65.1379L64.4542 63.2532L64.795 63.2913ZM86.4542 63.9324L86.1236 64.0242L86.1281 64.0405L86.1343 64.0563L86.4542 63.9324ZM89.6395 94.7057L89.9821 94.724L89.9824 94.715V94.7057H89.6395ZM64.4542 63.2532L58.1008 120.8L58.7824 120.876L65.1358 63.3294L64.4542 63.2532ZM58.2711 120.646H45.8775V121.336H58.2711V120.646ZM46.0477 120.84L55.5682 42.2726L54.8874 42.189L45.3669 120.756L46.0477 120.84ZM55.4689 42.4088L76.1858 32.9318L75.902 32.3034L55.1851 41.7804L55.4689 42.4088ZM75.9443 32.7919L76.553 38.9186L77.2355 38.8499L76.6267 32.7232L75.9443 32.7919ZM76.6435 39.1639L81.0602 45.5137L81.6219 45.1179L77.2053 38.7681L76.6435 39.1639ZM81.0352 45.4607L86.1236 64.0242L86.7848 63.8406L81.6963 45.2771L81.0352 45.4607ZM65.1379 124.024V63.2913H64.4521V124.024H65.1379ZM86.1343 64.0563L89.3079 72.3609L89.9481 72.1131L86.7745 63.8086L86.1343 64.0563ZM87.925 123.852H64.9665V124.542H87.925V123.852ZM89.2966 72.2988V94.7057H89.9824V72.2988H89.2966ZM89.297 94.6874L87.7535 124.015L88.4386 124.052L89.9821 94.724L89.297 94.6874ZM87.925 124.542C88.1983 124.542 88.4239 124.327 88.4386 124.052L87.7535 124.015C87.7583 123.924 87.8337 123.852 87.925 123.852V124.542ZM89.3079 72.3609C89.3004 72.3412 89.2966 72.3202 89.2966 72.2988H89.9824C89.9824 72.2353 89.9708 72.1725 89.9481 72.1131L89.3079 72.3609ZM64.4521 124.024C64.4521 124.31 64.6824 124.542 64.9665 124.542V123.852C65.0611 123.852 65.1379 123.929 65.1379 124.024H64.4521ZM81.0602 45.5137C81.0489 45.4976 81.0407 45.4797 81.0352 45.4607L81.6963 45.2771C81.6809 45.2202 81.6555 45.1663 81.6219 45.1179L81.0602 45.5137ZM76.1858 32.9318C76.0789 32.9807 75.956 32.9094 75.9443 32.7919L76.6267 32.7232C76.5917 32.3705 76.2227 32.1567 75.902 32.3034L76.1858 32.9318ZM45.8775 120.646C45.9804 120.646 46.0601 120.737 46.0477 120.84L45.3669 120.756C45.3295 121.064 45.5687 121.336 45.8775 121.336V120.646ZM58.1008 120.8C58.1104 120.712 58.1838 120.646 58.2711 120.646V121.336C58.5332 121.336 58.7534 121.138 58.7824 120.876L58.1008 120.8ZM76.553 38.9186C76.5618 39.0068 76.593 39.0913 76.6435 39.1639L77.2053 38.7681C77.2222 38.7923 77.2326 38.8205 77.2355 38.8499L76.553 38.9186ZM55.5682 42.2726C55.5609 42.3322 55.5233 42.3839 55.4689 42.4088L55.1851 41.7804C55.0219 41.8551 54.9091 42.0099 54.8874 42.189L55.5682 42.2726Z" fill="black"/>
</g>
<path d="M124.688 42.5597C124.681 42.5 124.643 42.4484 124.589 42.4235L103.872 32.9465C103.765 32.8976 103.642 32.9689 103.631 33.0864L103.022 39.2132C103.019 39.2426 103.009 39.2707 102.991 39.295L98.5751 45.6448C98.5638 45.6609 98.5552 45.6788 98.55 45.6978L93.4616 64.2613L90.2879 72.5659C90.2804 72.5856 90.2766 72.6067 90.2766 72.6277V95.0346L91.8201 124.362C91.8249 124.454 91.9 124.526 91.9912 124.526H114.949C115.044 124.526 115.121 124.449 115.121 124.353V63.6202L121.474 121.167C121.484 121.254 121.557 121.32 121.645 121.32H134.039C134.142 121.32 134.221 121.23 134.209 121.127L124.688 42.5597Z" fill="white"/>
<mask id="mask2_40_106" style="mask-type:luminance" maskUnits="userSpaceOnUse" x="89" y="32" width="46" height="94">
<path d="M134.896 32.2407H89.6316V125.074H134.896V32.2407Z" fill="white"/>
<path d="M124.688 42.5597C124.681 42.5 124.643 42.4484 124.589 42.4235L103.872 32.9465C103.765 32.8976 103.642 32.9689 103.631 33.0864L103.022 39.2132C103.019 39.2426 103.009 39.2707 102.991 39.295L98.5751 45.6448C98.5638 45.6609 98.5552 45.6788 98.55 45.6978L93.4616 64.2613L90.2879 72.5659C90.2804 72.5856 90.2766 72.6067 90.2766 72.6277V95.0346L91.8201 124.362C91.8249 124.454 91.9 124.526 91.9912 124.526H114.949C115.044 124.526 115.121 124.449 115.121 124.353V63.6202L121.474 121.167C121.484 121.254 121.557 121.32 121.645 121.32H134.039C134.142 121.32 134.221 121.23 134.209 121.127L124.688 42.5597Z" fill="black"/>
</mask>
<g mask="url(#mask2_40_106)">
<path d="M115.121 63.6202H114.778L115.462 63.5821L115.121 63.6202ZM93.4616 64.2613L93.7922 64.3531L93.7877 64.3694L93.7819 64.3852L93.4616 64.2613ZM90.2766 95.0346L89.9341 95.0529L89.9337 95.0439V95.0346H90.2766ZM115.462 63.5821L121.815 121.129L121.134 121.205L114.78 63.6583L115.462 63.5821ZM121.645 120.975H134.039V121.665H121.645V120.975ZM133.868 121.169L124.348 42.6014L125.029 42.5179L134.549 121.085L133.868 121.169ZM124.447 42.7376L103.73 33.2606L104.014 32.6323L124.731 42.1093L124.447 42.7376ZM103.972 33.1207L103.363 39.2474L102.68 39.1788L103.289 33.052L103.972 33.1207ZM103.273 39.4928L98.8559 45.8426L98.2939 45.4468L102.711 39.097L103.273 39.4928ZM98.8806 45.7895L93.7922 64.3531L93.131 64.1695L98.2195 45.606L98.8806 45.7895ZM114.778 124.353V63.6202H115.464V124.353H114.778ZM93.7819 64.3852L90.6079 72.6898L89.968 72.442L93.1417 64.1374L93.7819 64.3852ZM91.9912 124.181H114.949V124.871H91.9912V124.181ZM90.6195 72.6277V95.0346H89.9337V72.6277H90.6195ZM90.6189 95.0163L92.1623 124.344L91.4775 124.38L89.9341 95.0529L90.6189 95.0163ZM91.9912 124.871C91.7175 124.871 91.4919 124.656 91.4775 124.38L92.1623 124.344C92.1575 124.252 92.0824 124.181 91.9912 124.181V124.871ZM90.6079 72.6898C90.6154 72.6701 90.6195 72.6491 90.6195 72.6277H89.9337C89.9337 72.5642 89.9454 72.5014 89.968 72.442L90.6079 72.6898ZM115.464 124.353C115.464 124.639 115.234 124.871 114.949 124.871V124.181C114.855 124.181 114.778 124.258 114.778 124.353H115.464ZM98.8559 45.8426C98.8673 45.8265 98.8755 45.8085 98.8806 45.7895L98.2195 45.606C98.2353 45.549 98.2603 45.4952 98.2939 45.4468L98.8559 45.8426ZM103.73 33.2606C103.837 33.3095 103.96 33.2383 103.972 33.1207L103.289 33.052C103.324 32.6993 103.693 32.4856 104.014 32.6323L103.73 33.2606ZM134.039 120.975C133.935 120.975 133.856 121.066 133.868 121.169L134.549 121.085C134.586 121.393 134.347 121.665 134.039 121.665V120.975ZM121.815 121.129C121.806 121.041 121.732 120.975 121.645 120.975V121.665C121.383 121.665 121.163 121.467 121.134 121.205L121.815 121.129ZM103.363 39.2474C103.354 39.3357 103.323 39.4202 103.273 39.4928L102.711 39.097C102.694 39.1212 102.684 39.1494 102.68 39.1788L103.363 39.2474ZM124.348 42.6014C124.355 42.6611 124.393 42.7127 124.447 42.7376L124.731 42.1093C124.894 42.1839 125.007 42.3387 125.029 42.5179L124.348 42.6014Z" fill="black"/>
</g>
<path fill-rule="evenodd" clip-rule="evenodd" d="M104.828 60.7085C104.762 60.6144 104.625 60.6103 104.554 60.7003L101.965 63.9711H106.772H106.779H110.538L108.674 61.3963C108.607 61.3033 108.469 61.3014 108.399 61.3925L106.782 63.5032L104.828 60.7085Z" fill="#D9D9D9"/>
<mask id="mask3_40_106" style="mask-type:luminance" maskUnits="userSpaceOnUse" x="101" y="60" width="10" height="5">
<path d="M110.881 60.2903H101.279V64.4315H110.881V60.2903Z" fill="white"/>
<path fill-rule="evenodd" clip-rule="evenodd" d="M104.828 60.7085C104.762 60.6144 104.625 60.6103 104.554 60.7003L101.965 63.9711H106.772H106.779H110.538L108.674 61.3963C108.607 61.3033 108.469 61.3014 108.399 61.3925L106.782 63.5032L104.828 60.7085Z" fill="black"/>
</mask>
<g mask="url(#mask3_40_106)">
<path d="M101.965 63.9713L101.831 63.8638L101.609 64.1439H101.965V63.9713ZM110.538 63.9713V64.1439H110.875L110.676 63.8697L110.538 63.9713ZM106.782 63.5033L106.641 63.6026L106.775 63.7941L106.917 63.6087L106.782 63.5033ZM104.688 60.808L104.968 60.6094C104.837 60.4211 104.562 60.4129 104.42 60.593L104.688 60.808ZM102.099 64.0788L104.688 60.808L104.42 60.593L101.831 63.8638L102.099 64.0788ZM106.772 63.7988H101.965V64.1439H106.772V63.7988ZM106.779 63.7988H106.772V64.1439H106.779V63.7988ZM110.538 63.7988H106.779V64.1439H110.538V63.7988ZM108.535 61.4981L110.399 64.0729L110.676 63.8697L108.812 61.2949L108.535 61.4981ZM108.535 61.4981L108.812 61.2949C108.678 61.1089 108.403 61.1051 108.264 61.2873L108.535 61.4981ZM106.917 63.6087L108.535 61.4981L108.264 61.2873L106.646 63.3979L106.917 63.6087ZM104.688 60.808L106.641 63.6026L106.922 63.4041L104.968 60.6094L104.688 60.808Z" fill="black"/>
</g>
<mask id="mask4_40_106" style="mask-type:luminance" maskUnits="userSpaceOnUse" x="101" y="63" width="10" height="8">
<path d="M110.812 63.9714H101.691C101.653 63.9714 101.622 64.0023 101.622 64.0405V70.4594C101.622 70.4975 101.653 70.5284 101.691 70.5284H110.812C110.85 70.5284 110.881 70.4975 110.881 70.4594V64.0405C110.881 64.0023 110.85 63.9714 110.812 63.9714Z" fill="white"/>
</mask>
<g mask="url(#mask4_40_106)">
<path d="M110.812 63.9714H101.691C101.653 63.9714 101.622 64.0023 101.622 64.0405V70.4594C101.622 70.4975 101.653 70.5284 101.691 70.5284H110.812C110.85 70.5284 110.881 70.4975 110.881 70.4594V64.0405C110.881 64.0023 110.85 63.9714 110.812 63.9714Z" fill="white" stroke="black" stroke-width="0.613014"/>
</g>
</g>
<line opacity="0.1" y1="166.127" x2="179" y2="166.127" stroke="#1F2937" stroke-width="1.22603"/>
<path d="M38.6844 185.027L31.0508 203.862C30.6894 204.766 30.313 205.684 29.9215 206.618C29.5301 207.551 29.2139 208.289 28.973 208.831C27.3469 212.685 25.4347 215.516 23.2365 217.323C21.0683 219.13 18.4786 220.033 15.4673 220.033C13.8713 220.033 12.4259 219.777 11.1311 219.265C9.8362 218.783 8.72202 218.076 7.78852 217.142C6.88513 216.239 6.17748 215.14 5.66556 213.845C5.15364 212.58 4.89768 211.165 4.89768 209.599C4.89768 207.37 5.36443 205.263 6.29793 203.275C7.26154 201.258 8.54134 199.496 10.1373 197.99C11.7634 196.485 13.6455 195.295 15.7835 194.422C17.9215 193.549 20.18 193.112 22.5589 193.112C23.8839 193.112 24.9077 193.353 25.6304 193.835C26.3532 194.317 26.7145 194.994 26.7145 195.867C26.7145 196.861 26.3532 197.584 25.6304 198.035C24.9378 198.487 23.7032 198.758 21.9266 198.849C20.3908 198.939 18.9604 199.27 17.6355 199.842C16.3406 200.414 15.2114 201.167 14.2477 202.101C13.2841 203.004 12.5163 204.058 11.9441 205.263C11.4021 206.467 11.1311 207.747 11.1311 209.102C11.1311 210.668 11.5526 211.902 12.3958 212.806C13.2691 213.739 14.4585 214.206 15.9642 214.206C17.5903 214.206 19.0959 213.453 20.4811 211.948C20.9027 211.526 21.3092 210.984 21.7007 210.322C22.0922 209.689 22.5439 208.861 23.0558 207.837C23.387 207.235 23.7032 206.603 24.0043 205.94C24.3055 205.248 24.5915 204.555 24.8626 203.862L32.4962 185.027H28.2051H27.6179C25.9617 184.966 25.1336 184.244 25.1336 182.859C25.1336 181.985 25.4799 181.248 26.1725 180.645C26.8651 180.043 27.6932 179.742 28.6568 179.742H29.244H43.6982H44.2854C45.9416 179.802 46.7697 180.525 46.7697 181.91C46.7697 182.783 46.4234 183.521 45.7308 184.123C45.0684 184.726 44.2553 185.027 43.2917 185.027H42.7045H38.6844ZM52.478 205.037H54.9172H55.4592C56.9649 205.097 57.7177 205.759 57.7177 207.024C57.7177 207.807 57.4015 208.485 56.7691 209.057C56.1367 209.599 55.3839 209.87 54.5106 209.87H53.9686H51.1229C49.8582 209.87 49.015 209.373 48.5935 208.379L48.1869 208.741C47.7051 209.162 47.2534 209.463 46.8318 209.644C46.4404 209.795 45.9586 209.87 45.3864 209.87H42.7214C41.1556 209.87 39.8758 209.298 38.882 208.153C37.9184 206.979 37.4366 205.443 37.4366 203.546C37.4366 202.161 37.7076 200.821 38.2497 199.526C38.7917 198.201 39.4993 197.042 40.3726 196.048C41.276 195.024 42.2998 194.211 43.4441 193.609C44.5884 193.007 45.7779 192.705 47.0125 192.705C48.8494 192.705 50.2196 193.353 51.1229 194.648C51.5144 194.046 51.9209 193.624 52.3425 193.383C52.7942 193.142 53.3362 193.022 53.9686 193.022C54.601 193.022 55.143 193.217 55.5947 193.609C56.0464 194 56.2723 194.482 56.2723 195.054C56.2723 195.386 56.2271 195.687 56.1367 195.958C56.0765 196.199 55.926 196.62 55.6851 197.222L52.478 205.037ZM47.3287 203.953L49 199.887L49.1355 199.526C49.2559 199.285 49.3162 199.014 49.3162 198.713C49.3162 198.291 49.1204 197.93 48.729 197.629C48.3375 197.298 47.8707 197.132 47.3287 197.132C46.7867 197.132 46.2296 197.313 45.6574 197.674C45.1154 198.005 44.6185 198.457 44.1668 199.029C43.7152 199.601 43.3387 200.234 43.0376 200.926C42.7666 201.619 42.6311 202.296 42.6311 202.959C42.6311 203.652 42.7967 204.194 43.128 204.585C43.4592 204.977 43.9109 205.172 44.483 205.172H45.3413C45.6725 205.172 46.0489 205.037 46.4705 204.766C46.9222 204.495 47.2083 204.224 47.3287 203.953ZM64.6646 205.037H67.1489H67.6909C69.1966 205.097 69.9494 205.759 69.9494 207.024C69.9494 207.807 69.6332 208.485 69.0009 209.057C68.3685 209.599 67.6157 209.87 66.7424 209.87H66.2004H62.7223C61.3672 209.87 60.3283 209.614 59.6056 209.102C58.8829 208.59 58.5216 207.852 58.5216 206.889C58.5216 206.588 58.5517 206.332 58.6119 206.121C58.6721 205.88 58.7926 205.519 58.9732 205.037L62.632 196.093L62.8578 195.506C63.5504 193.85 64.6495 193.022 66.1552 193.022C66.7876 193.022 67.3145 193.232 67.7361 193.654C68.1878 194.046 68.4137 194.542 68.4137 195.145C68.4137 195.596 68.2932 196.093 68.0523 196.635L67.8265 197.268L64.6646 205.037ZM67.6006 192.073C66.7574 192.073 66.0347 191.772 65.4325 191.17C64.8302 190.567 64.5291 189.845 64.5291 189.002C64.5291 188.158 64.8152 187.436 65.3873 186.833C65.9896 186.231 66.7123 185.93 67.5554 185.93C68.4287 185.93 69.1665 186.231 69.7687 186.833C70.371 187.436 70.6721 188.173 70.6721 189.047C70.6721 189.89 70.371 190.613 69.7687 191.215C69.1966 191.787 68.4739 192.073 67.6006 192.073ZM76.9715 205.037H79.2751H79.8172C81.3228 205.097 82.0756 205.759 82.0756 207.024C82.0756 207.807 81.7595 208.485 81.1271 209.057C80.4947 209.599 79.7419 209.87 78.8686 209.87H78.3266H74.3968C73.3429 209.87 72.4847 209.629 71.8222 209.147C71.1597 208.635 70.8285 207.973 70.8285 207.16C70.8285 206.859 70.8887 206.497 71.0091 206.076C71.1296 205.654 71.2952 205.202 71.506 204.721L80.4044 182.813L80.6302 182.226C81.3228 180.57 82.4069 179.742 83.8824 179.742C84.4847 179.742 84.9966 179.953 85.4182 180.374C85.8699 180.766 86.0957 181.248 86.0957 181.82C86.0957 182.271 85.9903 182.783 85.7795 183.355L85.5085 183.943L76.9715 205.037ZM90.812 209.87C89.4871 209.87 88.5084 209.81 87.876 209.689C87.2738 209.569 86.7167 209.343 86.2048 209.012C85.2713 208.379 84.5335 207.536 83.9915 206.482C83.4795 205.398 83.2236 204.224 83.2236 202.959C83.2236 201.604 83.4946 200.309 84.0366 199.074C84.5787 197.81 85.3164 196.711 86.2499 195.777C87.1834 194.844 88.2524 194.106 89.457 193.564C90.6615 192.992 91.9413 192.705 93.2964 192.705C94.3804 192.705 95.3742 192.886 96.2775 193.248C97.211 193.609 98.009 194.106 98.6715 194.738C99.334 195.37 99.8459 196.123 100.207 196.997C100.569 197.87 100.749 198.833 100.749 199.887C100.749 200.761 100.629 201.634 100.388 202.507C100.177 203.381 99.861 204.209 99.4394 204.992C99.0479 205.775 98.5661 206.497 97.994 207.16C97.4519 207.822 96.8497 208.364 96.1872 208.786C95.5247 209.207 94.802 209.493 94.0191 209.644C93.2662 209.795 92.1972 209.87 90.812 209.87ZM95.5097 200.113C95.5097 199.33 95.2688 198.683 94.787 198.171C94.3051 197.659 93.6878 197.403 92.935 197.403C92.3629 197.403 91.8058 197.554 91.2637 197.855C90.7518 198.126 90.2851 198.502 89.8635 198.984C89.472 199.466 89.1558 200.023 88.9149 200.655C88.674 201.288 88.5536 201.935 88.5536 202.598C88.5536 204.254 89.4871 205.082 91.3541 205.082C91.8961 205.082 92.3177 205.052 92.6188 204.992C92.9199 204.931 93.206 204.781 93.477 204.54C94.0492 204.118 94.531 203.486 94.9225 202.643C95.3139 201.769 95.5097 200.926 95.5097 200.113ZM108.056 197.855L107.333 199.662C106.972 200.565 106.58 201.212 106.159 201.604C105.737 201.965 105.225 202.146 104.623 202.146C104.021 202.146 103.494 201.95 103.042 201.559C102.59 201.167 102.364 200.685 102.364 200.113C102.364 199.872 102.395 199.647 102.455 199.436C102.515 199.225 102.651 198.864 102.861 198.352L105.346 192.209C105.677 191.396 106.023 190.823 106.385 190.492C106.776 190.161 107.273 189.995 107.875 189.995C108.989 189.995 109.667 190.507 109.908 191.531L110.088 192.209C110.179 192.57 110.299 192.796 110.45 192.886C110.63 192.977 111.067 193.022 111.76 193.022H116.954H117.496C119.062 193.022 119.845 193.699 119.845 195.054C119.845 195.536 119.679 196.033 119.348 196.545C119.047 197.027 118.686 197.358 118.264 197.539C118.053 197.659 117.812 197.734 117.541 197.764C117.27 197.795 116.819 197.825 116.186 197.855L115.915 198.035C115.584 198.367 115.298 198.653 115.057 198.894C114.846 199.104 114.651 199.315 114.47 199.526C114.289 199.707 114.124 199.902 113.973 200.113C113.853 200.294 113.702 200.505 113.521 200.746C113.1 201.348 112.814 201.83 112.663 202.191C112.513 202.522 112.437 202.854 112.437 203.185C112.437 204.419 113.115 205.037 114.47 205.037H117.225H117.767C119.273 205.097 120.026 205.759 120.026 207.024C120.026 207.807 119.71 208.485 119.077 209.057C118.475 209.599 117.737 209.87 116.864 209.87H116.322H111.986C111.835 209.87 111.609 209.84 111.308 209.78C111.007 209.719 110.676 209.644 110.314 209.554C109.321 209.283 108.508 208.68 107.875 207.747C107.273 206.783 106.972 205.669 106.972 204.404C106.972 203.381 107.228 202.387 107.74 201.423C108.252 200.429 109.125 199.24 110.359 197.855H108.056ZM127.214 205.037H129.698H130.24C131.746 205.097 132.498 205.759 132.498 207.024C132.498 207.807 132.182 208.485 131.55 209.057C130.918 209.599 130.165 209.87 129.291 209.87H128.749H125.271C123.916 209.87 122.877 209.614 122.155 209.102C121.432 208.59 121.071 207.852 121.071 206.889C121.071 206.588 121.101 206.332 121.161 206.121C121.221 205.88 121.342 205.519 121.522 205.037L125.181 196.093L125.407 195.506C126.099 193.85 127.199 193.022 128.704 193.022C129.337 193.022 129.864 193.232 130.285 193.654C130.737 194.046 130.963 194.542 130.963 195.145C130.963 195.596 130.842 196.093 130.601 196.635L130.376 197.268L127.214 205.037ZM130.15 192.073C129.307 192.073 128.584 191.772 127.982 191.17C127.379 190.567 127.078 189.845 127.078 189.002C127.078 188.158 127.364 187.436 127.936 186.833C128.539 186.231 129.261 185.93 130.105 185.93C130.978 185.93 131.716 186.231 132.318 186.833C132.92 187.436 133.221 188.173 133.221 189.047C133.221 189.89 132.92 190.613 132.318 191.215C131.746 191.787 131.023 192.073 130.15 192.073ZM150.135 205.037H152.8H153.342C154.848 205.097 155.601 205.759 155.601 207.024C155.601 207.807 155.285 208.485 154.652 209.057C154.02 209.599 153.267 209.87 152.394 209.87H151.852H147.29C146.386 209.87 145.618 209.599 144.986 209.057C144.384 208.515 144.083 207.852 144.083 207.069C144.083 206.738 144.128 206.422 144.218 206.121C144.309 205.82 144.474 205.353 144.715 204.721L146.657 199.933C146.868 199.421 146.974 199.014 146.974 198.713C146.974 198.352 146.823 198.051 146.522 197.81C146.221 197.569 145.844 197.448 145.393 197.448C144.489 197.448 143.661 197.93 142.908 198.894C142.396 199.556 142.005 200.219 141.734 200.881L139.159 207.25L138.888 207.837C138.196 209.493 137.112 210.322 135.636 210.322C135.004 210.322 134.462 210.126 134.01 209.734C133.588 209.343 133.378 208.846 133.378 208.244C133.378 207.762 133.498 207.25 133.739 206.708L133.965 206.121L138.437 195.145C138.979 193.699 139.957 192.977 141.373 192.977C142.487 192.977 143.285 193.488 143.767 194.512C144.67 193.82 145.438 193.353 146.07 193.112C146.733 192.841 147.455 192.705 148.238 192.705C149.654 192.705 150.798 193.097 151.671 193.88C152.575 194.663 153.026 195.672 153.026 196.906C153.026 197.237 152.981 197.599 152.891 197.99C152.831 198.352 152.725 198.728 152.575 199.12L150.135 205.037ZM169.5 210.457H172.12H172.662C174.168 210.517 174.921 211.18 174.921 212.445C174.921 213.227 174.605 213.89 173.972 214.432C173.34 215.004 172.587 215.29 171.714 215.29H171.172H167.513L166.61 217.549C165.465 220.379 164.095 222.457 162.499 223.782C160.903 225.137 158.976 225.815 156.717 225.815C155.573 225.815 154.519 225.619 153.556 225.227C152.592 224.866 151.764 224.354 151.071 223.692C150.379 223.059 149.837 222.291 149.445 221.388C149.024 220.515 148.813 219.551 148.813 218.497C148.813 216.992 149.234 215.606 150.078 214.342C150.921 213.107 152.065 212.143 153.51 211.451C154.293 211.089 155.106 210.833 155.95 210.683C156.823 210.532 157.907 210.457 159.202 210.457H163.945L164.622 208.741C164.08 209.072 163.628 209.298 163.267 209.418C162.906 209.539 162.469 209.599 161.957 209.599C161.174 209.599 160.466 209.463 159.834 209.192C159.202 208.891 158.645 208.485 158.163 207.973C157.711 207.461 157.35 206.859 157.079 206.166C156.838 205.443 156.717 204.66 156.717 203.817C156.717 202.372 156.988 200.987 157.53 199.662C158.073 198.337 158.78 197.162 159.653 196.138C160.557 195.084 161.581 194.256 162.725 193.654C163.899 193.022 165.104 192.705 166.339 192.705C168.175 192.705 169.546 193.293 170.449 194.467C171.051 193.293 172 192.705 173.295 192.705C173.927 192.705 174.469 192.901 174.921 193.293C175.372 193.684 175.598 194.166 175.598 194.738C175.598 195.039 175.553 195.325 175.463 195.596C175.403 195.837 175.252 196.259 175.011 196.861L169.5 210.457ZM166.61 203.862L168.371 199.526C168.461 199.285 168.522 199.104 168.552 198.984C168.612 198.864 168.642 198.728 168.642 198.578C168.642 198.156 168.446 197.795 168.055 197.493C167.663 197.192 167.197 197.042 166.655 197.042C166.113 197.042 165.556 197.207 164.983 197.539C164.441 197.87 163.96 198.306 163.538 198.849C163.116 199.391 162.77 200.008 162.499 200.7C162.228 201.363 162.093 202.041 162.093 202.733C162.093 204.269 162.815 205.037 164.261 205.037C164.773 205.037 165.254 204.931 165.706 204.721C166.158 204.48 166.459 204.194 166.61 203.862ZM161.957 215.29H158.163C156.838 215.29 155.814 215.561 155.091 216.103C154.338 216.675 153.962 217.458 153.962 218.452C153.962 219.175 154.218 219.762 154.73 220.214C155.242 220.695 155.874 220.936 156.627 220.936C157.922 220.936 159.081 220.229 160.105 218.813C160.406 218.422 160.677 217.97 160.918 217.458C161.189 216.977 161.535 216.254 161.957 215.29Z" fill="black"/>
<defs>
<clipPath id="clip0_40_106">
<rect width="89.5" height="93.1781" fill="white" transform="translate(45.363 31.8767)"/>
</clipPath>
</defs>
</svg>
