<svg width="236" height="224" viewBox="0 0 236 224" fill="none" xmlns="http://www.w3.org/2000/svg">
<circle cx="122.113" cy="75.4007" r="74.7877" fill="#E0E6EC" stroke="black" stroke-width="1.22603"/>
<circle cx="121.5" cy="76.0137" r="69.8836" fill="black"/>
<line opacity="0.1" x1="32" y1="165.74" x2="211" y2="165.74" stroke="black" stroke-width="2"/>
<path d="M27.3681 183.807H25.3018H24.7536C23.2355 183.75 22.4764 183.076 22.4764 181.782C22.4764 180.967 22.7856 180.278 23.4041 179.716C24.0507 179.154 24.8239 178.873 25.7235 178.873H26.2717H32.302C34.045 178.873 35.5491 179.027 36.8142 179.336C38.1074 179.646 39.26 180.124 40.2721 180.77C41.734 181.698 42.8586 182.977 43.6457 184.608C44.4329 186.21 44.8265 188.052 44.8265 190.132C44.8265 191.987 44.5735 193.857 44.0674 195.741C43.5895 197.596 42.9007 199.381 42.0011 201.096C41.1015 202.811 40.0332 204.4 38.7962 205.861C37.5592 207.295 36.2098 208.504 34.7479 209.488C33.9045 210.05 33.047 210.528 32.1755 210.922C31.3321 211.344 30.4325 211.681 29.4766 211.934C28.5208 212.187 27.4806 212.37 26.356 212.482C25.2596 212.595 24.0507 212.651 22.7294 212.651C22.6732 212.651 22.5186 212.637 22.2655 212.609C22.0125 212.609 21.7454 212.609 21.4643 212.609L21.2113 213.199C20.7896 214.155 20.4241 214.956 20.1149 215.603C19.8056 216.249 19.5104 216.797 19.2293 217.247C18.9482 217.697 18.667 218.091 18.3859 218.428C18.1329 218.794 17.8377 219.159 17.5003 219.524C16.3477 220.761 15.0264 221.703 13.5363 222.35C12.0463 223.025 10.5001 223.362 8.89765 223.362C7.68878 223.362 6.5783 223.165 5.56622 222.772C4.52603 222.406 3.64046 221.886 2.90951 221.211C2.17856 220.537 1.60224 219.721 1.18054 218.765C0.75884 217.838 0.54799 216.826 0.54799 215.729C0.54799 214.942 0.660443 214.183 0.88535 213.452C1.08214 212.721 1.37733 212.046 1.77092 211.428C2.16451 210.809 2.64243 210.261 3.2047 209.783C3.73885 209.305 4.34329 208.926 5.01801 208.645C6.42368 208.026 8.20887 207.717 10.3736 207.717H17.669L27.3681 183.807ZM23.4463 207.717H24.121C26.3982 207.717 28.3942 207.267 30.1092 206.367C31.8241 205.468 33.4406 204.034 34.9587 202.066C36.3363 200.211 37.4186 198.243 38.2058 196.162C39.0211 194.054 39.4287 192.086 39.4287 190.259C39.4287 188.234 38.8805 186.66 37.7841 185.535C36.6877 184.411 35.1414 183.835 33.1454 183.807L23.4463 207.717ZM15.6449 212.609H10.2049C9.67077 212.609 9.26312 212.623 8.98199 212.651C8.72897 212.707 8.46189 212.777 8.18076 212.862C6.85943 213.311 6.19877 214.183 6.19877 215.476C6.19877 216.263 6.4799 216.924 7.04217 217.458C7.63255 217.992 8.3635 218.259 9.23501 218.259C10.5001 218.259 11.6949 217.753 12.8195 216.741C13.9721 215.757 14.9139 214.38 15.6449 212.609ZM50.581 195.783L49.9063 197.47C49.569 198.313 49.2035 198.917 48.8099 199.283C48.4163 199.62 47.9384 199.789 47.3761 199.789C46.8139 199.789 46.3219 199.606 45.9002 199.241C45.4785 198.875 45.2676 198.425 45.2676 197.891C45.2676 197.666 45.2957 197.456 45.352 197.259C45.4082 197.062 45.5347 196.725 45.7315 196.247L48.0508 190.512C48.3601 189.752 48.6834 189.218 49.0208 188.909C49.3862 188.6 49.8501 188.445 50.4124 188.445C51.4526 188.445 52.0851 188.923 52.31 189.879L52.4787 190.512C52.563 190.849 52.6755 191.06 52.8161 191.144C52.9847 191.228 53.3924 191.271 54.039 191.271H58.8885H59.3946C60.8565 191.271 61.5874 191.903 61.5874 193.168C61.5874 193.618 61.4328 194.082 61.1235 194.56C60.8424 195.01 60.5051 195.319 60.1115 195.488C59.9147 195.6 59.6898 195.67 59.4367 195.698C59.1837 195.727 58.762 195.755 58.1716 195.783L57.9186 195.951C57.6094 196.261 57.3423 196.528 57.1174 196.753C56.9206 196.949 56.7379 197.146 56.5692 197.343C56.4005 197.512 56.2459 197.694 56.1053 197.891C55.9929 198.06 55.8523 198.257 55.6836 198.482C55.29 199.044 55.023 199.494 54.8824 199.831C54.7418 200.14 54.6715 200.45 54.6715 200.759C54.6715 201.911 55.3041 202.488 56.5692 202.488H59.1416H59.6476C61.0533 202.544 61.7561 203.163 61.7561 204.343C61.7561 205.074 61.4609 205.707 60.8705 206.241C60.3083 206.747 59.6195 207 58.8042 207H58.2982H54.2498C54.1093 207 53.8984 206.972 53.6173 206.916C53.3362 206.859 53.0269 206.789 52.6895 206.705C51.7618 206.452 51.0027 205.89 50.4124 205.018C49.8501 204.118 49.569 203.078 49.569 201.897C49.569 200.942 49.8079 200.014 50.2859 199.114C50.7638 198.186 51.5791 197.076 52.7317 195.783H50.581ZM75.5935 207.843H77.9971H78.5032C79.9089 207.9 80.6117 208.518 80.6117 209.699C80.6117 210.43 80.3165 211.048 79.7261 211.554C79.1357 212.089 78.4329 212.356 77.6176 212.356H77.1116H73.7801C73.6396 212.749 73.5271 213.044 73.4428 213.241C73.3584 213.466 73.2038 213.817 72.9789 214.295C72.3042 215.785 71.7279 216.924 71.2499 217.711C70.772 218.526 70.2941 219.173 69.8162 219.651C69.0009 220.466 68.0591 221.085 66.9908 221.506C65.9506 221.956 64.8542 222.181 63.7015 222.181C62.6613 222.181 61.6914 221.998 60.7918 221.633C59.8922 221.296 59.105 220.818 58.4303 220.199C57.7555 219.581 57.2354 218.85 56.87 218.006C56.4764 217.191 56.2796 216.291 56.2796 215.307C56.2796 213.817 56.7294 212.454 57.629 211.217C58.5005 210.008 59.6673 209.137 61.1291 208.602C62.4786 208.096 64.4184 207.843 66.9486 207.843H70.3222L70.9126 206.367C70.3503 206.649 69.8583 206.845 69.4366 206.958C69.0149 207.042 68.5511 207.084 68.045 207.084C66.6112 207.084 65.4305 206.705 64.5027 205.946C63.6031 205.187 63.1533 204.203 63.1533 202.994C63.1533 202.6 63.2236 202.15 63.3642 201.644C63.5047 201.138 63.7296 200.492 64.0389 199.705L66.2739 194.138C66.7237 193.098 67.1876 192.367 67.6655 191.945C68.1715 191.495 68.8041 191.271 69.5631 191.271C70.1816 191.271 70.6877 191.453 71.0813 191.819C71.503 192.184 71.7138 192.648 71.7138 193.21C71.7138 193.492 71.6716 193.773 71.5873 194.054C71.5311 194.307 71.3905 194.7 71.1656 195.235L69.1414 200.168C68.9447 200.646 68.8181 200.998 68.7619 201.223C68.7057 201.42 68.6776 201.602 68.6776 201.771C68.6776 202.389 69.1133 202.699 69.9848 202.699C70.6033 202.699 71.2359 202.516 71.8825 202.15C72.5291 201.785 72.9508 201.363 73.1476 200.885L75.8886 194.138L76.0995 193.59C76.7461 192.044 77.7582 191.271 79.1357 191.271C79.7542 191.271 80.2603 191.467 80.6539 191.861C81.0474 192.226 81.2442 192.69 81.2442 193.253C81.2442 193.477 81.2161 193.716 81.1599 193.969C81.1318 194.194 81.0615 194.419 80.949 194.644L80.7382 195.235L75.5935 207.843ZM68.8463 212.356H65.9787C62.83 212.356 61.2557 213.354 61.2557 215.35C61.2557 216.024 61.4806 216.573 61.9304 216.994C62.3521 217.416 62.9143 217.627 63.6172 217.627C64.9385 217.627 66.0911 216.924 67.0751 215.518C67.3844 215.125 67.6514 214.689 67.8763 214.211C68.1294 213.761 68.4527 213.143 68.8463 212.356ZM100.582 192.957C99.6266 194.644 98.9238 196.233 98.474 197.723C98.0523 199.213 97.8414 200.703 97.8414 202.193C97.8414 204.161 98.2912 205.566 99.1909 206.41C100.119 207.253 101.637 207.675 103.745 207.675H115.173H115.722C117.268 207.731 118.041 208.406 118.041 209.699C118.041 210.514 117.718 211.203 117.071 211.765C116.452 212.327 115.693 212.609 114.794 212.609H114.246H102.269L101.552 212.651C100.203 212.651 98.9519 212.398 97.7993 211.892C96.6466 211.414 95.6486 210.739 94.8052 209.868C93.9899 209.024 93.3433 208.012 92.8654 206.831C92.4156 205.622 92.1906 204.301 92.1906 202.867C92.1906 201.349 92.3734 199.831 92.7389 198.313C93.1324 196.767 93.779 194.982 94.6787 192.957H93.5401H92.9919C91.4456 192.901 90.6725 192.226 90.6725 190.933C90.6725 190.118 90.9818 189.429 91.6003 188.867C92.2469 188.305 93.02 188.024 93.9196 188.024H94.4678H97.4619C98.7551 185.887 100.428 183.905 102.48 182.078C105.123 179.66 107.99 178.451 111.083 178.451C112.095 178.451 113.037 178.62 113.908 178.957C114.78 179.294 115.525 179.758 116.143 180.349C116.762 180.939 117.24 181.642 117.577 182.457C117.942 183.272 118.125 184.158 118.125 185.114C118.125 186.548 117.718 187.869 116.902 189.078C116.115 190.259 115.005 191.172 113.571 191.819C113.009 192.072 112.32 192.283 111.505 192.451C110.689 192.62 109.691 192.747 108.51 192.831C108.117 192.887 107.667 192.929 107.161 192.957C106.683 192.957 106.289 192.957 105.98 192.957H100.582ZM103.661 188.024H107.667C108.314 188.024 108.946 187.995 109.565 187.939C110.183 187.855 110.647 187.742 110.956 187.602C111.519 187.377 111.954 187.054 112.264 186.632C112.601 186.21 112.77 185.746 112.77 185.24C112.77 184.678 112.545 184.214 112.095 183.849C111.645 183.483 111.083 183.3 110.408 183.3C109.171 183.3 107.85 183.877 106.444 185.029C105.797 185.564 105.263 186.056 104.842 186.505C104.448 186.955 104.054 187.461 103.661 188.024ZM120.603 202.488H122.753H123.259C124.665 202.544 125.368 203.163 125.368 204.343C125.368 205.074 125.073 205.707 124.482 206.241C123.892 206.747 123.189 207 122.374 207H121.868H118.199C117.215 207 116.414 206.775 115.795 206.325C115.177 205.847 114.868 205.229 114.868 204.47C114.868 204.189 114.924 203.851 115.036 203.458C115.149 203.064 115.303 202.642 115.5 202.193L123.808 181.74L124.018 181.192C124.665 179.646 125.677 178.873 127.055 178.873C127.617 178.873 128.095 179.069 128.488 179.463C128.91 179.828 129.121 180.278 129.121 180.812C129.121 181.234 129.023 181.712 128.826 182.246L128.573 182.794L120.603 202.488ZM131.373 200.97C131.373 201.982 132.147 202.488 133.693 202.488H139.807H140.314C141.719 202.544 142.422 203.163 142.422 204.343C142.422 205.074 142.127 205.707 141.536 206.241C140.946 206.747 140.243 207 139.428 207H138.922H133.102C132.062 207 131.233 206.93 130.614 206.789C129.996 206.62 129.406 206.339 128.843 205.946C127.241 204.737 126.44 202.966 126.44 200.632C126.44 199.311 126.679 198.074 127.156 196.921C127.663 195.741 128.323 194.714 129.138 193.843C129.982 192.943 130.952 192.241 132.048 191.734C133.173 191.228 134.354 190.975 135.59 190.975C137.362 190.975 138.781 191.453 139.85 192.409C140.946 193.337 141.494 194.574 141.494 196.12C141.494 197.104 141.241 197.99 140.735 198.777C140.257 199.536 139.597 200.098 138.753 200.464C138.528 200.576 138.303 200.66 138.079 200.717C137.882 200.773 137.657 200.829 137.404 200.885C137.179 200.913 136.912 200.942 136.603 200.97C136.293 200.97 135.928 200.97 135.506 200.97H131.373ZM132.343 197.217H134.621C135.38 197.217 135.928 197.146 136.265 197.006C136.603 196.837 136.771 196.598 136.771 196.289C136.771 195.98 136.631 195.712 136.35 195.488C136.097 195.263 135.773 195.15 135.38 195.15C134.086 195.15 133.074 195.839 132.343 197.217ZM157.326 202.488H159.603H160.109C161.514 202.544 162.217 203.163 162.217 204.343C162.217 205.074 161.922 205.707 161.332 206.241C160.741 206.747 160.038 207 159.223 207H158.717H156.06C154.88 207 154.092 206.536 153.699 205.608L153.319 205.946C152.87 206.339 152.448 206.62 152.054 206.789C151.689 206.93 151.239 207 150.705 207H148.217C146.755 207 145.56 206.466 144.632 205.398C143.733 204.301 143.283 202.867 143.283 201.096C143.283 199.803 143.536 198.552 144.042 197.343C144.548 196.106 145.209 195.024 146.024 194.096C146.867 193.14 147.823 192.381 148.892 191.819C149.96 191.257 151.07 190.975 152.223 190.975C153.938 190.975 155.217 191.58 156.06 192.789C156.426 192.226 156.805 191.833 157.199 191.608C157.621 191.383 158.127 191.271 158.717 191.271C159.307 191.271 159.814 191.453 160.235 191.819C160.657 192.184 160.868 192.634 160.868 193.168C160.868 193.477 160.826 193.759 160.741 194.012C160.685 194.237 160.544 194.63 160.32 195.192L157.326 202.488ZM152.518 201.476L154.078 197.68L154.205 197.343C154.317 197.118 154.374 196.865 154.374 196.584C154.374 196.19 154.191 195.853 153.825 195.572C153.46 195.263 153.024 195.108 152.518 195.108C152.012 195.108 151.492 195.277 150.958 195.614C150.452 195.923 149.988 196.345 149.566 196.879C149.145 197.413 148.793 198.004 148.512 198.65C148.259 199.297 148.132 199.929 148.132 200.548C148.132 201.195 148.287 201.701 148.596 202.066C148.906 202.432 149.327 202.614 149.861 202.614H150.663C150.972 202.614 151.323 202.488 151.717 202.235C152.139 201.982 152.406 201.729 152.518 201.476ZM178.613 202.488H181.101H181.607C183.013 202.544 183.715 203.163 183.715 204.343C183.715 205.074 183.42 205.707 182.83 206.241C182.239 206.747 181.537 207 180.721 207H180.215H175.956C175.113 207 174.396 206.747 173.805 206.241C173.243 205.735 172.962 205.116 172.962 204.385C172.962 204.076 173.004 203.781 173.089 203.5C173.173 203.219 173.327 202.783 173.552 202.193L175.366 197.723C175.562 197.245 175.661 196.865 175.661 196.584C175.661 196.247 175.52 195.966 175.239 195.741C174.958 195.516 174.607 195.403 174.185 195.403C173.342 195.403 172.568 195.853 171.866 196.753C171.388 197.371 171.022 197.99 170.769 198.608L168.365 204.554L168.112 205.102C167.466 206.649 166.454 207.422 165.076 207.422C164.486 207.422 163.98 207.239 163.558 206.873C163.165 206.508 162.968 206.044 162.968 205.482C162.968 205.032 163.08 204.554 163.305 204.048L163.516 203.5L167.691 193.253C168.197 191.903 169.11 191.228 170.432 191.228C171.472 191.228 172.217 191.706 172.667 192.662C173.51 192.016 174.227 191.58 174.817 191.355C175.436 191.102 176.111 190.975 176.842 190.975C178.163 190.975 179.231 191.341 180.047 192.072C180.89 192.803 181.312 193.745 181.312 194.897C181.312 195.206 181.269 195.544 181.185 195.909C181.129 196.247 181.031 196.598 180.89 196.964L178.613 202.488ZM190.282 202.488H192.601H193.107C194.513 202.544 195.216 203.163 195.216 204.343C195.216 205.074 194.921 205.707 194.33 206.241C193.74 206.747 193.037 207 192.222 207H191.716H188.469C187.204 207 186.234 206.761 185.559 206.283C184.884 205.805 184.547 205.116 184.547 204.217C184.547 203.936 184.575 203.697 184.631 203.5C184.687 203.275 184.8 202.938 184.969 202.488L188.384 194.138L188.595 193.59C189.242 192.044 190.268 191.271 191.674 191.271C192.264 191.271 192.756 191.467 193.15 191.861C193.571 192.226 193.782 192.69 193.782 193.253C193.782 193.674 193.67 194.138 193.445 194.644L193.234 195.235L190.282 202.488ZM193.023 190.385C192.236 190.385 191.561 190.104 190.999 189.542C190.437 188.979 190.156 188.305 190.156 187.517C190.156 186.73 190.423 186.056 190.957 185.493C191.519 184.931 192.194 184.65 192.981 184.65C193.796 184.65 194.485 184.931 195.047 185.493C195.609 186.056 195.891 186.744 195.891 187.56C195.891 188.347 195.609 189.022 195.047 189.584C194.513 190.118 193.838 190.385 193.023 190.385ZM211.682 202.488H214.17H214.676C216.081 202.544 216.784 203.163 216.784 204.343C216.784 205.074 216.489 205.707 215.899 206.241C215.308 206.747 214.605 207 213.79 207H213.284H209.025C208.182 207 207.465 206.747 206.874 206.241C206.312 205.735 206.031 205.116 206.031 204.385C206.031 204.076 206.073 203.781 206.157 203.5C206.242 203.219 206.396 202.783 206.621 202.193L208.435 197.723C208.631 197.245 208.73 196.865 208.73 196.584C208.73 196.247 208.589 195.966 208.308 195.741C208.027 195.516 207.675 195.403 207.254 195.403C206.41 195.403 205.637 195.853 204.934 196.753C204.457 197.371 204.091 197.99 203.838 198.608L201.434 204.554L201.181 205.102C200.535 206.649 199.523 207.422 198.145 207.422C197.555 207.422 197.049 207.239 196.627 206.873C196.233 206.508 196.037 206.044 196.037 205.482C196.037 205.032 196.149 204.554 196.374 204.048L196.585 203.5L200.76 193.253C201.266 191.903 202.179 191.228 203.501 191.228C204.541 191.228 205.286 191.706 205.736 192.662C206.579 192.016 207.296 191.58 207.886 191.355C208.505 191.102 209.18 190.975 209.91 190.975C211.232 190.975 212.3 191.341 213.115 192.072C213.959 192.803 214.381 193.745 214.381 194.897C214.381 195.206 214.338 195.544 214.254 195.909C214.198 196.247 214.099 196.598 213.959 196.964L211.682 202.488ZM229.761 207.548H232.207H232.713C234.118 207.604 234.821 208.223 234.821 209.404C234.821 210.135 234.526 210.753 233.936 211.259C233.345 211.793 232.642 212.06 231.827 212.06H231.321H227.905L227.062 214.169C225.994 216.812 224.714 218.751 223.224 219.988C221.734 221.253 219.935 221.886 217.827 221.886C216.758 221.886 215.774 221.703 214.875 221.338C213.975 221 213.202 220.523 212.555 219.904C211.909 219.314 211.403 218.597 211.037 217.753C210.644 216.938 210.447 216.038 210.447 215.054C210.447 213.649 210.84 212.356 211.628 211.175C212.415 210.022 213.483 209.123 214.833 208.476C215.563 208.139 216.323 207.9 217.11 207.759C217.925 207.618 218.937 207.548 220.146 207.548H224.574L225.206 205.946C224.7 206.255 224.279 206.466 223.941 206.578C223.604 206.691 223.196 206.747 222.718 206.747C221.987 206.747 221.327 206.62 220.736 206.367C220.146 206.086 219.626 205.707 219.176 205.229C218.754 204.751 218.417 204.189 218.164 203.542C217.939 202.867 217.827 202.136 217.827 201.349C217.827 200 218.08 198.707 218.586 197.47C219.092 196.233 219.752 195.136 220.568 194.18C221.411 193.196 222.367 192.423 223.435 191.861C224.532 191.271 225.656 190.975 226.809 190.975C228.524 190.975 229.803 191.524 230.646 192.62C231.209 191.524 232.094 190.975 233.303 190.975C233.893 190.975 234.399 191.158 234.821 191.524C235.243 191.889 235.454 192.339 235.454 192.873C235.454 193.154 235.411 193.421 235.327 193.674C235.271 193.899 235.13 194.293 234.905 194.855L229.761 207.548ZM227.062 201.391L228.706 197.343C228.791 197.118 228.847 196.949 228.875 196.837C228.931 196.725 228.959 196.598 228.959 196.458C228.959 196.064 228.777 195.727 228.411 195.445C228.046 195.164 227.61 195.024 227.104 195.024C226.598 195.024 226.078 195.178 225.544 195.488C225.038 195.797 224.588 196.204 224.194 196.711C223.801 197.217 223.477 197.793 223.224 198.439C222.971 199.058 222.845 199.691 222.845 200.337C222.845 201.771 223.52 202.488 224.869 202.488C225.347 202.488 225.797 202.389 226.218 202.193C226.64 201.968 226.921 201.701 227.062 201.391ZM222.718 212.06H219.176C217.939 212.06 216.983 212.313 216.308 212.819C215.606 213.354 215.254 214.085 215.254 215.012C215.254 215.687 215.493 216.235 215.971 216.657C216.449 217.107 217.039 217.332 217.742 217.332C218.951 217.332 220.033 216.671 220.989 215.35C221.27 214.984 221.523 214.562 221.748 214.085C222.001 213.635 222.325 212.96 222.718 212.06Z" fill="black"/>
<path d="M74.0638 94.3817H171.915V96.1059H74.0638V94.3817Z" fill="white"/>
<path d="M68 96.2337L68.4787 95.148L71.0957 93.0087L73.3617 91.6038L76.7128 90.103L77.3191 90.582L78.3404 90.5501L78.5319 90.3904L78.6596 90.2627L78.9149 89.8795V89.2409L79.3298 88.9855L80.5745 88.4746L86.2234 86.2075L96.2128 82.2801L99.8511 80.6197L102.628 79.4383L104.862 78.225L107.255 76.4049L111.436 72.4775L114.628 68.7097L116.064 66.73L118.553 65.9956L120.021 65.7083H122.511V74.2975L121.649 74.8723L120.851 75.3832L119.16 75.8302L110.032 79.5022L105.085 81.6734L97.0745 85.2496L87.5638 89.8476L79.6489 93.775L73.5851 96.8723L68 97V96.2337Z" fill="white"/>
<path d="M123.277 64.2395L123.436 62.0682L124.011 61.4935L125.16 60.9187L126.213 60.2801L126.947 59.5776L127.521 58.7475L127.713 58.1408V56.2569L127.266 55.1713L126.66 54.3411L125.957 53.7983L125.351 53.4151L124.553 53.1277L123.468 53H121.968L120.755 53.3193L119.83 53.8621L119 54.5965L118.106 55.7779L117.787 56.2569V56.7358L118.106 57.0232H118.553L118.777 56.9274L118.904 56.7039L119.287 56.0653L119.83 55.2032L120.691 54.5007L121.521 54.0856L122.862 53.926L124.106 54.0218L125.16 54.4688L126.053 55.1713L126.532 56.0653L126.66 57.3745L126.564 58.0769L126.053 58.8433L125.223 59.5776L124.011 60.2801L122.702 61.0145L122.255 61.6212L121.872 62.4514V64.2395L121.649 65.7083H123.5L123.277 64.2395Z" fill="white"/>
<path d="M176 96.2337L175.521 95.148L172.904 93.0087L170.638 91.6038L167.287 90.103L166.681 90.582L165.66 90.5501L165.468 90.3904L165.34 90.2627L165.085 89.8795V89.2409L164.67 88.9855L163.426 88.4746L157.777 86.2075L147.787 82.2801L144.149 80.6197L141.372 79.4383L139.138 78.225L136.745 76.4049L132.564 72.4775L129.372 68.7097L127.936 66.73L125.447 65.9956L123.979 65.7083H121.489V74.2975L122.351 74.8723L123.149 75.3832L124.84 75.8302L133.968 79.5022L138.915 81.6734L146.926 85.2496L156.436 89.8476L164.351 93.775L170.415 96.8723L176 97V96.2337Z" fill="white"/>
</svg>
