<svg width="18" height="18" viewBox="0 0 18 18" fill="none" xmlns="http://www.w3.org/2000/svg">
<path fill-rule="evenodd" clip-rule="evenodd" d="M14.25 17.25C15.4905 17.25 16.5 16.2405 16.5 15V6.75C16.5 6.51825 16.3927 6.3 16.2105 6.1575L9.4605 0.9075C9.18975 0.6975 8.8095 0.6975 8.5395 0.9075L1.7895 6.1575C1.60725 6.3 1.5 6.51825 1.5 6.75V15C1.5 16.2405 2.5095 17.25 3.75 17.25H14.25ZM12 15.75H14.25C14.664 15.75 15 15.414 15 15V7.11675L9 2.45025L3 7.11675V15C3 15.414 3.33675 15.75 3.75 15.75H6V9C6 8.586 6.336 8.25 6.75 8.25H11.25C11.6647 8.25 12 8.586 12 9V15.75ZM7.5 15.75V9.75H10.5V15.75H7.5Z" fill="black"/>
</svg>
