<svg width="24" height="24" viewBox="0 0 24 24" fill="none" xmlns="http://www.w3.org/2000/svg">
<path d="M16 22.9999H7.99999C6.34599 22.9999 4.99999 21.6539 4.99999 19.9999V10.9999H3.84999C3.84799 10.9999 3.84599 10.9999 3.84399 10.9999C2.86099 10.9999 2.03099 10.2939 1.87299 9.31992L1.29299 5.85493C1.04599 4.38793 1.89199 2.98092 3.30399 2.51092L7.68299 1.05093C7.98799 0.950925 8.32299 0.999925 8.58399 1.18893C8.84599 1.37693 8.99999 1.67893 8.99999 1.99993C8.99999 3.65393 10.346 4.99993 12 4.99993C13.654 4.99993 15 3.65393 15 1.99993C15 1.67893 15.154 1.37693 15.415 1.18893C15.677 0.999925 16.011 0.950925 16.316 1.05093L20.696 2.51092C22.108 2.98192 22.954 4.38793 22.706 5.85593L22.126 9.32492C21.97 10.2939 21.141 10.9999 20.153 10.9999C20.151 10.9999 20.149 10.9999 20.147 10.9999H19V19.9999C19 21.6539 17.654 22.9999 16 22.9999ZM7.17899 3.32793L3.93699 4.40893C3.46599 4.56593 3.18399 5.03493 3.26699 5.52393L3.84699 8.99493L5.99999 8.99993C6.55199 8.99993 6.99999 9.44792 6.99999 9.99992V19.9999C6.99999 20.5519 7.44899 20.9999 7.99999 20.9999H16C16.552 20.9999 17 20.5519 17 19.9999V9.99992C17 9.44792 17.447 8.99993 18 8.99993H20.15L20.733 5.52493C20.816 5.03393 20.534 4.56593 20.063 4.40893L16.821 3.32793C16.238 5.44193 14.298 6.99993 12 6.99993C9.70299 6.99993 7.76199 5.44193 7.17899 3.32793Z" fill="black"/>
</svg>
