<svg width="234" height="229" viewBox="0 0 234 229" fill="none" xmlns="http://www.w3.org/2000/svg">
<circle cx="117.113" cy="75.4007" r="74.7877" fill="#E0E6EC" stroke="black" stroke-width="1.22603"/>
<circle cx="116.5" cy="76.0137" r="69.8836" fill="black"/>
<line opacity="0.1" x1="27" y1="166.127" x2="206" y2="166.127" stroke="#1F2937" stroke-width="1.22603"/>
<path d="M20.1907 197.959L22.2234 200.488L23.3978 201.888C24.4517 203.243 25.2798 204.704 25.8821 206.27C26.4843 207.806 26.7855 209.296 26.7855 210.742C26.7855 212.518 26.4241 214.174 25.7014 215.71C25.0088 217.246 24.0301 218.586 22.7654 219.73C21.5308 220.875 20.0703 221.778 18.384 222.44C16.7277 223.103 14.936 223.434 13.0088 223.434C11.2924 223.434 9.72648 223.148 8.31118 222.576C6.89587 222.034 5.66124 221.251 4.60728 220.227C3.58344 219.233 2.78545 218.044 2.2133 216.659C1.64116 215.274 1.35508 213.753 1.35508 212.097C1.35508 210.139 1.79172 208.317 2.665 206.631C3.53827 204.945 4.80302 203.424 6.45923 202.069C8.29612 200.654 9.96739 199.946 11.473 199.946C12.256 199.946 12.9034 200.172 13.4153 200.624C13.9272 201.075 14.1832 201.662 14.1832 202.385C14.1832 202.897 14.0477 203.349 13.7767 203.74C13.5057 204.132 13.054 204.523 12.4216 204.915L10.7052 205.999C9.6512 206.631 8.79298 207.519 8.1305 208.664C7.46801 209.778 7.13677 210.892 7.13677 212.006C7.13677 212.88 7.28734 213.678 7.58846 214.4C7.91971 215.123 8.35634 215.755 8.89838 216.297C9.47052 216.839 10.133 217.261 10.8858 217.562C11.6387 217.863 12.4668 218.014 13.3702 218.014C14.394 218.014 15.3576 217.803 16.261 217.381C17.1945 216.99 17.9925 216.448 18.655 215.755C19.3476 215.063 19.8896 214.25 20.2811 213.316C20.6725 212.413 20.8683 211.434 20.8683 210.38C20.8683 209.597 20.7328 208.829 20.4618 208.077C20.2208 207.324 19.7993 206.526 19.197 205.683C18.9862 205.412 18.7604 205.125 18.5195 204.824C18.3087 204.523 18.0527 204.207 17.7516 203.876C17.6914 203.816 17.586 203.71 17.4354 203.56C17.3149 203.379 17.0891 203.108 16.7579 202.747C16.6374 202.626 16.532 202.521 16.4417 202.43C16.3513 202.31 16.2309 202.174 16.0803 202.024C15.6587 201.572 15.2974 201.166 14.9963 200.804C14.6951 200.443 14.4241 200.112 14.1832 199.811C13.9724 199.509 13.7767 199.208 13.596 198.907C13.4454 198.606 13.2798 198.29 13.0991 197.959H7.13677H6.54957C4.92347 197.898 4.11042 197.176 4.11042 195.79C4.11042 194.917 4.44166 194.179 5.10415 193.577C5.79674 192.975 6.62485 192.674 7.58846 192.674H8.17567H11.9247C12.0753 191.228 12.4969 189.888 13.1895 188.654C13.8821 187.419 14.7855 186.35 15.8996 185.447C17.0138 184.543 18.2936 183.851 19.739 183.369C21.2146 182.857 22.7805 182.601 24.4367 182.601C25.7014 182.601 26.8457 182.782 27.8695 183.143C28.8934 183.504 29.7817 184.016 30.5345 184.679C31.2874 185.311 31.8595 186.094 32.251 187.028C32.6726 187.931 32.8833 188.925 32.8833 190.009C32.8833 191.484 32.4919 192.854 31.7089 194.119C30.926 195.354 29.8721 196.302 28.5471 196.965C27.8545 197.296 27.0264 197.552 26.0628 197.733C25.0991 197.883 23.8796 197.959 22.404 197.959H20.1907ZM17.5709 192.674H22.8557C24.271 192.674 25.3702 192.448 26.1531 191.996C26.936 191.545 27.3275 190.897 27.3275 190.054C27.3275 189.361 27.0113 188.819 26.3789 188.428C25.7767 188.036 24.9486 187.841 23.8946 187.841C23.1117 187.841 22.3438 187.976 21.591 188.247C20.8683 188.518 20.2058 188.88 19.6035 189.331C19.0314 189.753 18.5496 190.265 18.1581 190.867C17.7968 191.439 17.601 192.041 17.5709 192.674ZM41.9578 197.1C42.4396 196.829 42.8461 196.619 43.1774 196.468C43.5387 196.287 43.8549 196.152 44.1259 196.061C44.397 195.971 44.6529 195.911 44.8938 195.881C45.1648 195.851 45.466 195.836 45.7972 195.836C47.1824 195.836 48.3267 196.227 49.2301 197.01C50.1335 197.793 50.5852 198.772 50.5852 199.946C50.5852 200.307 50.54 200.729 50.4497 201.211C50.3593 201.662 50.2389 202.069 50.0883 202.43L47.7395 208.167H50.269H50.811C52.3167 208.227 53.0695 208.89 53.0695 210.154C53.0695 210.937 52.7533 211.615 52.1209 212.187C51.4886 212.729 50.7357 213 49.8625 213H49.3204H44.8938C43.9302 213 43.1322 212.729 42.4998 212.187C41.8976 211.645 41.5965 210.952 41.5965 210.109C41.5965 209.657 41.6717 209.206 41.8223 208.754L42.0933 208.167L44.0808 203.198C44.2313 202.867 44.3367 202.596 44.397 202.385C44.4572 202.174 44.4873 201.979 44.4873 201.798C44.4873 201.407 44.3217 201.105 43.9904 200.895C43.6893 200.654 43.2978 200.533 42.816 200.533C41.3405 200.533 40.0607 201.798 38.9766 204.327L36.5375 210.425L36.3116 211.013C35.619 212.609 34.55 213.407 33.1046 213.407C32.4722 213.407 31.9453 213.226 31.5237 212.864C31.1021 212.473 30.8913 211.976 30.8913 211.374C30.8913 210.952 30.9967 210.455 31.2075 209.883L31.4785 209.296L41.0544 185.627C41.5061 184.543 41.9879 183.775 42.4998 183.324C43.0419 182.842 43.7044 182.601 44.4873 182.601C45.1197 182.601 45.6467 182.797 46.0682 183.188C46.4898 183.58 46.7006 184.077 46.7006 184.679C46.7006 185.1 46.5952 185.597 46.3844 186.169L46.1586 186.757L41.9578 197.1ZM61.5056 213C60.1806 213 59.2019 212.94 58.5696 212.819C57.9673 212.699 57.4102 212.473 56.8983 212.142C55.9648 211.509 55.227 210.666 54.685 209.612C54.1731 208.528 53.9171 207.354 53.9171 206.089C53.9171 204.734 54.1881 203.439 54.7302 202.205C55.2722 200.94 56.01 199.841 56.9435 198.907C57.877 197.974 58.946 197.236 60.1505 196.694C61.355 196.122 62.6348 195.836 63.9899 195.836C65.074 195.836 66.0677 196.016 66.9711 196.378C67.9046 196.739 68.7026 197.236 69.3651 197.868C70.0276 198.501 70.5395 199.253 70.9008 200.127C71.2622 201 71.4429 201.964 71.4429 203.018C71.4429 203.891 71.3224 204.764 71.0815 205.637C70.8707 206.511 70.5545 207.339 70.1329 208.122C69.7415 208.905 69.2597 209.627 68.6875 210.29C68.1455 210.952 67.5432 211.494 66.8808 211.916C66.2183 212.338 65.4956 212.624 64.7126 212.774C63.9598 212.925 62.8908 213 61.5056 213ZM66.2032 203.243C66.2032 202.46 65.9623 201.813 65.4805 201.301C64.9987 200.789 64.3814 200.533 63.6286 200.533C63.0564 200.533 62.4993 200.684 61.9573 200.985C61.4454 201.256 60.9786 201.632 60.557 202.114C60.1656 202.596 59.8494 203.153 59.6085 203.785C59.3676 204.418 59.2471 205.065 59.2471 205.728C59.2471 207.384 60.1806 208.212 62.0476 208.212C62.5897 208.212 63.0112 208.182 63.3124 208.122C63.6135 208.061 63.8996 207.911 64.1706 207.67C64.7427 207.248 65.2245 206.616 65.616 205.773C66.0075 204.9 66.2032 204.056 66.2032 203.243ZM77.9049 206.541C77.9049 207.625 78.733 208.167 80.3892 208.167H86.9388H87.4808C88.9865 208.227 89.7393 208.89 89.7393 210.154C89.7393 210.937 89.4231 211.615 88.7907 212.187C88.1584 212.729 87.4056 213 86.5323 213H85.9902H79.7569C78.6427 213 77.7544 212.925 77.0919 212.774C76.4294 212.593 75.797 212.292 75.1948 211.871C73.4783 210.576 72.6201 208.679 72.6201 206.179C72.6201 204.764 72.8761 203.439 73.388 202.205C73.93 200.94 74.6377 199.841 75.5109 198.907C76.4143 197.944 77.4532 197.191 78.6276 196.649C79.8321 196.107 81.0969 195.836 82.4219 195.836C84.319 195.836 85.8397 196.348 86.984 197.371C88.1584 198.365 88.7456 199.69 88.7456 201.346C88.7456 202.4 88.4746 203.349 87.9325 204.192C87.4206 205.005 86.713 205.607 85.8096 205.999C85.5687 206.119 85.3278 206.21 85.0869 206.27C84.8761 206.33 84.6352 206.39 84.3641 206.45C84.1232 206.481 83.8372 206.511 83.5059 206.541C83.1747 206.541 82.7832 206.541 82.3315 206.541H77.9049ZM78.9438 202.521H81.383C82.196 202.521 82.7832 202.445 83.1446 202.295C83.5059 202.114 83.6866 201.858 83.6866 201.527C83.6866 201.196 83.536 200.91 83.2349 200.669C82.9639 200.428 82.6176 200.307 82.196 200.307C80.8108 200.307 79.7268 201.045 78.9438 202.521ZM135.087 200.578L139.694 211.645C140.326 213.09 141.109 213.798 142.043 213.768L142.946 213.723H152.161H152.748C154.404 213.783 155.232 214.506 155.232 215.891C155.232 216.764 154.886 217.502 154.193 218.104C153.531 218.706 152.718 219.008 151.754 219.008H151.167H140.959C139.604 219.008 138.414 218.661 137.39 217.969C136.397 217.306 135.644 216.343 135.132 215.078L128.763 199.72L125.827 206.992C125.466 207.896 125.089 208.814 124.698 209.748C124.306 210.681 123.99 211.419 123.749 211.961C122.123 215.816 120.211 218.646 118.013 220.453C115.844 222.26 113.27 223.163 110.289 223.163C108.693 223.163 107.247 222.907 105.952 222.395C104.657 221.913 103.543 221.206 102.61 220.272C101.676 219.369 100.954 218.27 100.442 216.975C99.9297 215.71 99.6738 214.295 99.6738 212.729C99.6738 210.501 100.141 208.393 101.074 206.405C102.038 204.388 103.332 202.626 104.959 201.12C106.585 199.615 108.467 198.425 110.605 197.552C112.743 196.679 115.001 196.242 117.38 196.242C118.705 196.242 119.729 196.483 120.452 196.965C121.174 197.447 121.536 198.124 121.536 198.997C121.536 199.991 121.174 200.714 120.452 201.166C119.759 201.617 118.524 201.888 116.748 201.979C115.212 202.069 113.782 202.4 112.457 202.972C111.162 203.545 110.018 204.297 109.024 205.231C108.06 206.134 107.292 207.188 106.72 208.393C106.178 209.597 105.907 210.877 105.907 212.232C105.907 213.798 106.344 215.033 107.217 215.936C108.09 216.87 109.265 217.336 110.74 217.336C112.366 217.336 113.872 216.583 115.257 215.078C115.679 214.656 116.085 214.114 116.477 213.452C116.868 212.819 117.32 211.991 117.832 210.967C118.133 210.365 118.434 209.733 118.735 209.07C119.036 208.378 119.338 207.685 119.639 206.992L127.272 188.157H124.969H124.381C122.755 188.097 121.942 187.374 121.942 185.989C121.942 185.115 122.274 184.378 122.936 183.775C123.629 183.173 124.457 182.872 125.42 182.872H126.008H133.325C133.897 182.872 134.364 182.872 134.725 182.872C135.117 182.872 135.433 182.887 135.674 182.917C135.945 182.947 136.171 182.977 136.351 183.007C136.562 183.038 136.788 183.083 137.029 183.143C138.745 183.504 140.1 184.363 141.094 185.718C142.118 187.043 142.63 188.654 142.63 190.551C142.63 192.026 142.314 193.472 141.681 194.887C141.049 196.302 140.176 197.507 139.062 198.501C138.459 199.043 137.857 199.464 137.255 199.765C136.683 200.066 135.96 200.338 135.087 200.578ZM130.118 196.423L130.75 196.378C131.744 196.317 132.482 196.227 132.964 196.107C133.476 195.986 133.972 195.76 134.454 195.429C135.237 194.917 135.824 194.3 136.216 193.577C136.637 192.854 136.848 192.056 136.848 191.183C136.848 190.22 136.592 189.482 136.08 188.97C135.599 188.428 134.906 188.157 134.003 188.157H133.46L130.118 196.423ZM149.011 206.541C149.011 207.625 149.84 208.167 151.496 208.167H158.045H158.587C160.093 208.227 160.846 208.89 160.846 210.154C160.846 210.937 160.53 211.615 159.897 212.187C159.265 212.729 158.512 213 157.639 213H157.097H150.863C149.749 213 148.861 212.925 148.198 212.774C147.536 212.593 146.904 212.292 146.301 211.871C144.585 210.576 143.727 208.679 143.727 206.179C143.727 204.764 143.983 203.439 144.495 202.205C145.037 200.94 145.744 199.841 146.617 198.907C147.521 197.944 148.56 197.191 149.734 196.649C150.939 196.107 152.203 195.836 153.528 195.836C155.426 195.836 156.946 196.348 158.091 197.371C159.265 198.365 159.852 199.69 159.852 201.346C159.852 202.4 159.581 203.349 159.039 204.192C158.527 205.005 157.82 205.607 156.916 205.999C156.675 206.119 156.434 206.21 156.193 206.27C155.983 206.33 155.742 206.39 155.471 206.45C155.23 206.481 154.944 206.511 154.612 206.541C154.281 206.541 153.89 206.541 153.438 206.541H149.011ZM150.05 202.521H152.49C153.303 202.521 153.89 202.445 154.251 202.295C154.612 202.114 154.793 201.858 154.793 201.527C154.793 201.196 154.643 200.91 154.341 200.669C154.07 200.428 153.724 200.307 153.303 200.307C151.917 200.307 150.833 201.045 150.05 202.521ZM167.279 211.284L161.542 225.422C161.09 226.536 160.609 227.319 160.097 227.77C159.555 228.222 158.892 228.448 158.109 228.448C157.507 228.448 156.995 228.252 156.573 227.861C156.122 227.469 155.896 226.972 155.896 226.37C155.896 225.949 156.001 225.452 156.212 224.88L156.483 224.292L167.098 198.139C167.64 196.814 168.589 196.152 169.944 196.152C170.456 196.152 170.862 196.242 171.163 196.423C171.494 196.603 171.811 196.95 172.112 197.462C173.136 196.378 174.415 195.836 175.951 195.836C177.487 195.836 178.722 196.423 179.655 197.597C180.589 198.772 181.055 200.338 181.055 202.295C181.055 204.072 180.709 205.788 180.016 207.444C179.324 209.1 178.405 210.455 177.261 211.509C176.93 211.811 176.599 212.066 176.267 212.277C175.936 212.458 175.56 212.609 175.138 212.729C174.747 212.849 174.295 212.94 173.783 213C173.301 213.03 172.729 213.045 172.067 213.045C171.344 213.045 170.742 213.03 170.26 213C169.778 212.94 169.356 212.849 168.995 212.729C168.664 212.609 168.363 212.428 168.092 212.187C167.851 211.946 167.58 211.645 167.279 211.284ZM169.085 206.812C169.447 207.414 169.778 207.821 170.079 208.031C170.41 208.212 170.877 208.302 171.479 208.302L171.796 208.348C172.368 208.348 172.819 208.257 173.151 208.077C173.512 207.896 173.858 207.595 174.19 207.173C174.701 206.511 175.123 205.713 175.454 204.779C175.786 203.846 175.951 203.033 175.951 202.34C175.951 200.895 175.259 200.172 173.873 200.172C173.452 200.172 173.03 200.262 172.609 200.443C172.217 200.624 171.871 200.88 171.57 201.211C171.419 201.361 171.314 201.482 171.254 201.572C171.193 201.662 171.058 201.979 170.847 202.521L170.531 203.243L169.085 206.812ZM197.277 208.167H199.716H200.258C201.764 208.227 202.516 208.89 202.516 210.154C202.516 210.937 202.2 211.615 201.568 212.187C200.936 212.729 200.183 213 199.309 213H198.767H195.922C194.657 213 193.814 212.503 193.392 211.509L192.986 211.871C192.504 212.292 192.052 212.593 191.631 212.774C191.239 212.925 190.757 213 190.185 213H187.52C185.954 213 184.675 212.428 183.681 211.284C182.717 210.109 182.235 208.573 182.235 206.676C182.235 205.291 182.506 203.951 183.048 202.656C183.59 201.331 184.298 200.172 185.171 199.178C186.075 198.154 187.099 197.341 188.243 196.739C189.387 196.137 190.577 195.836 191.811 195.836C193.648 195.836 195.018 196.483 195.922 197.778C196.313 197.176 196.72 196.754 197.141 196.513C197.593 196.272 198.135 196.152 198.767 196.152C199.4 196.152 199.942 196.348 200.393 196.739C200.845 197.13 201.071 197.612 201.071 198.184C201.071 198.516 201.026 198.817 200.936 199.088C200.875 199.329 200.725 199.75 200.484 200.353L197.277 208.167ZM192.127 207.083L193.799 203.018L193.934 202.656C194.055 202.415 194.115 202.144 194.115 201.843C194.115 201.422 193.919 201.06 193.528 200.759C193.136 200.428 192.67 200.262 192.127 200.262C191.585 200.262 191.028 200.443 190.456 200.804C189.914 201.135 189.417 201.587 188.966 202.159C188.514 202.731 188.138 203.364 187.836 204.056C187.565 204.749 187.43 205.427 187.43 206.089C187.43 206.782 187.595 207.324 187.927 207.715C188.258 208.107 188.71 208.302 189.282 208.302H190.14C190.471 208.302 190.848 208.167 191.269 207.896C191.721 207.625 192.007 207.354 192.127 207.083ZM209.463 208.167H211.948H212.49C213.995 208.227 214.748 208.89 214.748 210.154C214.748 210.937 214.432 211.615 213.8 212.187C213.167 212.729 212.414 213 211.541 213H210.999H207.521C206.166 213 205.127 212.744 204.404 212.232C203.682 211.72 203.32 210.982 203.32 210.019C203.32 209.718 203.35 209.462 203.411 209.251C203.471 209.01 203.591 208.649 203.772 208.167L207.431 199.223L207.657 198.636C208.349 196.98 209.448 196.152 210.954 196.152C211.586 196.152 212.113 196.363 212.535 196.784C212.987 197.176 213.212 197.673 213.212 198.275C213.212 198.726 213.092 199.223 212.851 199.765L212.625 200.398L209.463 208.167ZM212.399 195.203C211.556 195.203 210.833 194.902 210.231 194.3C209.629 193.698 209.328 192.975 209.328 192.132C209.328 191.289 209.614 190.566 210.186 189.964C210.788 189.361 211.511 189.06 212.354 189.06C213.227 189.06 213.965 189.361 214.568 189.964C215.17 190.566 215.471 191.304 215.471 192.177C215.471 193.02 215.17 193.743 214.568 194.345C213.995 194.917 213.273 195.203 212.399 195.203ZM221.183 200.985L220.46 202.792C220.099 203.695 219.708 204.343 219.286 204.734C218.864 205.095 218.352 205.276 217.75 205.276C217.148 205.276 216.621 205.08 216.169 204.689C215.718 204.297 215.492 203.816 215.492 203.243C215.492 203.002 215.522 202.777 215.582 202.566C215.642 202.355 215.778 201.994 215.989 201.482L218.473 195.339C218.804 194.526 219.15 193.954 219.512 193.622C219.903 193.291 220.4 193.125 221.002 193.125C222.117 193.125 222.794 193.637 223.035 194.661L223.216 195.339C223.306 195.7 223.426 195.926 223.577 196.016C223.758 196.107 224.194 196.152 224.887 196.152H230.081H230.623C232.189 196.152 232.972 196.829 232.972 198.184C232.972 198.666 232.807 199.163 232.475 199.675C232.174 200.157 231.813 200.488 231.391 200.669C231.181 200.789 230.94 200.864 230.669 200.895C230.398 200.925 229.946 200.955 229.314 200.985L229.043 201.166C228.711 201.497 228.425 201.783 228.184 202.024C227.974 202.235 227.778 202.445 227.597 202.656C227.416 202.837 227.251 203.033 227.1 203.243C226.98 203.424 226.829 203.635 226.649 203.876C226.227 204.478 225.941 204.96 225.79 205.321C225.64 205.652 225.564 205.984 225.564 206.315C225.564 207.55 226.242 208.167 227.597 208.167H230.352H230.894C232.4 208.227 233.153 208.89 233.153 210.154C233.153 210.937 232.837 211.615 232.204 212.187C231.602 212.729 230.864 213 229.991 213H229.449H225.113C224.962 213 224.736 212.97 224.435 212.91C224.134 212.849 223.803 212.774 223.442 212.684C222.448 212.413 221.635 211.811 221.002 210.877C220.4 209.913 220.099 208.799 220.099 207.534C220.099 206.511 220.355 205.517 220.867 204.553C221.379 203.56 222.252 202.37 223.487 200.985H221.183Z" fill="black"/>
<path fill-rule="evenodd" clip-rule="evenodd" d="M166.044 83.4783L159.435 86.2609L143.957 88.3478L113.87 87.3043L65.8696 85.7391L65 76.8696L65.8696 68L67.7826 63.1304L70.7392 57.3913L73.174 57.913L80.1305 62.7826L92.1305 63.6522L98.2174 60.8696L105 52.8696L107.609 52L110.913 53.2174L141.522 73.3913H161.696L165.174 75.4783L166.913 77.2174L169 80.6957L166.044 83.4783ZM65.3479 87.8261L90.7392 88.8696L106.044 89.3913L130.391 90.4348L153.348 90.087L164.13 87.4783L169.174 84.5217L169 90.087L166.391 93.5652L161.174 96.1739L145.87 99.1304H124.13L103.957 97.3913L96.1305 96.6957V98.6087L95.4348 100H67.6087L66.0435 96.8696L65.6957 91.4783L65.3479 87.8261Z" fill="white"/>
</svg>
