<svg width="95" height="123" viewBox="0 0 95 123" fill="none" xmlns="http://www.w3.org/2000/svg">
<g filter="url(#filter0_d_241_172)">
<g clip-path="url(#clip0_241_172)">
<mask id="mask0_241_172" style="mask-type:luminance" maskUnits="userSpaceOnUse" x="4" y="0" width="87" height="115">
<path d="M4 0.0507812H90.8466V114.747H4V0.0507812Z" fill="white"/>
</mask>
<g mask="url(#mask0_241_172)">
<path d="M4 0.0507812H90.8466V114.747H4V0.0507812Z" fill="white"/>
<path d="M4 0.0507812H90.8466V114.747H4V0.0507812Z" fill="white"/>
</g>
<mask id="mask1_241_172" style="mask-type:luminance" maskUnits="userSpaceOnUse" x="4" y="96" width="87" height="19">
<path d="M4 96.1921H90.8466V114.747H4V96.1921Z" fill="white"/>
</mask>
<g mask="url(#mask1_241_172)">
<path d="M23.1583 114.777H19.9709L40.9824 96.2112H44.1699L23.1583 114.777ZM38.0263 96.2112H34.8389L13.8321 114.777H17.0196L38.0263 96.2112ZM50.3087 96.2112H47.1212L26.1144 114.777H29.3007L50.3087 96.2112ZM56.4498 96.2112H53.2624L32.2556 114.777H35.443L56.4498 96.2112ZM31.8852 96.2112H28.7001L7.69093 114.777H10.8772L31.8852 96.2112ZM19.6016 96.2112H16.4154L4 107.184V110L19.6016 96.2112ZM22.5577 96.2112L4 112.613V114.777H4.73603L25.744 96.2112H22.5577ZM4 101.757V104.574L13.4617 96.2112H10.2742L4 101.757ZM62.5934 96.2112H59.4059L38.3967 114.777H41.5842L62.5934 96.2112ZM90.8466 103.804V100.988L75.2449 114.777H78.4312L90.8466 103.804ZM90.8466 98.3769V96.2112H90.1105L69.1038 114.777H72.29L90.8466 98.3769ZM87.5248 114.779H90.8466V111.842L87.5248 114.779ZM90.8466 109.23V106.414L81.3849 114.777H84.5723L90.8466 109.23ZM7.32052 96.2112H4V99.1453L7.32052 96.2112ZM87.1556 96.2112H83.9682L62.9602 114.777H66.1477L87.1556 96.2112ZM74.8733 96.2112H71.6858L50.6791 114.777H53.8665L74.8733 96.2112ZM81.0145 96.2112H77.827L56.8202 114.777H60.0077L81.0145 96.2112ZM68.7321 96.2112H65.5447L44.5379 114.777H47.7254L68.7321 96.2112Z" fill="black"/>
</g>
</g>
</g>
<defs>
<filter id="filter0_d_241_172" x="0" y="0" width="95" height="123" filterUnits="userSpaceOnUse" color-interpolation-filters="sRGB">
<feFlood flood-opacity="0" result="BackgroundImageFix"/>
<feColorMatrix in="SourceAlpha" type="matrix" values="0 0 0 0 0 0 0 0 0 0 0 0 0 0 0 0 0 0 127 0" result="hardAlpha"/>
<feOffset dy="4"/>
<feGaussianBlur stdDeviation="2"/>
<feComposite in2="hardAlpha" operator="out"/>
<feColorMatrix type="matrix" values="0 0 0 0 0 0 0 0 0 0 0 0 0 0 0 0 0 0 0.25 0"/>
<feBlend mode="normal" in2="BackgroundImageFix" result="effect1_dropShadow_241_172"/>
<feBlend mode="normal" in="SourceGraphic" in2="effect1_dropShadow_241_172" result="shape"/>
</filter>
<clipPath id="clip0_241_172">
<rect x="4" width="87" height="115" rx="6" fill="white"/>
</clipPath>
</defs>
</svg>
